<svg xmlns="http://www.w3.org/2000/svg" version="1.1" xmlns:xlink="http://www.w3.org/1999/xlink" viewBox="0 0 11.614308385032844 3.500249990696952"><g transform="matrix(0.735378072258535,0,0,0.735378072258535,3.751359030825863,0.9937645643987065)"><rect width="12.87385491634366" height="12.87385491634366" x="-3.64136523073597" y="-5.40839470817183" fill="#ffffff"></rect><g transform="matrix(1,0,0,1,0,0)" clip-path="url(#SvgjsClipPath189170)"><g clip-path="url(#SvgjsClipPath1891652fb6fef3-fd23-4503-8cf2-5349e3537b6d)"><path d=" M -1.3238777559953532 -0.06783591514306364 L -1.3259882656757547 -0.06783591514306364 L -1.3259882656757547 1.7323466145885895 L -0.9850313154245756 1.7323466145885895 L -0.9850313154245756 1.4462629160278218 C -0.6484277617055403 1.2876012127545224 -0.46692158417479757 0.9166754286624101 -0.5481902582474885 0.553535109947546 C -0.629458932320182 0.19039479123268177 -0.9517548117057308 -0.06778304654055825 -1.3238777559953532 -0.06783591514306364 Z" fill="#bf5000" transform="matrix(1,0,0,1,0,0)" fill-rule="nonzero"></path></g><g clip-path="url(#SvgjsClipPath1891652fb6fef3-fd23-4503-8cf2-5349e3537b6d)"><path d=" M -0.6632608168134013 0.7514803883183478 C -0.6765062976185754 0.7514803883183478 -0.6872438813634059 0.7407428045735186 -0.6872438813634059 0.7274973237683433 C -0.6873190389913764 0.42653217756344064 -0.9008873932568506 0.16792552072042272 -1.1964111940643631 0.11095440492510261 C -1.2048277361322624 0.10934845637416735 -1.211748178349842 0.10337432694119286 -1.2145656570719623 0.09528241339846924 C -1.2173831357940814 0.08719049985574628 -1.2156696089711614 0.07821015638815357 -1.2100705455831953 0.07172419151698434 C -1.2044714821952291 0.06523822664581377 -1.1958375131802603 0.062232012745012305 -1.1874209711536081 0.06383796151321514 C -0.8692761969984095 0.12512710861767856 -0.6393371570436222 0.403502807338943 -0.6392366384384556 0.7274973237683426 C -0.6392366290819846 0.7338651578020966 -0.641769051951286 0.7399715830550687 -0.6462756451096352 0.7444704638458445 C -0.6507822382679833 0.7489693446366209 -0.6568929921391395 0.7514913046056206 -0.6632608168147389 0.7514803883183458 Z" fill="#bf0000" transform="matrix(1,0,0,1,0,0)" fill-rule="nonzero"></path></g><g clip-path="url(#SvgjsClipPath1891652fb6fef3-fd23-4503-8cf2-5349e3537b6d)"><path d=" M -1.3916744533261376 2.1249014151430643 C -1.3077965000215965 2.1249014151430643 -1.2397999839871974 2.0569048991086634 -1.2397999839871974 1.973026945804121 L -1.543548922665081 1.973026945804121 C -1.543541355125997 2.056901764331438 -1.4755492718533296 2.124893847604051 -1.3916744533260763 2.1249014151430643 Z" fill="#bf5000" transform="matrix(1,0,0,1,0,0)" fill-rule="nonzero"></path></g><g clip-path="url(#SvgjsClipPath1891652fb6fef3-fd23-4503-8cf2-5349e3537b6d)"><path d=" M -1.3238777559953532 -0.09181897969306818 L -1.349916511792501 -0.09181897969306818 L -1.349916511792501 1.7084183684718417 L -1.7002748233472817 1.7084183684718417 C -1.713520304152457 1.7084183684718417 -1.7242578878972863 1.719155952216671 -1.7242578878972863 1.7324014330218462 C -1.7242578878972863 1.7456469138270216 -1.713520304152457 1.7563844975718508 -1.7002748233472817 1.7563844975718508 L -0.961048250874571 1.7563844975718508 L -0.961048250874571 1.4613105759569105 C -0.6199390959769615 1.2927041194271864 -0.43989255493869117 0.91136638972911 -0.5264522967563188 0.540838382913248 C -0.6130120385739466 0.17031037609738614 -0.943373364562677 -0.09179001558888496 -1.3238777559953532 -0.09181897969306685 Z M -1.3019503826924919 0.9687669531413892 L -1.196424898672472 0.9687669531413892 C -1.2168049995267862 1.070907331658814 -1.2264961432347283 1.1748919257572898 -1.2253416222156222 1.2790392853768766 L -1.2253416222156222 1.708418368471843 L -1.3019092688675493 1.708418368471843 Z M -0.9952275440104066 1.4245685210663033 L -1.0089321523246948 1.4310645054072768 L -1.0089321523246948 1.708418368471843 L -1.1774714253738126 1.708418368471843 L -1.1774714253738126 1.279039285376876 C -1.1788762515779077 1.1747385856192964 -1.1686720694104544 1.0706053662482866 -1.14704719491609 0.9685613840166707 C -1.008891038499751 0.9652859826295597 -0.9553060199908843 0.9235965641374946 -0.9347765167360804 0.8883894253780875 C -0.9169744380454123 0.8575641599444398 -0.9173736156566867 0.819489969100606 -0.9358180669679654 0.7890447197078114 C -0.9511061202568489 0.7615486926009047 -0.9788785260683242 0.7432709076483096 -1.0101792716812945 0.7401055634174876 C -1.0535850999741176 0.737492989405867 -1.0955594807976912 0.7561068262093085 -1.1227626289831742 0.7900314515064392 C -1.1472664686491214 0.8176873510846728 -1.1681934055450403 0.8626658755721671 -1.1846115263055577 0.9208008240413781 L -1.3020052011257515 0.9208008240413781 L -1.3020052011257515 -0.04355134921014452 C -0.9453394348231747 -0.03337632939294271 -0.6422494440354971 0.22019673205013318 -0.5692792408326024 0.569466469251931 C -0.496309037629705 0.918736206453729 -0.6725240063923257 1.2724467163191788 -0.9952823624436646 1.4245685210663033 Z M -1.1340552262341472 0.9201292982339806 C -1.124975872042014 0.8845600389699684 -1.1089182639873296 0.8511497793331239 -1.086815441374794 0.8218398474039046 C -1.070710167701341 0.8016859808883828 -1.0468827656600186 0.7892203513145944 -1.0211429583327252 0.7874823943599837 C -1.0191425458370347 0.787483816427931 -1.0171435542701845 0.7875890265103971 -1.0151540444993827 0.7877976003512125 C -0.9992167270164425 0.7892190026795207 -0.9850659663145807 0.7985687044173722 -0.9775074854600312 0.8126714644416466 C -0.9677044291491097 0.8283326938084634 -0.9671795970711334 0.8480821249027006 -0.9761370246286036 0.8642419055283125 C -0.9853739306324334 0.8799199774398581 -1.0186350150112102 0.9148530240329791 -1.1341100446674042 0.9201292982339799 Z" fill="#125f96" transform="matrix(1,0,0,1,0,0)" fill-rule="nonzero"></path></g><g clip-path="url(#SvgjsClipPath1891652fb6fef3-fd23-4503-8cf2-5349e3537b6d)"><path d=" M -2.1110430483514446 0.6862327481340215 C -2.1598241885568195 0.6986502807173747 -2.1960346878197705 0.7396584150684287 -2.202318432899988 0.7896014756771055 C -2.208602177980208 0.8395445362857816 -2.1836785823827607 0.8882444512992713 -2.1394938152119076 0.9123587853197779 C -2.1278642830649646 0.918701478413914 -2.1132949158637664 0.9144156485591914 -2.1069522227696322 0.902786116412248 C -2.1006095296754954 0.8911565842653045 -2.1048953595302167 0.8765872170641066 -2.11652489167716 0.8702445239699703 C -2.143430931520246 0.8555992817808574 -2.1586239344535643 0.8259717414529946 -2.154814986623285 0.795575853322497 C -2.1510060387930072 0.7651799651919988 -2.128972274391174 0.7402173589519563 -2.099284494417785 0.7326639611028305 C -2.086574749276751 0.72930571761256 -2.0789371831243337 0.7163418060799109 -2.082159995910381 0.7035970464259959 C -2.0853828086964286 0.6908522867720801 -2.0982647172444047 0.6830772079222884 -2.1110430483514433 0.6861642250924497 Z" fill="#125f96" transform="matrix(1,0,0,1,0,0)" fill-rule="nonzero"></path></g><g clip-path="url(#SvgjsClipPath1891652fb6fef3-fd23-4503-8cf2-5349e3537b6d)"><path d=" M -1.775170507784869 0.4517880137014919 C -1.7666462496474982 0.45091404480363373 -1.7592357671803984 0.4455588266166127 -1.755730517457053 0.4377396180374833 C -1.7522252677337073 0.4299204094583532 -1.7531577815832797 0.42082513430329815 -1.7581767900576166 0.4138798947565677 C -1.7631957985319533 0.4069346552098365 -1.77153879483258 0.40319459839829913 -1.780063052943905 0.4040685675501997 C -1.8563404623868698 0.41191598865212076 -1.9178469291042404 0.46999923330402293 -1.93004476468519 0.5457028528674763 C -1.9422426002661408 0.6214064724309297 -1.9020927622777362 0.6958692098695487 -1.8321405645473634 0.7272780500353146 C -1.8200606860792936 0.7327124814767768 -1.8058625325956694 0.727325282307714 -1.8004281010642051 0.715245403880133 C -1.794993669532741 0.7031655254525521 -1.8003808685960188 0.6889673719287903 -1.8124607469831107 0.6835329403073236 C -1.8626226435709126 0.6610180574227851 -1.8914168252598738 0.6076266420940095 -1.882672438494414 0.5533433894493944 C -1.8739280517289518 0.49906013680477923 -1.8298240870165876 0.4574117463605235 -1.7751293939599235 0.4517880137014899 Z" fill="#125f96" transform="matrix(1,0,0,1,0,0)" fill-rule="nonzero"></path></g><g clip-path="url(#SvgjsClipPath1891652fb6fef3-fd23-4503-8cf2-5349e3537b6d)"><path d=" M -1.7130338136878858 0.9555420061181008 C -1.6490833211581646 0.9253066531422935 -1.606002078300652 0.8633825847084122 -1.599888567445122 0.7929094192524402 C -1.5987532405189642 0.7797169203704871 -1.6085275096078293 0.7681019226396522 -1.6217200084897838 0.7669665957134939 C -1.634912507371737 0.7658312687873357 -1.646527505102573 0.7756055378762007 -1.6476628320287308 0.7887980367581544 C -1.6534139652883726 0.8565028030459194 -1.7038901015624826 0.9119202422432675 -1.7707651008617546 0.9239512596804274 C -1.8376401001610265 0.935982277117587 -1.9042657580832627 0.9016318097731151 -1.933253164690183 0.840176613328422 C -1.936900822438398 0.8324210562558194 -1.9444089376546578 0.827200628248188 -1.952949275977708 0.826481814028572 C -1.9614896143007594 0.8257629998089548 -1.9697646951627936 0.8296550043580626 -1.9746573756641563 0.8366917472172329 C -1.9795500561655182 0.8437284900764027 -1.9803170217401025 0.8528409225996583 -1.9766693638763202 0.8605964796179056 C -1.9300626708947772 0.9596282524024651 -1.812012109911357 1.002144123289852 -1.712965290646316 0.9555694153347287 Z" fill="#125f96" transform="matrix(1,0,0,1,0,0)" fill-rule="nonzero"></path></g><g clip-path="url(#SvgjsClipPath1891652fb6fef3-fd23-4503-8cf2-5349e3537b6d)"><path d=" M -1.664560614080247 1.3568403467770906 C -1.688669467976907 1.3819837776137192 -1.7277030330987397 1.3853049943453528 -1.7557132792686296 1.3645961783495248 C -1.7837235254385184 1.3438873623536973 -1.791990981556114 1.3055950804153946 -1.7750197570934099 1.2751745858322452 C -1.7685673157297463 1.2636056044546973 -1.7727150909363207 1.2489963547995895 -1.7842840723138693 1.2425439134359253 C -1.7958530536914181 1.2360914720722618 -1.8104623033465264 1.2402392472788362 -1.81691474471019 1.2518082286563847 C -1.8455954619087787 1.3033012569031437 -1.8315831852826718 1.368082738747172 -1.7841859003448803 1.4031200456866726 C -1.7367886154070904 1.4381573526261753 -1.6707462776463573 1.432554325832402 -1.6299290688700399 1.390032908114297 C -1.6239997886487956 1.3838465784419092 -1.6218212754350922 1.374966940718933 -1.6242141540925377 1.366738868618602 C -1.6266070327499846 1.3585107965182717 -1.6332077680765122 1.3521843299639686 -1.641529926896975 1.3501425877362427 C -1.6498520857174406 1.348100845508517 -1.6586313340970549 1.350654016831136 -1.6645606140575644 1.3568403467534245 Z" fill="#125f96" transform="matrix(1,0,0,1,0,0)" fill-rule="nonzero"></path></g><g clip-path="url(#SvgjsClipPath1891652fb6fef3-fd23-4503-8cf2-5349e3537b6d)"><path d=" M -1.4240447381644885 1.3499880426199464 C -1.4236267136363119 1.3482415190008148 -1.423410592974823 1.3464527756535922 -1.4234006215737165 1.344656949985688 L -1.4234006215737165 1.3358037730146575 C -1.4234006215737165 1.334803336607715 -1.4232635754905734 1.3338440140257144 -1.4232635754905734 1.332843577618771 C -1.4232635754905734 1.3323913255443995 -1.4233732123570881 1.3319664826866564 -1.4234006215737165 1.3314731167873417 L -1.4234006215737165 1.0911354007796692 C -1.4234006215737165 1.0908338993967546 -1.4233183939238314 1.090546102622155 -1.4233046893155172 1.0902446012392404 C -1.4233046893155172 1.0894360293486973 -1.4233046893155172 1.088668571283097 -1.4234006215737165 1.0878874086091825 L -1.4234006215737165 0.268242194548228 C -1.4238207410981731 0.2661802765019507 -1.4238207410981731 0.2640548112031897 -1.4234006215737165 0.2619928931569124 C -1.42339124125944 0.07292778549197146 -1.5720422033775987 -0.08272943953745686 -1.7609074077569604 -0.09142136677964804 C -1.9497726121363224 -0.10011329402183924 -2.1120922039247745 0.04123248895079232 -2.129448337317513 0.22949926684348176 C -2.132353714280164 0.23012967882619206 -2.135286500459423 0.2304997032506777 -2.1381644682054217 0.2312397520996496 C -2.215052703878219 0.2506890744045148 -2.2786486767211067 0.30455860055749917 -2.3104794976160092 0.37720070793435495 C -2.3423103185109144 0.4498428153112114 -2.338807649332084 0.5331140883794415 -2.300988919587481 0.6028265019332616 C -2.3640307923467385 0.6685324113708824 -2.392594392888095 0.7600086781602043 -2.378141839731261 0.8499123375032367 C -2.3636892865744263 0.9398159968462698 -2.307894986031054 1.0177312244238954 -2.227436286764696 1.0603685551140916 C -2.2388579645564315 1.0864639798864673 -2.2446977135035846 1.1146590907104597 -2.2445807517658705 1.1431443893323945 C -2.244398392559201 1.2595762267676216 -2.1510800887772 1.3544542018800492 -2.0346672662159153 1.3565662546108057 C -2.0113875389795206 1.5067015757458082 -1.8828409659401284 1.6179125727693748 -1.7309183275380315 1.619352119037282 L -1.7275606985010306 1.619352119037282 C -1.6444698822459975 1.6205503988410084 -1.564212061527091 1.589170402618764 -1.5039700138534153 1.5319304226004378 C -1.4552802493357406 1.483571315675436 -1.4267215539514786 1.418560129131974 -1.4240447381644885 1.3499880426199464 Z M -1.7304249616387173 1.5713859899372742 C -1.8732362293800748 1.5703059285936347 -1.9887757771132644 1.4548639907006538 -1.9899765385030233 1.3120536868059964 C -1.9901625229818738 1.2432410878326865 -1.962813866721816 1.1772134767248632 -1.914025599225234 1.128686027560816 C -1.9049347642947647 1.119277418888958 -1.9050617173985387 1.1043189990077489 -1.9143109342639482 1.0950660435744868 C -1.9235601511293576 1.0858130881412262 -1.9385185184845566 1.0856800900208368 -1.9479308001947881 1.0947671219829551 C -2.004817200981675 1.151404945240901 -2.037093300685392 1.2281782399137269 -2.0377645076949475 1.3084493748193384 C -2.126416760376668 1.30474417862367 -2.196423448401838 1.2318739101597744 -2.1965735088409173 1.1431443893323925 C -2.196648684054217 1.121131080075077 -2.192120659220503 1.0993452121380238 -2.183280038776058 1.079184982329609 C -2.1688406558454645 1.0840411822512888 -2.1540452664170466 1.0877663763068177 -2.1390278585292206 1.0903268288891255 C -2.137718798647103 1.090544066146854 -2.136394188296499 1.0906540683905026 -2.1350672267263917 1.0906557394886687 C -2.1225971309375797 1.0906210235620268 -2.112231752543443 1.0810408234608506 -2.111216866773999 1.0686120463266078 C -2.1102019810045554 1.056183269192364 -2.118875846979503 1.0450483981881349 -2.131175117965134 1.042991111771574 C -2.2365969278679714 1.025339524303847 -2.3180606659171166 0.9407977700703587 -2.331792074961308 0.8347940675454845 C -2.3455234840054975 0.728790365020611 -2.288289652999197 0.6262821340625171 -2.190844982565545 0.5823518171117165 C -2.1787688884943144 0.5769060322892445 -2.1733939608597588 0.5627017429353702 -2.1788397456822293 0.5506256488641382 C -2.1842855305046998 0.5385495547929054 -2.1984898198585747 0.5331746271583512 -2.2105659139298055 0.5386204119808211 C -2.229417403858917 0.5471396353818371 -2.2473032237760893 0.5576515172134561 -2.26391795409733 0.5699765558039137 C -2.2903598754280794 0.5141354665638797 -2.2907422472463614 0.4494571161788853 -2.2649624047558308 0.39330729719130225 C -2.2391825622652988 0.3371574782037192 -2.189882134257361 0.2952897935893807 -2.1302980230330193 0.27894549364168736 C -2.1272033381611744 0.34963622201452177 -2.102779367573327 0.41773380667582616 -2.0602400653303787 0.4742772759452384 C -2.0550990714979673 0.48113193601504767 -2.046691679470829 0.48472321527416007 -2.038184872877734 0.4836983134031376 C -2.0296780662846388 0.4826734115321166 -2.0223642316173813 0.47718803553088196 -2.018998419976225 0.46930847372493123 C -2.0156326083350677 0.4614289119189804 -2.016726166657472 0.45235225738052864 -2.0218671620523647 0.4454975984825772 C -2.101760502810301 0.3390493162344552 -2.103641346532313 0.19315414067003794 -2.0265187100703534 0.08468164813354634 C -1.9493960736083908 -0.023790844402945918 -1.8109776347540798 -0.06993491890026242 -1.6841936100922266 -0.029438082203233122 C -1.5574095854303747 0.011058754493796175 -1.4713701138362862 0.1288982604070882 -1.4714078644986683 0.26199289315691304 C -1.4709877449742106 0.26405481120319035 -1.4709877449742106 0.26618027650195136 -1.471407864498667 0.2682421945482287 L -1.471407864498667 0.48907825292467 C -1.5072117249877737 0.46241948239788744 -1.5549991203440299 0.45826146325356054 -1.5948692636851294 0.4783357787308893 C -1.634739407026229 0.49841009420821814 -1.6598577881330083 0.5392756201281703 -1.6597640011702461 0.5839141424595462 C -1.6597640011702461 0.5971596232647208 -1.6490264174254154 0.6078972070095501 -1.6357809366202414 0.6078972070095501 C -1.6225354558150675 0.6078972070095501 -1.611797872070237 0.5971596232647208 -1.611797872070237 0.5839141424595455 C -1.611797872070237 0.5451465123543413 -1.580370498389656 0.5137191386737605 -1.5416028682844525 0.5137191386737605 C -1.5028352381792491 0.5137191386737605 -1.4714078644986683 0.5451465123543413 -1.4714078644986683 0.5839141424595455 L -1.4714078644986683 1.0884767067666974 C -1.474522295094075 1.130067158653898 -1.5084800918347288 1.1626255025816357 -1.5501647326935601 1.1639878838004827 C -1.59184937355239 1.1653502650193297 -1.627860642603712 1.1350787235965747 -1.633684131548153 1.0937803901843275 C -1.6344623760061454 1.088289268425006 -1.634687346135706 1.082733883593004 -1.6343556573555544 1.0771978141240386 C -1.633848902088892 1.068629490353011 -1.6379517872664806 1.0604416819798124 -1.6451187957273432 1.055718657221526 C -1.6522858041882047 1.0509956324632397 -1.6614280968341575 1.050454931147895 -1.6691018604548873 1.0543002302310158 C -1.6767756240756144 1.0581455293141357 -1.6818150314077505 1.0657926363800456 -1.6823217864532685 1.0743609601641537 C -1.6828276925256738 1.0831055371330658 -1.6824604195971926 1.0918787692121286 -1.681225417790419 1.1005504666915857 C -1.6747381877173133 1.1467586480319927 -1.6438704903753831 1.1858930835406263 -1.6004445243267833 1.2029654486244392 C -1.55701855827818 1.2200378137082524 -1.5077639128543532 1.212402456090862 -1.4715449105818106 1.18298368570203 L -1.4715449105818106 1.3357626591897163 C -1.4709896566496845 1.3965157997473219 -1.494905262338186 1.4549366556092815 -1.5379026240395923 1.497860766331116 C -1.5899172247800295 1.5467228571322456 -1.6590810264326485 1.5731368517127045 -1.7304249616387173 1.5713859899372742 Z" fill="#125f96" transform="matrix(1,0,0,1,0,0)" fill-rule="nonzero"></path></g><g clip-path="url(#SvgjsClipPath1891652fb6fef3-fd23-4503-8cf2-5349e3537b6d)"><path d=" M -1.9136829840173801 0.2860307761401744 C -1.900437503212205 0.2860307761401744 -1.8896999194673756 0.27529319239534517 -1.8896999194673756 0.2620477115901699 C -1.890146790067547 0.22156150647504647 -1.8688037718874098 0.18395801731925104 -1.8338142711185528 0.163584815953164 C -1.7988247703496945 0.14321161458707624 -1.7555865138893831 0.14321161458707624 -1.7205970131205248 0.163584815953164 C -1.6856075123516663 0.1839580173192517 -1.6642644941715306 0.2215615064750478 -1.6647113647717044 0.2620477115901699 C -1.6647113647717044 0.27529319239534517 -1.653973781026874 0.2860307761401744 -1.6407283002217001 0.2860307761401744 C -1.6274828194165247 0.2860307761401744 -1.6167452356716954 0.27529319239534517 -1.6167452356716954 0.2620477115901699 C -1.6162121688435944 0.20436739285588235 -1.646678629887123 0.1508390121915677 -1.6965443017703525 0.12184387299261257 C -1.7464099736535807 0.09284873379365677 -1.8080013105854955 0.09284873379365677 -1.8578669824687235 0.12184387299261124 C -1.9077326543519517 0.15083901219156504 -1.9381991153954818 0.20436739285587902 -1.9376660485673833 0.2620477115901699 C -1.9376660485673847 0.27529319239534517 -1.9269284648225542 0.2860307761401744 -1.9136829840173801 0.2860307761401744 Z" fill="#125f96" transform="matrix(1,0,0,1,0,0)" fill-rule="nonzero"></path></g><g clip-path="url(#SvgjsClipPath1891652fb6fef3-fd23-4503-8cf2-5349e3537b6d)"><path d=" M -1.0832522432130798 1.9490438812541167 L -1.7000966634391959 1.9490438812541167 C -1.713342144244371 1.9490438812541167 -1.7240797279892002 1.9597814649989458 -1.7240797279892002 1.973026945804121 C -1.7240797279892002 1.9862724266092966 -1.713342144244371 1.9970100103541257 -1.7000966634391959 1.9970100103541257 L -1.565695569700971 1.9970100103541257 C -1.5538971415033158 2.0841048820017782 -1.4795374279706386 2.1490705443678415 -1.3916470441095106 2.1490705443678415 C -1.3037566602483817 2.1490705443678415 -1.2293969467157042 2.0841048820017782 -1.2175985185180478 1.9970100103541257 L -1.0832111293881372 1.9970100103541257 C -1.0699656485829618 1.9970100103541257 -1.0592280648381327 1.9862724266092966 -1.0592280648381327 1.973026945804121 C -1.0592280648381327 1.9597814649989458 -1.0699656485829618 1.9490438812541167 -1.0832111293881372 1.9490438812541167 Z M -1.3916059302845667 2.1009183505930595 C -1.4529652362517225 2.1008363244312163 -1.5056526589820147 2.0572634580327573 -1.5172497793099606 1.9970100103541257 L -1.2659620812591716 1.9970100103541257 C -1.2775680776088232 2.0572807578774546 -1.3302827525568632 2.1008571496628923 -1.3916607487178236 2.1009183505930595 Z" fill="#125f96" transform="matrix(1,0,0,1,0,0)" fill-rule="nonzero"></path></g><g clip-path="url(#SvgjsClipPath1891652fb6fef3-fd23-4503-8cf2-5349e3537b6d)"><path d=" M -1.0832522432130798 1.8287311248629805 L -1.7000966634391959 1.8287311248629805 C -1.713342144244371 1.8287311248629805 -1.7240797279892002 1.8394687086078096 -1.7240797279892002 1.852714189412985 C -1.7240797279892002 1.8659596702181591 -1.713342144244371 1.8766972539629896 -1.7000966634391959 1.8766972539629896 L -1.0832522432130798 1.8766972539629896 C -1.0700067624079057 1.8766972539629896 -1.0592691786630752 1.8659596702181591 -1.0592691786630752 1.852714189412985 C -1.0592691786630752 1.8394687086078096 -1.0700067624079057 1.8287311248629805 -1.0832522432130798 1.8287311248629805 Z" fill="#125f96" transform="matrix(1,0,0,1,0,0)" fill-rule="nonzero"></path></g></g><g><path d=" M 0.22680000000000003 0.5273100000000001 C 0.24759000000000003 0.46494 0.32886000000000004 0.26082000000000005 0.32886000000000004 0.21734999999999993 C 0.32886000000000004 0.20412000000000008 0.30807 0.19277999999999995 0.30429 0.18333 C 0.29295000000000004 0.1625399999999999 0.26649 0.15876 0.24570000000000003 0.15876 C 0.23436 0.15876 0.22869000000000003 0.16443000000000008 0.21735000000000002 0.17009999999999992 L 0.21168000000000003 0.1795500000000001 C 0.21357 0.18333 0.045360000000000004 0.64449 0.030240000000000003 0.6974100000000001 C -0.0189 0.8505 -0.0189 0.92232 -0.007560000000000001 1.00359 C -0.0018900000000000002 1.03194 0.035910000000000004 1.10565 0.0756 1.10565 C 0.08694 1.10565 0.08883 1.1094300000000001 0.10017000000000001 1.11321 L 0.10017000000000001 1.1094300000000001 L 0.10395000000000001 1.10565 C 0.10017000000000001 1.10565 0.09261000000000001 1.0999800000000002 0.09261000000000001 1.0924200000000002 L 0.10017000000000001 1.0943100000000001 C 0.10017000000000001 1.0754100000000002 0.09261000000000001 1.0546200000000001 0.09261000000000001 1.03383 C 0.09261000000000001 0.9355500000000001 0.12852000000000002 0.82593 0.15687 0.73143 C 0.16821000000000003 0.6974100000000001 0.18522000000000002 0.65961 0.19278 0.6237 C 0.19467 0.6180300000000001 0.19656 0.6142500000000001 0.20223000000000002 0.6104700000000001 C 0.20601000000000003 0.65961 0.18900000000000003 0.62748 0.22302000000000002 0.6785100000000001 L 0.22869000000000003 0.6822900000000001 C 0.23058000000000003 0.6822900000000001 0.23247 0.6822900000000001 0.23436 0.6822900000000001 C 0.24003000000000002 0.6822900000000001 0.24759000000000003 0.68418 0.25326000000000004 0.68418 C 0.26271 0.68418 0.26838 0.67473 0.27594 0.67095 C 0.30429 0.6615000000000001 0.35910000000000003 0.65961 0.38745 0.65961 C 0.46683 0.65961 0.5972400000000001 0.6936300000000001 0.5972400000000001 0.7730100000000001 C 0.5972400000000001 0.9109800000000001 0.37611000000000006 1.0924200000000002 0.23058000000000003 1.0999800000000002 C 0.22680000000000003 1.0999800000000002 0.21546 1.0999800000000002 0.20790000000000003 1.0999800000000002 C 0.20412000000000002 1.0999800000000002 0.20223000000000002 1.0999800000000002 0.20034000000000002 1.0999800000000002 C 0.20223000000000002 1.0924200000000002 0.21168000000000003 1.08108 0.21357 1.0754100000000002 L 0.21357 1.0697400000000001 C 0.20790000000000003 1.0754100000000002 0.20034000000000002 1.08864 0.19656 1.0943100000000001 L 0.19467 1.0943100000000001 L 0.19467 1.08108 C 0.24948000000000004 0.9998100000000001 0.40068000000000004 0.9090900000000001 0.49896000000000007 0.9090900000000001 C 0.50085 0.9090900000000001 0.50463 0.9090900000000001 0.5103000000000001 0.9053100000000001 C 0.5103000000000001 0.9053100000000001 0.5178600000000001 0.9053100000000001 0.5178600000000001 0.9053100000000001 L 0.5178600000000001 0.90153 L 0.5103000000000001 0.90153 L 0.51219 0.89775 L 0.52353 0.89775 L 0.5178600000000001 0.8958600000000001 L 0.5178600000000001 0.8939700000000002 C 0.52353 0.8939700000000002 0.52542 0.8939700000000002 0.5310900000000001 0.8958600000000001 L 0.52353 0.8845200000000001 L 0.53298 0.8845200000000001 C 0.52353 0.8731800000000001 0.51975 0.87507 0.5103000000000001 0.8656200000000001 L 0.5027400000000001 0.8561700000000001 C 0.48951000000000006 0.8505 0.47439000000000003 0.8486100000000001 0.45738000000000006 0.8486100000000001 C 0.34776 0.8486100000000001 0.21168000000000003 0.9242100000000001 0.1323 1.0017 C 0.12663000000000002 1.00359 0.12285000000000001 1.00737 0.11718 1.01115 L 0.11529000000000002 1.0206000000000002 C 0.11529000000000002 1.0224900000000001 0.11340000000000001 1.02627 0.10962000000000001 1.02627 C 0.10962000000000001 1.03383 0.10962000000000001 1.0432800000000002 0.10962000000000001 1.04895 C 0.10962000000000001 1.0924200000000002 0.19467 1.20204 0.24192000000000002 1.21716 L 0.24948000000000004 1.21527 L 0.24948000000000004 1.2133800000000001 C 0.25893000000000005 1.2133800000000001 0.26649 1.21716 0.27594 1.21716 C 0.28161 1.21716 0.29106000000000004 1.2190500000000002 0.29484000000000005 1.22283 L 0.29673000000000005 1.2190500000000002 C 0.30429 1.21716 0.31374 1.2133800000000001 0.31941 1.2133800000000001 C 0.33075000000000004 1.20771 0.34209000000000006 1.2058200000000001 0.35343 1.20015 L 0.35532 1.20015 C 0.5065200000000001 1.1736900000000001 0.72765 0.9752400000000001 0.7182000000000001 0.7938000000000001 C 0.71442 0.6974100000000001 0.6237 0.6180300000000001 0.5140800000000001 0.58401 C 0.5065200000000001 0.5821200000000001 0.46116000000000007 0.57645 0.45360000000000006 0.5707800000000001 C 0.46494 0.56889 0.54054 0.5310900000000001 0.55188 0.52353 C 0.5575500000000001 0.52353 0.56322 0.52353 0.5670000000000001 0.51975 L 0.56511 0.51408 C 0.5783400000000001 0.50841 0.6029100000000001 0.51219 0.6029100000000001 0.49896000000000007 L 0.6029100000000001 0.49329 C 0.69174 0.45738 0.8278200000000001 0.33075 0.8278200000000001 0.23625000000000007 C 0.8278200000000001 0.06614999999999993 0.63504 0 0.49707000000000007 0 C 0.31752 0 0.11151000000000001 0.07749000000000006 0.011340000000000001 0.1795500000000001 C 0.0037800000000000004 0.19089 -0.007560000000000001 0.19845000000000002 -0.007560000000000001 0.21545999999999998 C -0.007560000000000001 0.23625000000000007 0.0037800000000000004 0.27027 0.02457 0.27783 L 0.032130000000000006 0.27783 C 0.16821000000000003 0.15687000000000006 0.35343 0.10017000000000009 0.5348700000000001 0.10017000000000009 C 0.6029100000000001 0.10017000000000009 0.7408800000000001 0.11339999999999995 0.7219800000000001 0.20412000000000008 C 0.69174 0.33075 0.39690000000000003 0.47628000000000004 0.28728000000000004 0.51975 C 0.27027 0.51975 0.25326000000000004 0.5273100000000001 0.23814000000000002 0.5273100000000001 M 1.27953369140625 0.6822900000000001 L 1.27953369140625 0.6785100000000001 C 1.27953369140625 0.6785100000000001 1.2833136914062502 0.64827 1.2833136914062502 0.64449 L 1.2833136914062502 0.63882 C 1.27953369140625 0.6331500000000001 1.2852036914062501 0.6255900000000001 1.2814236914062502 0.61614 C 1.2833136914062502 0.6104700000000001 1.2776436914062501 0.59346 1.27197369140625 0.58779 L 1.2606336914062501 0.5821200000000001 L 1.2492936914062502 0.5821200000000001 C 1.23984369140625 0.58023 1.2341736914062502 0.57645 1.2266136914062502 0.57645 C 1.1226636914062502 0.57645 1.0300536914062501 0.7087500000000001 0.9790236914062501 0.78813 C 0.9639036914062501 0.81459 0.9525636914062501 0.82593 0.9412236914062501 0.8486100000000001 C 0.96201369140625 0.7654500000000001 1.0130436914062502 0.6048 1.0130436914062502 0.5424300000000001 C 1.0130436914062502 0.5273100000000001 0.9941436914062501 0.5103000000000001 0.9601236914062501 0.50463 C 0.9525636914062501 0.5027400000000001 0.9431136914062501 0.50085 0.9336636914062502 0.50085 C 0.9279936914062501 0.50085 0.92232369140625 0.5027400000000001 0.9185436914062501 0.50463 L 0.8958636914062501 0.57645 C 0.85050369140625 0.7182000000000001 0.77490369140625 0.9450000000000001 0.77490369140625 1.0924200000000002 C 0.77490369140625 1.16046 0.7938036914062501 1.16235 0.8467236914062501 1.20015 C 0.8523936914062501 1.20015 0.85428369140625 1.2058200000000001 0.85806369140625 1.2058200000000001 L 0.8637336914062501 1.2039300000000002 L 0.8694036914062501 1.2058200000000001 C 0.88263369140625 1.2039300000000002 0.89397369140625 1.1907 0.8996436914062501 1.1812500000000001 C 0.92232369140625 1.14345 0.92988369140625 1.0999800000000002 0.9450036914062501 1.0546200000000001 C 0.9960336914062501 0.9109800000000001 1.06785369140625 0.74655 1.2020436914062502 0.6577200000000001 C 1.2133836914062501 0.64827 1.2379536914062501 0.63693 1.2511836914062502 0.63693 C 1.25496369140625 0.63693 1.27197369140625 0.6728400000000001 1.27953369140625 0.6822900000000001 M 1.3816195312500001 0.5783400000000001 L 1.4118595312500002 0.5670000000000001 C 1.4288695312500002 0.55377 1.47044953125 0.5348700000000001 1.47044953125 0.51408 C 1.47044953125 0.51408 1.47044953125 0.51219 1.4685595312500002 0.5103000000000001 L 1.46288953125 0.48951 C 1.4572195312500003 0.48006000000000004 1.4383195312500001 0.46872 1.42319953125 0.46872 C 1.4137495312500001 0.46872 1.4042995312500002 0.4706100000000001 1.39295953125 0.47439 C 1.3664995312500001 0.49329 1.3494895312500002 0.51597 1.3475995312500002 0.5462100000000001 C 1.3475995312500002 0.5499900000000001 1.36082953125 0.56889 1.3664995312500001 0.56889 L 1.3702795312500002 0.56889 L 1.3816195312500001 0.57645 M 1.6613395312500001 0.73143 L 1.6518895312500002 0.73899 C 1.5252595312500001 0.89775 1.3948495312500002 1.0943100000000001 1.33625953125 1.09053 C 1.3305895312500002 1.09053 1.3268095312500001 1.08864 1.3268095312500001 1.08297 C 1.3097995312500001 0.9960300000000001 1.3797295312500002 0.82026 1.4118595312500002 0.67473 C 1.4137495312500001 0.66339 1.4099695312500002 0.64827 1.4061895312500001 0.63693 C 1.40051953125 0.62748 1.39295953125 0.6218100000000001 1.3797295312500002 0.61992 C 1.3664995312500001 0.61992 1.3324795312500002 0.61992 1.31924953125 0.6218100000000001 L 1.31168953125 0.62748 C 1.29656953125 0.6652800000000001 1.2115195312500002 0.8731800000000001 1.2058495312500002 0.9998100000000001 C 1.20017953125 1.0999800000000002 1.2757795312500002 1.14534 1.3324795312500002 1.16046 C 1.3664995312500001 1.16046 1.38350953125 1.14534 1.4118595312500002 1.1340000000000001 C 1.5006895312500002 1.0584 1.5630595312500002 0.9733500000000002 1.64054953125 0.8542800000000002 C 1.6367695312500001 0.8542800000000002 1.64054953125 0.8523900000000001 1.64054953125 0.8505 C 1.6443295312500001 0.8334900000000001 1.6518895312500002 0.81081 1.6594495312500002 0.79569 L 1.65566953125 0.7938000000000001 C 1.6594495312500002 0.78813 1.6613395312500001 0.78246 1.6613395312500001 0.7767900000000001 C 1.6613395312500001 0.7616700000000001 1.6594495312500002 0.74844 1.6613395312500001 0.73143 M 2.0298664599609375 0.7125300000000001 L 2.0298664599609375 0.70308 C 2.0052964599609377 0.7295400000000001 1.9845064599609374 0.7654500000000001 1.9656064599609375 0.79569 C 1.9259164599609375 0.8523900000000001 1.8181864599609376 1.00926 1.6821064599609374 1.1491200000000001 L 1.6745464599609374 1.1491200000000001 C 1.6613164599609376 1.12644 1.6632064599609375 1.09809 1.6632064599609375 1.0697400000000001 C 1.6632064599609375 0.9506700000000001 1.7066764599609376 0.82782 1.7539264599609377 0.7049700000000001 C 1.8465364599609375 0.49707 1.8881164599609375 0.28728 1.8654364599609377 0.23814000000000002 C 1.8465364599609375 0.2022299999999999 1.7992864599609375 0.19845000000000002 1.7766064599609375 0.19277999999999995 L 1.7728264599609376 0.1946699999999999 C 1.7501464599609375 0.24002999999999997 1.7331364599609376 0.30996 1.7180164599609375 0.35721 C 1.6480864599609375 0.5707800000000001 1.5384664599609374 0.82215 1.5384664599609374 1.0527300000000002 C 1.5384664599609374 1.1151 1.5687064599609375 1.19259 1.6537564599609376 1.20771 C 1.6613164599609376 1.2096 1.6669864599609374 1.2096 1.6745464599609374 1.2096 C 1.7595964599609375 1.2096 1.8162964599609375 1.11321 1.8654364599609377 1.0527300000000002 C 1.8805564599609377 1.03194 1.9051264599609374 1.0017 1.9164664599609376 0.97902 C 1.9240264599609376 0.9752400000000001 1.9259164599609375 0.9676800000000001 1.9315864599609376 0.96201 L 1.9353664599609375 0.9525600000000001 L 1.9429264599609375 0.9506700000000001 L 1.9391464599609376 0.9450000000000001 L 1.9448164599609377 0.9431100000000001 C 1.9485964599609376 0.9336600000000002 1.9693864599609374 0.89964 1.9731664599609375 0.8958600000000001 C 1.9769464599609377 0.8864100000000001 1.9826164599609375 0.88263 1.9882864599609376 0.8731800000000001 L 1.9826164599609375 0.86751 C 1.9845064599609374 0.86184 1.9920664599609377 0.8561700000000001 1.9939564599609376 0.8486100000000001 C 1.9826164599609375 0.8637300000000001 1.9731664599609375 0.8788500000000001 1.9618264599609376 0.8939700000000002 C 1.9693864599609374 0.87507 2.0147464599609375 0.8051400000000001 2.0147464599609375 0.7938000000000001 L 2.0147464599609375 0.78813 C 2.0071864599609377 0.79569 2.0052964599609377 0.8051400000000001 2.0015164599609374 0.8089200000000001 C 2.003406459960938 0.7994700000000001 2.0071864599609377 0.7938000000000001 2.0147464599609375 0.7843500000000001 L 2.0166364599609374 0.7749 C 2.0166364599609374 0.7749 2.0166364599609374 0.7730100000000001 2.0166364599609374 0.7730100000000001 L 2.0128564599609375 0.7749 L 2.0109664599609376 0.7654500000000001 C 2.0128564599609375 0.76356 2.0241964599609377 0.74277 2.0241964599609377 0.73899 C 2.0241964599609377 0.73521 2.0260864599609376 0.7295400000000001 2.0279764599609376 0.7257600000000001 C 2.0298664599609375 0.72009 2.0298664599609375 0.7182000000000001 2.0298664599609375 0.7125300000000001 M 2.0902984716796875 1.2474 C 2.078958471679688 1.2606300000000001 2.0713984716796876 1.2833100000000002 2.0506084716796877 1.2833100000000002 C 2.048718471679688 1.28142 2.0449384716796875 1.27953 2.0392684716796876 1.27953 C 2.0241484716796876 1.2474 2.0184784716796877 1.2133800000000001 2.016588471679688 1.1718000000000002 C 2.0128084716796875 1.0602900000000002 2.0335984716796878 0.9355500000000001 2.0600584716796875 0.82593 C 2.0978584716796878 0.7578900000000001 2.1772384716796878 0.6142500000000001 2.2301584716796876 0.48951 C 2.271738471679688 0.37989000000000006 2.301978471679688 0.27027 2.300088471679688 0.20601000000000003 C 2.300088471679688 0.19277999999999995 2.2981984716796875 0.1795500000000001 2.2944184716796876 0.16443000000000008 C 2.2906384716796877 0.1625399999999999 2.283078471679688 0.15876 2.284968471679688 0.1512 C 2.2792984716796876 0.1474200000000001 2.254728471679688 0.13419000000000003 2.2452784716796876 0.13419000000000003 C 2.237718471679688 0.13607999999999998 2.1942484716796877 0.12474000000000007 2.1866884716796875 0.12663000000000002 C 2.0600584716796875 0.26271 1.8805084716796876 0.8788500000000001 1.9031884716796876 1.1472300000000002 C 1.9107484716796876 1.21527 1.9277584716796876 1.2927600000000001 1.9920184716796876 1.32867 L 1.9939084716796878 1.32867 C 1.9957984716796877 1.32867 1.9976884716796877 1.32867 1.9976884716796877 1.32867 C 2.0033584716796877 1.32867 2.0052484716796877 1.32867 2.0109184716796875 1.32867 C 2.0109184716796875 1.32867 2.0128084716796875 1.32867 2.014698471679688 1.32867 L 2.0222584716796876 1.3305600000000002 C 2.0184784716796877 1.32678 2.014698471679688 1.3248900000000001 2.0109184716796875 1.32678 L 2.014698471679688 1.3248900000000001 C 2.0392684716796876 1.3248900000000001 2.048718471679688 1.3248900000000001 2.0695084716796877 1.30977 L 2.0751784716796875 1.3059900000000002 L 2.0751784716796875 1.3041 L 2.0695084716796877 1.3059900000000002 L 2.080848471679688 1.29465 L 2.080848471679688 1.2852000000000001 C 2.0865184716796876 1.28142 2.0921884716796875 1.2757500000000002 2.0978584716796878 1.27008 L 2.0978584716796878 1.2681900000000002 L 2.0902984716796875 1.25685 M 2.2282684716796877 0.24192000000000002 C 2.192358471679688 0.37989000000000006 2.1545584716796875 0.48762000000000005 2.095968471679688 0.61614 C 2.1035284716796876 0.5386500000000001 2.192358471679688 0.32886000000000004 2.2282684716796877 0.24192000000000002 M 2.34540509765625 0.5783400000000001 L 2.37564509765625 0.5670000000000001 C 2.39265509765625 0.55377 2.4342350976562503 0.5348700000000001 2.4342350976562503 0.51408 C 2.4342350976562503 0.51408 2.4342350976562503 0.51219 2.43234509765625 0.5103000000000001 L 2.42667509765625 0.48951 C 2.4210050976562503 0.48006000000000004 2.4021050976562504 0.46872 2.3869850976562503 0.46872 C 2.37753509765625 0.46872 2.36808509765625 0.4706100000000001 2.3567450976562503 0.47439 C 2.33028509765625 0.49329 2.31327509765625 0.51597 2.31138509765625 0.5462100000000001 C 2.31138509765625 0.5499900000000001 2.3246150976562503 0.56889 2.33028509765625 0.56889 L 2.33406509765625 0.56889 L 2.34540509765625 0.57645 M 2.6251250976562504 0.73143 L 2.61567509765625 0.73899 C 2.48904509765625 0.89775 2.3586350976562502 1.0943100000000001 2.30004509765625 1.09053 C 2.2943750976562503 1.09053 2.2905950976562504 1.08864 2.2905950976562504 1.08297 C 2.27358509765625 0.9960300000000001 2.34351509765625 0.82026 2.37564509765625 0.67473 C 2.37753509765625 0.66339 2.3737550976562503 0.64827 2.3699750976562504 0.63693 C 2.36430509765625 0.62748 2.3567450976562503 0.6218100000000001 2.34351509765625 0.61992 C 2.33028509765625 0.61992 2.29626509765625 0.61992 2.28303509765625 0.6218100000000001 L 2.2754750976562503 0.62748 C 2.2603550976562503 0.6652800000000001 2.17530509765625 0.8731800000000001 2.16963509765625 0.9998100000000001 C 2.1639650976562503 1.0999800000000002 2.23956509765625 1.14534 2.29626509765625 1.16046 C 2.33028509765625 1.16046 2.34729509765625 1.14534 2.37564509765625 1.1340000000000001 C 2.4644750976562504 1.0584 2.52684509765625 0.9733500000000002 2.60433509765625 0.8542800000000002 C 2.60055509765625 0.8542800000000002 2.60433509765625 0.8523900000000001 2.60433509765625 0.8505 C 2.60811509765625 0.8334900000000001 2.61567509765625 0.81081 2.6232350976562504 0.79569 L 2.61945509765625 0.7938000000000001 C 2.6232350976562504 0.78813 2.6251250976562504 0.78246 2.6251250976562504 0.7767900000000001 C 2.6251250976562504 0.7616700000000001 2.6232350976562504 0.74844 2.6251250976562504 0.73143 M 2.8859220263671874 0.8051400000000001 L 2.887812026367188 0.8051400000000001 C 2.8689120263671875 0.8731800000000001 2.8537920263671874 0.94689 2.8537920263671874 1.01871 C 2.8537920263671874 1.08108 2.8764720263671877 1.1491200000000001 2.9407320263671877 1.1736900000000001 C 2.9445120263671876 1.17747 2.9785320263671875 1.18503 2.9879820263671877 1.18503 C 3.0881520263671876 1.18503 3.2299020263671876 0.9582300000000001 3.2922720263671876 0.8448300000000001 L 3.2960520263671875 0.8089200000000001 C 3.2828220263671875 0.8051400000000001 3.299832026367188 0.78624 3.2847120263671874 0.78813 C 3.2828220263671875 0.78624 3.299832026367188 0.74655 3.2960520263671875 0.74088 C 3.2544720263671874 0.7994700000000001 3.0427920263671875 1.1169900000000001 2.9860920263671877 1.1169900000000001 C 2.9804220263671874 1.1169900000000001 2.9747520263671876 1.0754100000000002 2.9747520263671876 1.06785 C 2.9747520263671876 0.9412200000000001 3.0087720263671875 0.82782 3.0446820263671874 0.70686 C 3.0579120263671875 0.65961 3.0824820263671877 0.6104700000000001 3.0824820263671877 0.56133 C 3.0824820263671877 0.52164 3.0125520263671874 0.5103000000000001 2.9804220263671874 0.5103000000000001 C 2.9747520263671876 0.5103000000000001 2.9690820263671878 0.51408 2.9653020263671874 0.51975 L 2.9690820263671878 0.5273100000000001 C 2.9426220263671876 0.56133 2.9199420263671874 0.59535 2.8991520263671875 0.6237 C 2.8745820263671877 0.5896800000000001 2.8122120263671877 0.5707800000000001 2.7725220263671875 0.5707800000000001 C 2.6421120263671876 0.5707800000000001 2.4928020263671877 0.8656200000000001 2.5022520263671875 0.98658 C 2.5060320263671874 1.0527300000000002 2.5495020263671875 1.1321100000000002 2.6251020263671876 1.1321100000000002 C 2.6950320263671874 1.1321100000000002 2.8386720263671874 0.8788500000000001 2.8859220263671874 0.8051400000000001 M 2.6232120263671876 1.0376100000000001 L 2.6194320263671877 1.02438 C 2.6194320263671877 0.9204300000000001 2.7044820263671876 0.75033 2.7819720263671877 0.6785100000000001 C 2.7876420263671875 0.67095 2.8046520263671875 0.65961 2.8159920263671876 0.65961 C 2.8292220263671877 0.65961 2.8500120263671875 0.67473 2.8537920263671874 0.68418 C 2.7819720263671877 0.7938000000000001 2.6969220263671874 0.9279900000000001 2.6232120263671876 1.0376100000000001 M 3.86117033203125 0.7692300000000001 C 3.8536103320312503 0.7749 3.81770033203125 0.8297100000000001 3.80825033203125 0.8486100000000001 C 3.74021033203125 0.9639000000000001 3.6476003320312502 1.10376 3.60224033203125 1.1151 L 3.60035033203125 1.1151 C 3.56822033203125 1.01115 3.6608303320312503 0.7994700000000001 3.63815033203125 0.72009 C 3.63626033203125 0.71442 3.63626033203125 0.7049700000000001 3.63437033203125 0.7011900000000001 C 3.62492033203125 0.6785100000000001 3.57011033203125 0.6577200000000001 3.5360903320312502 0.65205 C 3.4869503320312503 0.65583 3.38678033203125 0.78813 3.36788033203125 0.8089200000000001 L 3.37166033203125 0.80325 C 3.38489033203125 0.7597800000000001 3.41702033203125 0.63504 3.3603203320312502 0.61614 C 3.34142033203125 0.6104700000000001 3.29984033203125 0.6029100000000001 3.28850033203125 0.60102 L 3.28661033203125 0.61236 C 3.28661033203125 0.6142500000000001 3.28661033203125 0.6218100000000001 3.28661033203125 0.6237 C 3.29228033203125 0.6936300000000001 3.1694303320312502 0.9846900000000001 3.17510033203125 1.11321 C 3.17510033203125 1.12644 3.17888033203125 1.1321100000000002 3.18266033203125 1.14345 L 3.18644033203125 1.14534 C 3.19400033203125 1.1491200000000001 3.19400033203125 1.1566800000000002 3.2015603320312502 1.16235 C 3.20912033203125 1.16235 3.23558033203125 1.1736900000000001 3.24314033203125 1.1812500000000001 L 3.24692033203125 1.17747 C 3.25259033203125 1.1793600000000002 3.2488103320312502 1.1812500000000001 3.25448033203125 1.18314 C 3.26015033203125 1.18314 3.26204033203125 1.18314 3.2639303320312503 1.18314 C 3.2639303320312503 1.18314 3.26582033203125 1.18314 3.26960033203125 1.18314 C 3.27149033203125 1.1812500000000001 3.27527033203125 1.1793600000000002 3.2809403320312502 1.1793600000000002 C 3.28472033203125 1.1718000000000002 3.28850033203125 1.1566800000000002 3.2960603320312503 1.13589 C 3.3433103320312503 0.9922500000000001 3.43214033203125 0.8656200000000001 3.52286033203125 0.74844 C 3.52286033203125 0.74844 3.52664033203125 0.73899 3.52664033203125 0.74844 C 3.53042033203125 0.7975800000000001 3.4699403320312503 0.9563400000000001 3.47561033203125 1.0527300000000002 C 3.47750033203125 1.12644 3.5323103320312503 1.1793600000000002 3.60413033203125 1.1793600000000002 C 3.73454033203125 1.15101 3.81581033203125 0.9733500000000002 3.87062033203125 0.86751 C 3.87440033203125 0.8486100000000001 3.86495033203125 0.8297100000000001 3.87251033203125 0.8089200000000001 C 3.87251033203125 0.7994700000000001 3.87440033203125 0.7938000000000001 3.86495033203125 0.78813 C 3.8668403320312503 0.78057 3.8668403320312503 0.77112 3.86117033203125 0.7692300000000001 M 3.7137992431640625 0.42336000000000007 C 3.7799492431640624 0.42336000000000007 3.8725592431640625 0.41391 3.9708392431640624 0.40257 C 3.8820092431640623 0.6501600000000001 3.7761692431640626 0.8883000000000001 3.789399243164062 1.0602900000000002 C 3.7931792431640625 1.11132 3.821529243164062 1.2039300000000002 3.900909243164062 1.22283 C 3.9311492431640622 1.22283 3.9538292431640625 1.2190500000000002 3.9765092431640623 1.1944800000000002 C 4.048329243164062 1.1321100000000002 4.190079243164062 0.95445 4.2089792431640625 0.88263 L 4.2089792431640625 0.86751 C 4.210869243164062 0.86184 4.214649243164063 0.8486100000000001 4.218429243164063 0.8372700000000001 C 4.218429243164063 0.8334900000000001 4.237329243164062 0.79569 4.235439243164063 0.7938000000000001 C 4.237329243164062 0.78813 4.235439243164063 0.7843500000000001 4.235439243164063 0.78057 L 4.233549243164062 0.7767900000000001 C 4.233549243164062 0.7730100000000001 4.231659243164063 0.7522200000000001 4.229769243164062 0.74844 L 4.224099243164062 0.74655 L 4.220319243164062 0.74844 C 4.1447192431640625 0.8883000000000001 3.9538292431640625 1.16235 3.9084692431640624 1.16046 C 3.8744492431640625 1.0546200000000001 3.9368192431640625 0.8864100000000001 3.965169243164062 0.78246 C 4.042659243164063 0.61614 4.093689243164063 0.48762000000000005 4.1106992431640625 0.38745000000000007 C 4.1447192431640625 0.38556 4.178739243164062 0.38178 4.2089792431640625 0.38178 C 4.2222092431640625 0.38178 4.235439243164063 0.38178 4.246779243164062 0.38367000000000007 C 4.316709243164063 0.38367000000000007 4.365849243164062 0.39690000000000003 4.362069243164062 0.40635 L 4.365849243164062 0.40635 C 4.390419243164063 0.33642000000000005 4.299699243164063 0.31562999999999997 4.193859243164062 0.31562999999999997 C 4.169289243164062 0.31562999999999997 4.142829243164062 0.31752 4.118259243164062 0.31940999999999997 C 4.120149243164063 0.29673000000000005 4.118259243164062 0.27405 4.116369243164062 0.25515 C 4.112589243164062 0.25137 4.108809243164062 0.24758999999999998 4.108809243164062 0.24002999999999997 C 4.108809243164062 0.2192400000000001 4.0502192431640625 0.20789999999999997 4.0332092431640625 0.20789999999999997 C 4.029429243164063 0.20978999999999992 4.029429243164063 0.2192400000000001 4.027539243164062 0.2268000000000001 C 4.018089243164062 0.26082000000000005 4.006749243164062 0.29673000000000005 3.995409243164062 0.33075 C 3.980289243164062 0.33264000000000005 3.965169243164062 0.33264000000000005 3.9576092431640624 0.33453 C 3.8763392431640624 0.34587 3.7686092431640623 0.35721 3.6835592431640625 0.35721 C 3.632529243164062 0.35721 3.5909492431640624 0.35343 3.5644892431640622 0.34209 C 3.5531492431640626 0.33831 3.5531492431640626 0.34209 3.5436992431640624 0.32886000000000004 C 3.5436992431640624 0.32886000000000004 3.5455892431640623 0.31562999999999997 3.5399192431640625 0.32319 L 3.5399192431640625 0.32886000000000004 C 3.5077892431640625 0.42147 3.660879243164062 0.42336000000000007 3.7081292431640622 0.42336000000000007 C 3.710019243164062 0.42336000000000007 3.7119092431640626 0.42336000000000007 3.7137992431640625 0.42336000000000007 M 4.6418556884765625 0.5273100000000001 C 4.662645688476562 0.46494 4.743915688476562 0.26082000000000005 4.743915688476562 0.21734999999999993 C 4.743915688476562 0.20412000000000008 4.7231256884765624 0.19277999999999995 4.7193456884765626 0.18333 C 4.708005688476563 0.1625399999999999 4.681545688476563 0.15876 4.660755688476563 0.15876 C 4.649415688476562 0.15876 4.643745688476563 0.16443000000000008 4.632405688476562 0.17009999999999992 L 4.626735688476563 0.1795500000000001 C 4.628625688476562 0.18333 4.460415688476562 0.64449 4.445295688476563 0.6974100000000001 C 4.396155688476562 0.8505 4.396155688476562 0.92232 4.407495688476563 1.00359 C 4.413165688476562 1.03194 4.450965688476563 1.10565 4.490655688476562 1.10565 C 4.501995688476563 1.10565 4.503885688476562 1.1094300000000001 4.515225688476563 1.11321 L 4.515225688476563 1.1094300000000001 L 4.519005688476563 1.10565 C 4.515225688476563 1.10565 4.507665688476562 1.0999800000000002 4.507665688476562 1.0924200000000002 L 4.515225688476563 1.0943100000000001 C 4.515225688476563 1.0754100000000002 4.507665688476562 1.0546200000000001 4.507665688476562 1.03383 C 4.507665688476562 0.9355500000000001 4.543575688476563 0.82593 4.571925688476562 0.73143 C 4.583265688476563 0.6974100000000001 4.600275688476563 0.65961 4.6078356884765626 0.6237 C 4.609725688476563 0.6180300000000001 4.6116156884765624 0.6142500000000001 4.617285688476563 0.6104700000000001 C 4.621065688476563 0.65961 4.604055688476563 0.62748 4.638075688476563 0.6785100000000001 L 4.643745688476563 0.6822900000000001 C 4.645635688476562 0.6822900000000001 4.647525688476563 0.6822900000000001 4.649415688476562 0.6822900000000001 C 4.655085688476563 0.6822900000000001 4.662645688476562 0.68418 4.668315688476563 0.68418 C 4.677765688476563 0.68418 4.683435688476562 0.67473 4.690995688476563 0.67095 C 4.7193456884765626 0.6615000000000001 4.774155688476562 0.65961 4.802505688476563 0.65961 C 4.8818856884765625 0.65961 5.012295688476563 0.6936300000000001 5.012295688476563 0.7730100000000001 C 5.012295688476563 0.9109800000000001 4.791165688476562 1.0924200000000002 4.645635688476562 1.0999800000000002 C 4.6418556884765625 1.0999800000000002 4.630515688476563 1.0999800000000002 4.622955688476563 1.0999800000000002 C 4.619175688476562 1.0999800000000002 4.617285688476563 1.0999800000000002 4.615395688476562 1.0999800000000002 C 4.617285688476563 1.0924200000000002 4.626735688476563 1.08108 4.628625688476562 1.0754100000000002 L 4.628625688476562 1.0697400000000001 C 4.622955688476563 1.0754100000000002 4.615395688476562 1.08864 4.6116156884765624 1.0943100000000001 L 4.609725688476563 1.0943100000000001 L 4.609725688476563 1.08108 C 4.664535688476563 0.9998100000000001 4.815735688476563 0.9090900000000001 4.914015688476563 0.9090900000000001 C 4.915905688476562 0.9090900000000001 4.919685688476562 0.9090900000000001 4.925355688476563 0.9053100000000001 C 4.925355688476563 0.9053100000000001 4.932915688476562 0.9053100000000001 4.932915688476562 0.9053100000000001 L 4.932915688476562 0.90153 L 4.925355688476563 0.90153 L 4.927245688476563 0.89775 L 4.938585688476563 0.89775 L 4.932915688476562 0.8958600000000001 L 4.932915688476562 0.8939700000000002 C 4.938585688476563 0.8939700000000002 4.940475688476562 0.8939700000000002 4.946145688476562 0.8958600000000001 L 4.938585688476563 0.8845200000000001 L 4.948035688476563 0.8845200000000001 C 4.938585688476563 0.8731800000000001 4.934805688476563 0.87507 4.925355688476563 0.8656200000000001 L 4.917795688476563 0.8561700000000001 C 4.904565688476563 0.8505 4.889445688476562 0.8486100000000001 4.872435688476562 0.8486100000000001 C 4.762815688476563 0.8486100000000001 4.626735688476563 0.9242100000000001 4.5473556884765625 1.0017 C 4.541685688476562 1.00359 4.537905688476562 1.00737 4.532235688476563 1.01115 L 4.5303456884765625 1.0206000000000002 C 4.5303456884765625 1.0224900000000001 4.528455688476563 1.02627 4.524675688476562 1.02627 C 4.524675688476562 1.03383 4.524675688476562 1.0432800000000002 4.524675688476562 1.04895 C 4.524675688476562 1.0924200000000002 4.609725688476563 1.20204 4.656975688476563 1.21716 L 4.664535688476563 1.21527 L 4.664535688476563 1.2133800000000001 C 4.673985688476563 1.2133800000000001 4.681545688476563 1.21716 4.690995688476563 1.21716 C 4.696665688476562 1.21716 4.7061156884765625 1.2190500000000002 4.709895688476562 1.22283 L 4.711785688476563 1.2190500000000002 C 4.7193456884765626 1.21716 4.728795688476563 1.2133800000000001 4.734465688476563 1.2133800000000001 C 4.745805688476563 1.20771 4.757145688476562 1.2058200000000001 4.768485688476563 1.20015 L 4.7703756884765625 1.20015 C 4.921575688476563 1.1736900000000001 5.142705688476562 0.9752400000000001 5.133255688476563 0.7938000000000001 C 5.129475688476562 0.6974100000000001 5.038755688476563 0.6180300000000001 4.9291356884765625 0.58401 C 4.921575688476563 0.5821200000000001 4.876215688476563 0.57645 4.868655688476562 0.5707800000000001 C 4.879995688476563 0.56889 4.955595688476563 0.5310900000000001 4.966935688476562 0.52353 C 4.972605688476563 0.52353 4.978275688476563 0.52353 4.982055688476563 0.51975 L 4.980165688476562 0.51408 C 4.9933956884765625 0.50841 5.017965688476563 0.51219 5.017965688476563 0.49896000000000007 L 5.017965688476563 0.49329 C 5.106795688476563 0.45738 5.242875688476563 0.33075 5.242875688476563 0.23625000000000007 C 5.242875688476563 0.06614999999999993 5.050095688476563 0 4.9121256884765625 0 C 4.732575688476563 0 4.526565688476563 0.07749000000000006 4.426395688476562 0.1795500000000001 C 4.4188356884765625 0.19089 4.407495688476563 0.19845000000000002 4.407495688476563 0.21545999999999998 C 4.407495688476563 0.23625000000000007 4.4188356884765625 0.27027 4.439625688476562 0.27783 L 4.447185688476563 0.27783 C 4.583265688476563 0.15687000000000006 4.768485688476563 0.10017000000000009 4.949925688476562 0.10017000000000009 C 5.017965688476563 0.10017000000000009 5.155935688476562 0.11339999999999995 5.137035688476563 0.20412000000000008 C 5.106795688476563 0.33075 4.811955688476562 0.47628000000000004 4.702335688476563 0.51975 C 4.685325688476563 0.51975 4.668315688476563 0.5273100000000001 4.653195688476563 0.5273100000000001 M 5.694589379882812 0.6822900000000001 L 5.694589379882812 0.6785100000000001 C 5.694589379882812 0.6785100000000001 5.698369379882813 0.64827 5.698369379882813 0.64449 L 5.698369379882813 0.63882 C 5.694589379882812 0.6331500000000001 5.700259379882812 0.6255900000000001 5.696479379882812 0.61614 C 5.698369379882813 0.6104700000000001 5.6926993798828125 0.59346 5.687029379882812 0.58779 L 5.6756893798828125 0.5821200000000001 L 5.664349379882813 0.5821200000000001 C 5.654899379882813 0.58023 5.649229379882812 0.57645 5.641669379882813 0.57645 C 5.537719379882812 0.57645 5.445109379882813 0.7087500000000001 5.394079379882812 0.78813 C 5.378959379882812 0.81459 5.367619379882813 0.82593 5.356279379882812 0.8486100000000001 C 5.377069379882812 0.7654500000000001 5.428099379882813 0.6048 5.428099379882813 0.5424300000000001 C 5.428099379882813 0.5273100000000001 5.409199379882812 0.5103000000000001 5.3751793798828125 0.50463 C 5.367619379882813 0.5027400000000001 5.3581693798828125 0.50085 5.348719379882812 0.50085 C 5.343049379882812 0.50085 5.337379379882813 0.5027400000000001 5.333599379882813 0.50463 L 5.3109193798828125 0.57645 C 5.265559379882812 0.7182000000000001 5.189959379882812 0.9450000000000001 5.189959379882812 1.0924200000000002 C 5.189959379882812 1.16046 5.208859379882813 1.16235 5.261779379882812 1.20015 C 5.267449379882812 1.20015 5.269339379882813 1.2058200000000001 5.273119379882813 1.2058200000000001 L 5.278789379882812 1.2039300000000002 L 5.284459379882812 1.2058200000000001 C 5.297689379882812 1.2039300000000002 5.309029379882812 1.1907 5.314699379882812 1.1812500000000001 C 5.337379379882813 1.14345 5.344939379882812 1.0999800000000002 5.360059379882812 1.0546200000000001 C 5.411089379882813 0.9109800000000001 5.482909379882813 0.74655 5.617099379882813 0.6577200000000001 C 5.6284393798828125 0.64827 5.653009379882812 0.63693 5.666239379882812 0.63693 C 5.670019379882812 0.63693 5.687029379882812 0.6728400000000001 5.694589379882812 0.6822900000000001 M 6.008355219726562 0.8051400000000001 L 6.010245219726563 0.8051400000000001 C 5.991345219726562 0.8731800000000001 5.976225219726563 0.94689 5.976225219726563 1.01871 C 5.976225219726563 1.08108 5.998905219726562 1.1491200000000001 6.063165219726562 1.1736900000000001 C 6.066945219726563 1.17747 6.100965219726563 1.18503 6.110415219726562 1.18503 C 6.210585219726562 1.18503 6.352335219726562 0.9582300000000001 6.414705219726562 0.8448300000000001 L 6.418485219726563 0.8089200000000001 C 6.405255219726563 0.8051400000000001 6.422265219726563 0.78624 6.407145219726562 0.78813 C 6.405255219726563 0.78624 6.422265219726563 0.74655 6.418485219726563 0.74088 C 6.376905219726562 0.7994700000000001 6.165225219726563 1.1169900000000001 6.1085252197265625 1.1169900000000001 C 6.102855219726562 1.1169900000000001 6.097185219726562 1.0754100000000002 6.097185219726562 1.06785 C 6.097185219726562 0.9412200000000001 6.131205219726563 0.82782 6.167115219726562 0.70686 C 6.180345219726562 0.65961 6.204915219726562 0.6104700000000001 6.204915219726562 0.56133 C 6.204915219726562 0.52164 6.134985219726563 0.5103000000000001 6.102855219726562 0.5103000000000001 C 6.097185219726562 0.5103000000000001 6.0915152197265625 0.51408 6.087735219726563 0.51975 L 6.0915152197265625 0.5273100000000001 C 6.065055219726562 0.56133 6.042375219726562 0.59535 6.021585219726562 0.6237 C 5.9970152197265625 0.5896800000000001 5.934645219726562 0.5707800000000001 5.894955219726563 0.5707800000000001 C 5.764545219726562 0.5707800000000001 5.6152352197265625 0.8656200000000001 5.624685219726563 0.98658 C 5.6284652197265626 1.0527300000000002 5.671935219726563 1.1321100000000002 5.747535219726562 1.1321100000000002 C 5.817465219726563 1.1321100000000002 5.961105219726562 0.8788500000000001 6.008355219726562 0.8051400000000001 M 5.745645219726562 1.0376100000000001 L 5.741865219726562 1.02438 C 5.741865219726562 0.9204300000000001 5.826915219726562 0.75033 5.904405219726562 0.6785100000000001 C 5.910075219726562 0.67095 5.927085219726562 0.65961 5.938425219726562 0.65961 C 5.951655219726562 0.65961 5.972445219726563 0.67473 5.976225219726563 0.68418 C 5.904405219726562 0.7938000000000001 5.819355219726562 0.9279900000000001 5.745645219726562 1.0376100000000001 M 6.488423525390624 0.5783400000000001 L 6.518663525390624 0.5670000000000001 C 6.535673525390624 0.55377 6.577253525390625 0.5348700000000001 6.577253525390625 0.51408 C 6.577253525390625 0.51408 6.577253525390625 0.51219 6.575363525390625 0.5103000000000001 L 6.569693525390625 0.48951 C 6.564023525390625 0.48006000000000004 6.545123525390625 0.46872 6.530003525390625 0.46872 C 6.520553525390625 0.46872 6.511103525390625 0.4706100000000001 6.499763525390625 0.47439 C 6.473303525390625 0.49329 6.456293525390625 0.51597 6.4544035253906245 0.5462100000000001 C 6.4544035253906245 0.5499900000000001 6.4676335253906245 0.56889 6.473303525390625 0.56889 L 6.477083525390625 0.56889 L 6.488423525390624 0.57645 M 6.768143525390625 0.73143 L 6.758693525390624 0.73899 C 6.632063525390625 0.89775 6.5016535253906245 1.0943100000000001 6.443063525390625 1.09053 C 6.4373935253906245 1.09053 6.433613525390625 1.08864 6.433613525390625 1.08297 C 6.416603525390625 0.9960300000000001 6.486533525390625 0.82026 6.518663525390624 0.67473 C 6.520553525390625 0.66339 6.516773525390625 0.64827 6.512993525390625 0.63693 C 6.507323525390625 0.62748 6.499763525390625 0.6218100000000001 6.486533525390625 0.61992 C 6.473303525390625 0.61992 6.439283525390625 0.61992 6.426053525390625 0.6218100000000001 L 6.418493525390625 0.62748 C 6.4033735253906245 0.6652800000000001 6.318323525390625 0.8731800000000001 6.312653525390624 0.9998100000000001 C 6.306983525390625 1.0999800000000002 6.382583525390625 1.14534 6.439283525390625 1.16046 C 6.473303525390625 1.16046 6.490313525390625 1.14534 6.518663525390624 1.1340000000000001 C 6.607493525390625 1.0584 6.669863525390625 0.9733500000000002 6.747353525390625 0.8542800000000002 C 6.743573525390625 0.8542800000000002 6.747353525390625 0.8523900000000001 6.747353525390625 0.8505 C 6.751133525390625 0.8334900000000001 6.758693525390624 0.81081 6.766253525390625 0.79569 L 6.762473525390625 0.7938000000000001 C 6.766253525390625 0.78813 6.768143525390625 0.78246 6.768143525390625 0.7767900000000001 C 6.768143525390625 0.7616700000000001 6.766253525390625 0.74844 6.768143525390625 0.73143 M 7.312440454101562 0.7692300000000001 C 7.304880454101562 0.7749 7.268970454101562 0.8297100000000001 7.259520454101562 0.8486100000000001 C 7.191480454101562 0.9639000000000001 7.098870454101562 1.10376 7.053510454101562 1.1151 L 7.051620454101562 1.1151 C 7.019490454101562 1.01115 7.112100454101562 0.7994700000000001 7.089420454101562 0.72009 C 7.087530454101563 0.71442 7.087530454101563 0.7049700000000001 7.085640454101562 0.7011900000000001 C 7.076190454101562 0.6785100000000001 7.021380454101562 0.6577200000000001 6.987360454101562 0.65205 C 6.938220454101562 0.65583 6.8380504541015625 0.78813 6.819150454101562 0.8089200000000001 L 6.822930454101562 0.80325 C 6.836160454101562 0.7597800000000001 6.868290454101563 0.63504 6.811590454101562 0.61614 C 6.792690454101562 0.6104700000000001 6.751110454101562 0.6029100000000001 6.739770454101563 0.60102 L 6.737880454101562 0.61236 C 6.737880454101562 0.6142500000000001 6.737880454101562 0.6218100000000001 6.737880454101562 0.6237 C 6.7435504541015625 0.6936300000000001 6.620700454101562 0.9846900000000001 6.626370454101562 1.11321 C 6.626370454101562 1.12644 6.630150454101562 1.1321100000000002 6.633930454101562 1.14345 L 6.637710454101562 1.14534 C 6.645270454101563 1.1491200000000001 6.645270454101563 1.1566800000000002 6.652830454101562 1.16235 C 6.660390454101562 1.16235 6.686850454101562 1.1736900000000001 6.694410454101562 1.1812500000000001 L 6.698190454101562 1.17747 C 6.703860454101562 1.1793600000000002 6.700080454101562 1.1812500000000001 6.705750454101562 1.18314 C 6.711420454101562 1.18314 6.7133104541015625 1.18314 6.715200454101562 1.18314 C 6.715200454101562 1.18314 6.717090454101562 1.18314 6.720870454101562 1.18314 C 6.722760454101563 1.1812500000000001 6.7265404541015625 1.1793600000000002 6.732210454101562 1.1793600000000002 C 6.735990454101562 1.1718000000000002 6.739770454101563 1.1566800000000002 6.747330454101562 1.13589 C 6.794580454101562 0.9922500000000001 6.883410454101562 0.8656200000000001 6.974130454101562 0.74844 C 6.974130454101562 0.74844 6.977910454101562 0.73899 6.977910454101562 0.74844 C 6.981690454101562 0.7975800000000001 6.921210454101562 0.9563400000000001 6.926880454101562 1.0527300000000002 C 6.928770454101562 1.12644 6.9835804541015625 1.1793600000000002 7.055400454101562 1.1793600000000002 C 7.185810454101563 1.15101 7.267080454101563 0.9733500000000002 7.321890454101562 0.86751 C 7.325670454101562 0.8486100000000001 7.316220454101562 0.8297100000000001 7.323780454101563 0.8089200000000001 C 7.323780454101563 0.7994700000000001 7.325670454101562 0.7938000000000001 7.316220454101562 0.78813 C 7.3181104541015625 0.78057 7.3181104541015625 0.77112 7.312440454101562 0.7692300000000001 M 7.238779365234374 1.13778 C 7.238779365234374 1.1718000000000002 7.295479365234375 1.21527 7.327609365234374 1.21527 C 7.406989365234375 1.21527 7.533619365234374 1.14345 7.533619365234374 1.05651 C 7.533619365234374 0.94689 7.4107693652343745 0.8372700000000001 7.4107693652343745 0.74655 C 7.4107693652343745 0.6898500000000001 7.501489365234375 0.6180300000000001 7.558189365234375 0.6180300000000001 C 7.584649365234375 0.6293700000000001 7.575199365234375 0.64071 7.5695293652343745 0.67095 C 7.567639365234374 0.6822900000000001 7.561969365234375 0.7087500000000001 7.563859365234374 0.7182000000000001 C 7.575199365234375 0.72387 7.577089365234374 0.7295400000000001 7.592209365234375 0.7295400000000001 C 7.620559365234374 0.7295400000000001 7.6470193652343745 0.64071 7.658359365234374 0.6218100000000001 L 7.658359365234374 0.61614 C 7.658359365234374 0.59346 7.563859365234374 0.51975 7.541179365234375 0.51975 C 7.431559365234374 0.51975 7.291699365234375 0.6463800000000001 7.291699365234375 0.7541100000000001 C 7.291699365234375 0.87507 7.414549365234374 1.00926 7.414549365234374 1.0697400000000001 C 7.414549365234374 1.1094300000000001 7.348399365234375 1.14534 7.3124893652343745 1.14534 L 7.308709365234375 1.13778 L 7.348399365234375 1.0773000000000001 L 7.342729365234375 1.0697400000000001 L 7.331389365234375 1.08108 C 7.335169365234375 1.0773000000000001 7.338949365234375 1.06596 7.342729365234375 1.06407 L 7.338949365234375 1.0584 L 7.331389365234375 1.06785 C 7.327609365234374 1.06596 7.3294993652343745 1.06596 7.327609365234374 1.0602900000000002 L 7.303039365234374 1.08297 L 7.303039365234374 1.08108 L 7.314379365234375 1.06596 L 7.306819365234374 1.06407 C 7.297369365234374 1.06596 7.238779365234374 1.10376 7.238779365234374 1.13778" fill="#004a80" fill-rule="nonzero"></path></g><g><path d=" M 0.105 1.8380655000000001 L 0.1075 1.8380655000000001 C 0.113 1.9010655000000003 0.125 2.0240655000000003 0.1285 2.0550655000000004 C 0.129 2.0600655000000003 0.1315 2.0605655 0.136 2.0605655 C 0.1375 2.0605655 0.14 2.0605655 0.14200000000000002 2.0605655 C 0.149 2.0605655 0.155 2.0570655 0.157 2.0500655 C 0.165 2.0170655 0.1705 1.9815655000000003 0.1765 1.9480655000000002 C 0.182 1.9160655000000002 0.1895 1.8670655000000003 0.195 1.8345655000000003 C 0.198 1.8210655000000002 0.20700000000000002 1.7785655000000002 0.20650000000000002 1.7685655000000002 C 0.20650000000000002 1.7620655000000003 0.20450000000000002 1.7575655000000001 0.198 1.7560655000000003 C 0.1945 1.7520655000000003 0.192 1.7510655000000002 0.1865 1.7510655000000002 C 0.185 1.7510655000000002 0.184 1.7515655000000003 0.1825 1.7515655000000003 C 0.18 1.7550655000000002 0.179 1.7570655000000002 0.178 1.7605655000000002 C 0.177 1.7670655000000002 0.177 1.7735655000000001 0.1765 1.7800655 C 0.17350000000000002 1.8065655000000003 0.1665 1.8455655000000002 0.163 1.8735655000000002 C 0.158 1.9055655000000002 0.156 1.9355655000000003 0.1465 1.9830655000000001 C 0.14150000000000001 1.9255655000000003 0.1325 1.8405655000000003 0.1285 1.7915655000000001 C 0.128 1.7855655000000001 0.1295 1.7835655000000001 0.124 1.7790655000000002 C 0.1205 1.7765655000000002 0.116 1.7740655000000003 0.111 1.7735655000000001 C 0.11 1.7735655000000001 0.109 1.7735655000000001 0.1085 1.7735655000000001 C 0.1015 1.7735655000000001 0.095 1.7740655000000003 0.093 1.7805655000000002 C 0.08750000000000001 1.8070655000000002 0.0605 1.9175655000000003 0.043000000000000003 1.9800655000000003 C 0.0415 1.9515655000000003 0.0425 1.8905655000000001 0.0425 1.8620655000000002 L 0.042 1.7745655000000002 C 0.042 1.7640655000000003 0.035 1.7515655000000003 0.0235 1.7515655000000003 C 0.019 1.7515655000000003 0.0155 1.7545655000000002 0.0145 1.7580655000000003 C 0.0125 1.7605655000000002 0.0125 1.7640655000000003 0.012 1.7670655000000002 C 0.0115 1.7830655000000002 0.012 1.7995655000000002 0.0125 1.8155655000000002 C 0.0145 1.8885655000000001 0.016 1.9615655000000003 0.0185 2.0195655 C 0.0185 2.0235655 0.019 2.0405655 0.019 2.0445655 C 0.0185 2.0505655000000003 0.038 2.0545655000000003 0.043500000000000004 2.0545655000000003 C 0.051000000000000004 2.0545655000000003 0.055 2.0505655000000003 0.0575 2.0435655 C 0.0605 2.0370655 0.0605 2.0165655 0.062 2.0100655 C 0.0745 1.9525655000000002 0.0885 1.8945655000000001 0.105 1.8380655000000001 M 0.57546609375 1.7765655000000002 C 0.56296609375 1.7835655000000001 0.56396609375 1.7835655000000001 0.56246609375 1.7965655000000003 C 0.55796609375 1.8450655000000002 0.55246609375 1.8945655000000001 0.5489660937499999 1.9430655000000001 C 0.54646609375 1.9740655000000003 0.54546609375 2.0060655 0.54546609375 2.0375655000000004 C 0.54546609375 2.0445655 0.54746609375 2.0560655000000003 0.55696609375 2.0560655000000003 C 0.58246609375 2.0555655 0.59946609375 2.0415655000000004 0.62046609375 2.0385655000000003 C 0.62646609375 2.0380655 0.63046609375 2.0360655000000003 0.63046609375 2.0300655 C 0.63046609375 2.0200655000000003 0.61896609375 2.0170655 0.6104660937499999 2.0170655 C 0.59896609375 2.0170655 0.58546609375 2.0245655 0.57346609375 2.0280655000000003 C 0.57296609375 1.9930655000000002 0.57396609375 1.9620655000000002 0.57846609375 1.9280655000000002 C 0.57946609375 1.9210655 0.57796609375 1.9140655000000002 0.58396609375 1.9125655000000001 C 0.59346609375 1.9100655000000002 0.6084660937499999 1.9095655000000002 0.61796609375 1.9085655000000001 C 0.62096609375 1.9080655000000002 0.62496609375 1.9060655000000002 0.62796609375 1.9060655000000002 C 0.63196609375 1.9045655000000001 0.63546609375 1.8990655000000003 0.63546609375 1.8950655000000003 C 0.63546609375 1.8895655000000002 0.63146609375 1.8880655000000002 0.62546609375 1.8880655000000002 L 0.58296609375 1.8865655000000001 C 0.58546609375 1.8655655000000002 0.58646609375 1.8285655000000003 0.59096609375 1.8050655000000002 C 0.59196609375 1.8005655000000003 0.59396609375 1.7970655000000002 0.59396609375 1.7930655000000002 C 0.59396609375 1.7895655000000001 0.58996609375 1.7860655000000003 0.58796609375 1.7840655 L 0.63096609375 1.7815655000000001 C 0.63646609375 1.7815655000000001 0.64046609375 1.7790655000000002 0.63996609375 1.7730655000000002 C 0.63896609375 1.7585655000000002 0.62296609375 1.7555655000000003 0.60796609375 1.7555655000000003 C 0.59896609375 1.7555655000000003 0.59046609375 1.7565655000000002 0.58496609375 1.7570655000000002 C 0.57896609375 1.7575655000000001 0.57646609375 1.7605655000000002 0.57446609375 1.7655655000000001 M 1.39990267578125 1.8960655000000002 C 1.4034026757812499 1.8765655000000003 1.4259026757812499 1.7985655000000003 1.4439026757812499 1.7905655000000003 C 1.4459026757812499 1.7880655 1.44690267578125 1.7850655000000002 1.44690267578125 1.7815655000000001 C 1.44690267578125 1.7730655000000002 1.4379026757812499 1.7645655000000002 1.43090267578125 1.7645655000000002 C 1.4259026757812499 1.7645655000000002 1.42290267578125 1.7680655000000003 1.42040267578125 1.7725655000000002 C 1.38490267578125 1.8240655000000001 1.3654026757812499 1.9000655000000002 1.3654026757812499 1.9640655000000002 C 1.3654026757812499 1.9870655000000002 1.36890267578125 2.0520655000000003 1.40090267578125 2.0520655000000003 C 1.41140267578125 2.0520655000000003 1.41840267578125 2.0445655 1.42490267578125 2.0355655 C 1.44490267578125 2.0080655000000003 1.44940267578125 1.9465655000000002 1.45290267578125 1.9175655000000003 C 1.45340267578125 1.9135655000000003 1.47990267578125 1.9065655000000001 1.4804026757812498 1.8945655000000001 C 1.48090267578125 1.8900655000000002 1.47990267578125 1.8885655000000001 1.47890267578125 1.8840655000000002 C 1.47340267578125 1.8860655000000002 1.4679026757812499 1.8865655000000001 1.46340267578125 1.8880655000000002 C 1.44340267578125 1.8925655000000001 1.42640267578125 1.8945655000000001 1.39990267578125 1.8960655000000002 M 1.39840267578125 1.9070655000000003 C 1.4034026757812499 1.9185655000000001 1.41890267578125 1.9190655000000003 1.4259026757812499 1.9190655000000003 C 1.42490267578125 1.9475655000000003 1.41640267578125 2.0035655 1.40190267578125 2.0265655000000002 C 1.39840267578125 2.0180655 1.3934026757812499 1.9865655000000002 1.3934026757812499 1.9690655000000001 C 1.3934026757812499 1.9525655000000002 1.39490267578125 1.9225655000000001 1.39840267578125 1.9070655000000003 M 1.8623655957031249 2.0355655 C 1.851365595703125 2.0355655 1.846865595703125 1.9790655000000001 1.848865595703125 1.9295655000000003 C 1.8503655957031249 1.8855655000000002 1.852865595703125 1.8110655000000002 1.856865595703125 1.7945655000000003 C 1.857365595703125 1.7910655000000002 1.859365595703125 1.7880655 1.859365595703125 1.7850655000000002 C 1.859365595703125 1.7770655000000002 1.849365595703125 1.7710655000000002 1.8423655957031249 1.7715655000000001 C 1.832865595703125 1.7720655 1.824865595703125 1.7765655000000002 1.825365595703125 1.7875655000000001 C 1.825365595703125 1.7930655000000002 1.824865595703125 1.7975655000000001 1.824865595703125 1.8030655000000002 C 1.821865595703125 1.8400655000000001 1.820865595703125 1.8800655000000002 1.819865595703125 1.9185655000000001 C 1.817865595703125 1.9830655000000001 1.822865595703125 2.0600655000000003 1.864865595703125 2.0600655000000003 C 1.8988655957031249 2.0600655000000003 1.911865595703125 1.9690655000000001 1.9148655957031249 1.9460655000000002 C 1.921865595703125 1.8945655000000001 1.927365595703125 1.8095655000000002 1.9268655957031249 1.7955655000000001 C 1.926365595703125 1.7855655000000001 1.931365595703125 1.7545655000000002 1.9108655957031249 1.7545655000000002 C 1.908365595703125 1.7545655000000002 1.905365595703125 1.7550655000000002 1.902365595703125 1.7560655000000003 C 1.902365595703125 1.8130655000000002 1.8968655957031249 1.8855655000000002 1.887865595703125 1.9420655000000002 C 1.879865595703125 1.9885655000000002 1.8703655957031249 2.0355655 1.8623655957031249 2.0355655 M 2.3023216796875 1.7600655000000003 C 2.2933216796875 1.7600655000000003 2.2883216796875 1.7630655000000002 2.2863216796875 1.7725655000000002 C 2.2853216796874998 1.7820655000000003 2.2853216796874998 1.7900655000000003 2.2853216796874998 1.7995655000000002 C 2.2843216796875 1.8755655000000002 2.2803216796875 1.9570655000000001 2.2748216796875 2.0340655 C 2.2748216796875 2.0355655 2.2743216796875 2.0375655000000004 2.2753216796875 2.0385655000000003 C 2.2743216796875 2.0445655 2.2783216796875 2.0555655 2.2843216796875 2.0565655 C 2.2873216796875 2.0570655 2.2893216796874998 2.0570655 2.2913216796875 2.0570655 C 2.2973216796875 2.0570655 2.2983216796875 2.0545655000000003 2.2993216796875 2.0475655 C 2.3078216796874997 1.9585655000000002 2.3078216796874997 1.8560655000000001 2.3133216796875 1.7720655 C 2.3143216796875 1.7630655000000002 2.3078216796874997 1.7640655000000003 2.3023216796875 1.7600655000000003 M 2.70730095703125 1.7635655000000003 C 2.70730095703125 1.7595655000000003 2.70680095703125 1.7540655000000003 2.7043009570312497 1.7525655000000002 C 2.69780095703125 1.7490655000000002 2.69680095703125 1.7475655000000003 2.69180095703125 1.7475655000000003 C 2.68380095703125 1.7480655000000003 2.68130095703125 1.7555655000000003 2.68080095703125 1.7630655000000002 C 2.67830095703125 1.8185655000000003 2.67330095703125 1.8660655000000002 2.6698009570312498 1.9220655000000002 C 2.66730095703125 1.9685655000000002 2.66230095703125 2.0070655000000004 2.6643009570312497 2.0540655 C 2.6643009570312497 2.0645655 2.67480095703125 2.0675655 2.68330095703125 2.0675655 C 2.6898009570312498 2.0675655 2.6898009570312498 2.0650655 2.6898009570312498 2.0565655 C 2.6898009570312498 2.0540655 2.6898009570312498 2.0520655000000003 2.6898009570312498 2.0490655 C 2.69580095703125 2.0450655 2.70530095703125 2.0435655 2.71930095703125 2.0305655000000002 C 2.76130095703125 1.9905655000000002 2.77680095703125 1.9105655000000001 2.77430095703125 1.8545655 C 2.77430095703125 1.8485655000000003 2.77330095703125 1.8410655000000002 2.77330095703125 1.8350655000000002 C 2.76980095703125 1.8105655000000003 2.75580095703125 1.7795655000000001 2.7323009570312498 1.7685655000000002 C 2.72630095703125 1.7665655000000002 2.71330095703125 1.7635655000000003 2.70730095703125 1.7635655000000003 M 2.69080095703125 2.0190655000000004 C 2.69280095703125 1.9805655000000002 2.69580095703125 1.9300655000000002 2.69830095703125 1.8915655000000002 C 2.70080095703125 1.8600655000000001 2.70330095703125 1.8215655000000002 2.70680095703125 1.7905655000000003 C 2.7083009570312497 1.7900655000000003 2.71080095703125 1.7895655000000001 2.71280095703125 1.7895655000000001 C 2.71430095703125 1.7895655000000001 2.71580095703125 1.7895655000000001 2.71680095703125 1.7900655000000003 C 2.73930095703125 1.7945655000000003 2.74630095703125 1.8275655000000002 2.74730095703125 1.8430655000000002 C 2.74980095703125 1.8950655000000003 2.73730095703125 1.9645655000000002 2.70630095703125 2.0065655000000002 C 2.70230095703125 2.0125655 2.6963009570312497 2.0145655000000002 2.69080095703125 2.0190655000000004 M 3.1502687597656247 1.7765655000000002 C 3.137768759765625 1.7835655000000001 3.138768759765625 1.7835655000000001 3.137268759765625 1.7965655000000003 C 3.132768759765625 1.8450655000000002 3.127268759765625 1.8945655000000001 3.1237687597656247 1.9430655000000001 C 3.121268759765625 1.9740655000000003 3.120268759765625 2.0060655 3.120268759765625 2.0375655000000004 C 3.120268759765625 2.0445655 3.1222687597656247 2.0560655000000003 3.1317687597656247 2.0560655000000003 C 3.157268759765625 2.0555655 3.1742687597656247 2.0415655000000004 3.195268759765625 2.0385655000000003 C 3.201268759765625 2.0380655 3.205268759765625 2.0360655000000003 3.205268759765625 2.0300655 C 3.205268759765625 2.0200655000000003 3.193768759765625 2.0170655 3.185268759765625 2.0170655 C 3.173768759765625 2.0170655 3.160268759765625 2.0245655 3.148268759765625 2.0280655000000003 C 3.1477687597656248 1.9930655000000002 3.148768759765625 1.9620655000000002 3.153268759765625 1.9280655000000002 C 3.1542687597656247 1.9210655 3.152768759765625 1.9140655000000002 3.158768759765625 1.9125655000000001 C 3.168268759765625 1.9100655000000002 3.183268759765625 1.9095655000000002 3.1927687597656247 1.9085655000000001 C 3.195768759765625 1.9080655000000002 3.199768759765625 1.9060655000000002 3.202768759765625 1.9060655000000002 C 3.206768759765625 1.9045655000000001 3.2102687597656248 1.8990655000000003 3.2102687597656248 1.8950655000000003 C 3.2102687597656248 1.8895655000000002 3.2062687597656248 1.8880655000000002 3.200268759765625 1.8880655000000002 L 3.157768759765625 1.8865655000000001 C 3.160268759765625 1.8655655000000002 3.161268759765625 1.8285655000000003 3.165768759765625 1.8050655000000002 C 3.166768759765625 1.8005655000000003 3.168768759765625 1.7970655000000002 3.168768759765625 1.7930655000000002 C 3.168768759765625 1.7895655000000001 3.164768759765625 1.7860655000000003 3.162768759765625 1.7840655 L 3.205768759765625 1.7815655000000001 C 3.211268759765625 1.7815655000000001 3.215268759765625 1.7790655000000002 3.214768759765625 1.7730655000000002 C 3.213768759765625 1.7585655000000002 3.197768759765625 1.7555655000000003 3.182768759765625 1.7555655000000003 C 3.173768759765625 1.7555655000000003 3.165268759765625 1.7565655000000002 3.1597687597656248 1.7570655000000002 C 3.153768759765625 1.7575655000000001 3.151268759765625 1.7605655000000002 3.149268759765625 1.7655655000000001 M 3.5842497460937497 2.0340655 C 3.5842497460937497 2.0270655000000004 3.57824974609375 2.0180655 3.57024974609375 2.0180655 C 3.5617497460937497 2.0180655 3.5522497460937497 2.0340655 3.5522497460937497 2.0425655000000003 C 3.5522497460937497 2.0505655000000003 3.55574974609375 2.0530655 3.56274974609375 2.0565655 C 3.56874974609375 2.0565655 3.57924974609375 2.0430655000000004 3.58224974609375 2.0395655 C 3.58224974609375 2.0385655000000003 3.5842497460937497 2.0350655000000004 3.5842497460937497 2.0340655 M 4.34368876953125 2.0620655 C 4.34768876953125 2.0625655000000003 4.35168876953125 2.0645655 4.35618876953125 2.0645655 C 4.36268876953125 2.0645655 4.36668876953125 2.0605655 4.36668876953125 2.0540655 C 4.36668876953125 2.0485655 4.36868876953125 2.0425655000000003 4.36918876953125 2.0375655000000004 C 4.37018876953125 2.0105655000000002 4.37068876953125 2.0125655 4.3711887695312495 1.9860655000000003 C 4.37168876953125 1.9635655000000003 4.37618876953125 1.9315655000000003 4.38318876953125 1.9225655000000001 C 4.38768876953125 1.9130655 4.39818876953125 1.8860655000000002 4.4031887695312495 1.8760655000000002 L 4.4416887695312495 1.7955655000000001 C 4.44418876953125 1.7895655000000001 4.45668876953125 1.7740655000000003 4.45668876953125 1.7700655000000003 C 4.45668876953125 1.7595655000000003 4.45018876953125 1.7535655 4.43968876953125 1.7535655 C 4.432188769531249 1.7535655 4.42918876953125 1.7560655000000003 4.42668876953125 1.7620655000000003 C 4.40768876953125 1.8050655000000002 4.3886887695312495 1.8475655000000002 4.36918876953125 1.8905655000000001 L 4.36718876953125 1.8930655000000003 C 4.36068876953125 1.8540655000000001 4.34918876953125 1.8200655000000001 4.34568876953125 1.7805655000000002 C 4.34418876953125 1.7690655000000002 4.33668876953125 1.7595655000000003 4.32418876953125 1.7595655000000003 C 4.31768876953125 1.7595655000000003 4.30918876953125 1.7600655000000003 4.30918876953125 1.7680655000000003 C 4.30918876953125 1.7715655000000001 4.31768876953125 1.7915655000000001 4.31968876953125 1.7970655000000002 C 4.32568876953125 1.8190655000000002 4.33018876953125 1.8415655000000002 4.33518876953125 1.8630655000000003 C 4.33868876953125 1.8810655000000003 4.34768876953125 1.9270655000000003 4.34768876953125 1.9320655000000002 C 4.34768876953125 1.9505655000000002 4.34268876953125 2.0220655 4.34268876953125 2.0345655000000002 C 4.34268876953125 2.0440655000000003 4.34368876953125 2.0530655 4.34368876953125 2.0620655 M 4.884661943359375 1.9265655000000002 C 4.890161943359375 1.8595655000000002 4.8886619433593745 1.8145655000000003 4.874661943359375 1.7830655000000002 C 4.8726619433593745 1.7775655000000001 4.869661943359374 1.7735655000000001 4.867661943359375 1.7725655000000002 C 4.860161943359375 1.7675655000000003 4.854161943359375 1.7665655000000002 4.8471619433593744 1.7650655000000002 C 4.844661943359375 1.7650655000000002 4.843161943359375 1.7655655000000001 4.841161943359375 1.7655655000000001 C 4.839661943359375 1.7655655000000001 4.838161943359375 1.7650655000000002 4.835661943359375 1.7635655000000003 C 4.833661943359375 1.7620655000000003 4.831661943359375 1.7610655000000002 4.829661943359375 1.7610655000000002 C 4.820661943359375 1.7610655000000002 4.814161943359375 1.7780655000000003 4.812161943359375 1.7865655000000003 C 4.803161943359375 1.8235655000000002 4.796661943359375 1.8585655 4.793161943359375 1.8960655000000002 C 4.789661943359375 1.9360655000000002 4.786661943359375 1.9715655000000003 4.791661943359375 2.0135655000000003 C 4.7926619433593745 2.0220655 4.793161943359375 2.0310655000000004 4.797161943359375 2.0390655000000004 C 4.802661943359375 2.0500655 4.813661943359375 2.0600655000000003 4.826661943359375 2.0600655000000003 C 4.869161943359375 2.0600655000000003 4.881661943359375 1.9560655000000002 4.884661943359375 1.9265655000000002 M 4.825661943359375 2.0350655000000004 C 4.803661943359375 2.0070655000000004 4.827161943359375 1.8035655000000002 4.844661943359375 1.7800655 C 4.866161943359375 1.7995655000000002 4.862161943359375 1.8955655000000002 4.859161943359375 1.9230655000000003 C 4.854661943359375 1.9570655000000001 4.845661943359374 2.0020655 4.829661943359375 2.0330655 C 4.828661943359375 2.0345655000000002 4.827661943359375 2.0365655 4.827161943359375 2.0365655 C 4.826661943359375 2.0365655 4.8261619433593745 2.0360655000000003 4.825661943359375 2.0350655000000004 M 5.2816316992187495 2.0355655 C 5.270631699218749 2.0355655 5.26613169921875 1.9790655000000001 5.26813169921875 1.9295655000000003 C 5.26963169921875 1.8855655000000002 5.2721316992187495 1.8110655000000002 5.27613169921875 1.7945655000000003 C 5.27663169921875 1.7910655000000002 5.278631699218749 1.7880655 5.278631699218749 1.7850655000000002 C 5.278631699218749 1.7770655000000002 5.26863169921875 1.7710655000000002 5.26163169921875 1.7715655000000001 C 5.25213169921875 1.7720655 5.24413169921875 1.7765655000000002 5.24463169921875 1.7875655000000001 C 5.24463169921875 1.7930655000000002 5.24413169921875 1.7975655000000001 5.24413169921875 1.8030655000000002 C 5.24113169921875 1.8400655000000001 5.240131699218749 1.8800655000000002 5.23913169921875 1.9185655000000001 C 5.23713169921875 1.9830655000000001 5.24213169921875 2.0600655000000003 5.28413169921875 2.0600655000000003 C 5.31813169921875 2.0600655000000003 5.33113169921875 1.9690655000000001 5.33413169921875 1.9460655000000002 C 5.341131699218749 1.8945655000000001 5.34663169921875 1.8095655000000002 5.34613169921875 1.7955655000000001 C 5.34563169921875 1.7855655000000001 5.3506316992187495 1.7545655000000002 5.33013169921875 1.7545655000000002 C 5.32763169921875 1.7545655000000002 5.32463169921875 1.7550655000000002 5.32163169921875 1.7560655000000003 C 5.32163169921875 1.8130655000000002 5.31613169921875 1.8855655000000002 5.30713169921875 1.9420655000000002 C 5.29913169921875 1.9885655000000002 5.2896316992187495 2.0355655 5.2816316992187495 2.0355655 M 6.113543378906249 1.8960655000000002 C 6.11704337890625 1.8765655000000003 6.13954337890625 1.7985655000000003 6.15754337890625 1.7905655000000003 C 6.15954337890625 1.7880655 6.16054337890625 1.7850655000000002 6.16054337890625 1.7815655000000001 C 6.16054337890625 1.7730655000000002 6.15154337890625 1.7645655000000002 6.14454337890625 1.7645655000000002 C 6.13954337890625 1.7645655000000002 6.13654337890625 1.7680655000000003 6.13404337890625 1.7725655000000002 C 6.09854337890625 1.8240655000000001 6.07904337890625 1.9000655000000002 6.07904337890625 1.9640655000000002 C 6.07904337890625 1.9870655000000002 6.08254337890625 2.0520655000000003 6.11454337890625 2.0520655000000003 C 6.12504337890625 2.0520655000000003 6.13204337890625 2.0445655 6.13854337890625 2.0355655 C 6.158543378906249 2.0080655000000003 6.1630433789062495 1.9465655000000002 6.166543378906249 1.9175655000000003 C 6.16704337890625 1.9135655000000003 6.1935433789062495 1.9065655000000001 6.19404337890625 1.8945655000000001 C 6.19454337890625 1.8900655000000002 6.1935433789062495 1.8885655000000001 6.19254337890625 1.8840655000000002 C 6.18704337890625 1.8860655000000002 6.18154337890625 1.8865655000000001 6.17704337890625 1.8880655000000002 C 6.15704337890625 1.8925655000000001 6.14004337890625 1.8945655000000001 6.113543378906249 1.8960655000000002 M 6.112043378906249 1.9070655000000003 C 6.11704337890625 1.9185655000000001 6.13254337890625 1.9190655000000003 6.13954337890625 1.9190655000000003 C 6.13854337890625 1.9475655000000003 6.13004337890625 2.0035655 6.11554337890625 2.0265655000000002 C 6.112043378906249 2.0180655 6.1070433789062495 1.9865655000000002 6.1070433789062495 1.9690655000000001 C 6.1070433789062495 1.9525655000000002 6.1085433789062495 1.9225655000000001 6.112043378906249 1.9070655000000003 M 6.535506298828125 1.7730655000000002 C 6.535506298828125 1.7765655000000002 6.542506298828124 1.7780655000000003 6.543006298828125 1.7930655000000002 C 6.5440062988281245 1.8075655000000002 6.539006298828125 1.8530655000000003 6.538006298828125 1.8680655000000002 C 6.5360062988281245 1.9085655000000001 6.534506298828124 1.9490655000000001 6.533006298828124 1.9900655000000003 C 6.532006298828125 2.0095655000000003 6.531006298828125 2.0295655000000004 6.531506298828125 2.0495655000000004 C 6.532006298828125 2.0630655 6.538006298828125 2.0660655 6.550506298828124 2.0660655 C 6.556506298828125 2.0660655 6.557506298828125 2.0550655000000004 6.557006298828124 2.0405655 C 6.556506298828125 2.0175655000000003 6.558506298828124 1.9870655000000002 6.559006298828125 1.9800655000000003 C 6.559506298828125 1.9665655000000002 6.561006298828125 1.9570655000000001 6.561006298828125 1.9390655 C 6.569006298828125 1.9560655000000002 6.594006298828125 2.0185655000000002 6.6145062988281245 2.0215655000000003 C 6.615506298828125 2.0215655000000003 6.616506298828125 2.0215655000000003 6.617506298828125 2.0215655000000003 C 6.622006298828125 2.0215655000000003 6.627006298828125 2.0195655 6.625006298828125 2.0150655000000004 C 6.621506298828125 2.0085655 6.604006298828125 1.9775655000000003 6.591006298828125 1.9475655000000003 C 6.590006298828125 1.9450655000000001 6.580006298828125 1.9180655000000002 6.5775062988281245 1.9155655000000003 C 6.594006298828125 1.8965655000000001 6.616506298828125 1.8675655000000002 6.615506298828125 1.8280655000000001 C 6.6145062988281245 1.7835655000000001 6.588506298828125 1.7730655000000002 6.578006298828125 1.7645655000000002 C 6.574006298828125 1.7575655000000001 6.568506298828125 1.7530655000000002 6.5600062988281245 1.7530655000000002 C 6.548006298828125 1.7535655 6.543006298828125 1.7645655000000002 6.535506298828125 1.7730655000000002 M 6.563006298828125 1.8905655000000001 C 6.565006298828124 1.8690655000000003 6.5695062988281245 1.8160655 6.571006298828125 1.7945655000000003 C 6.580006298828125 1.7960655 6.591006298828125 1.8095655000000002 6.590506298828124 1.8290655000000002 C 6.589506298828125 1.8565655000000003 6.575006298828125 1.8820655000000002 6.563006298828125 1.8905655000000001 M 7.0629897265625 1.9265655000000002 C 7.0684897265624995 1.8595655000000002 7.0669897265624995 1.8145655000000003 7.0529897265625 1.7830655000000002 C 7.0509897265624994 1.7775655000000001 7.047989726562499 1.7735655000000001 7.0459897265624996 1.7725655000000002 C 7.0384897265625 1.7675655000000003 7.0324897265625 1.7665655000000002 7.025489726562499 1.7650655000000002 C 7.0229897265625 1.7650655000000002 7.0214897265625 1.7655655000000001 7.0194897265625 1.7655655000000001 C 7.0179897265625 1.7655655000000001 7.0164897265625 1.7650655000000002 7.0139897265624995 1.7635655000000003 C 7.0119897265625 1.7620655000000003 7.0099897265625 1.7610655000000002 7.0079897265625 1.7610655000000002 C 6.9989897265625 1.7610655000000002 6.9924897265625 1.7780655000000003 6.9904897265625 1.7865655000000003 C 6.9814897265625 1.8235655000000002 6.9749897265625 1.8585655 6.9714897265625 1.8960655000000002 C 6.9679897265625 1.9360655000000002 6.9649897265625 1.9715655000000003 6.9699897265625 2.0135655000000003 C 6.970989726562499 2.0220655 6.9714897265625 2.0310655000000004 6.9754897265624995 2.0390655000000004 C 6.9809897265625 2.0500655 6.9919897265625 2.0600655000000003 7.0049897265625 2.0600655000000003 C 7.0474897265625 2.0600655000000003 7.0599897265625 1.9560655000000002 7.0629897265625 1.9265655000000002 M 7.0039897265625 2.0350655000000004 C 6.9819897265624995 2.0070655000000004 7.0054897265625 1.8035655000000002 7.0229897265625 1.7800655 C 7.0444897265624995 1.7995655000000002 7.0404897265625 1.8955655000000002 7.0374897265625 1.9230655000000003 C 7.0329897265625 1.9570655000000001 7.023989726562499 2.0020655 7.0079897265625 2.0330655 C 7.0069897265625 2.0345655000000002 7.0059897265624995 2.0365655 7.0054897265625 2.0365655 C 7.0049897265625 2.0365655 7.0044897265624995 2.0360655000000003 7.0039897265625 2.0350655000000004 M 7.564959482421875 1.8135655000000002 C 7.556459482421875 1.8610655000000003 7.548959482421875 1.9310655000000003 7.540959482421875 1.9785655000000002 C 7.537959482421875 1.9470655000000001 7.5319594824218745 1.8935655000000002 7.530959482421875 1.8610655000000003 C 7.530959482421875 1.8405655000000003 7.528959482421874 1.8195655000000002 7.527459482421874 1.7985655000000003 C 7.526959482421875 1.7835655000000001 7.520959482421874 1.7765655000000002 7.505959482421875 1.7765655000000002 C 7.496959482421874 1.7765655000000002 7.498959482421875 1.7820655000000003 7.496459482421875 1.7900655000000003 C 7.476959482421875 1.8545655 7.460459482421875 1.9225655000000001 7.445959482421875 1.9785655000000002 C 7.443459482421875 1.9305655000000002 7.446459482421875 1.8755655000000002 7.448459482421875 1.8280655000000001 C 7.449459482421875 1.8050655000000002 7.450959482421875 1.7885655000000003 7.4519594824218744 1.7660655000000003 C 7.452459482421875 1.7550655000000002 7.444459482421875 1.7490655000000002 7.434459482421874 1.7480655000000003 C 7.433959482421875 1.7480655000000003 7.433959482421875 1.7480655000000003 7.433459482421875 1.7480655000000003 C 7.419459482421875 1.7480655000000003 7.421959482421875 1.7680655000000003 7.4214594824218745 1.7770655000000002 C 7.417959482421875 1.8670655000000003 7.419959482421874 1.9635655000000003 7.419459482421875 2.0355655 C 7.419459482421875 2.0440655000000003 7.4229594824218745 2.0590655 7.434459482421874 2.0610655 C 7.438459482421875 2.0615655000000004 7.434959482421875 2.0625655000000003 7.441959482421875 2.0645655 C 7.450959482421875 2.0635655 7.455959482421875 2.0585655000000003 7.457459482421875 2.0495655000000004 C 7.4599594824218745 2.0365655 7.457459482421875 2.0265655000000002 7.460459482421875 2.0145655000000002 C 7.471959482421875 1.9735655000000003 7.492459482421875 1.8945655000000001 7.503459482421874 1.8535655000000002 C 7.508459482421875 1.9085655000000001 7.515459482421875 1.9960655000000003 7.5239594824218745 2.0490655 C 7.525459482421875 2.0570655 7.540459482421875 2.0590655 7.547459482421875 2.0590655 C 7.550959482421875 2.0590655 7.552459482421875 2.0575655000000004 7.553459482421875 2.0510655000000004 C 7.560959482421874 2.0120655000000003 7.566459482421875 1.9435655000000003 7.577459482421875 1.8925655000000001 C 7.581959482421874 1.8670655000000003 7.590959482421875 1.8105655000000003 7.597959482421874 1.7810655000000002 C 7.599459482421874 1.7745655000000002 7.590459482421875 1.7645655000000002 7.584459482421875 1.7640655000000003 C 7.582959482421875 1.7640655000000003 7.581459482421875 1.7635655000000003 7.579959482421875 1.7635655000000003 C 7.574459482421875 1.7635655000000003 7.572959482421875 1.7660655000000003 7.571459482421875 1.7730655000000002 C 7.568959482421874 1.7845655000000002 7.567459482421874 1.8005655000000003 7.564959482421875 1.8135655000000002 M 7.9659297265625 2.0340655 C 7.9659297265625 2.0270655000000004 7.9599297265625 2.0180655 7.9519297265625 2.0180655 C 7.9434297265625 2.0180655 7.9339297265625 2.0340655 7.9339297265625 2.0425655000000003 C 7.9339297265625 2.0505655000000003 7.9374297265625 2.0530655 7.9444297265624995 2.0565655 C 7.9504297265625 2.0565655 7.9609297265625 2.0430655000000004 7.963929726562499 2.0395655 C 7.963929726562499 2.0385655000000003 7.9659297265625 2.0350655000000004 7.9659297265625 2.0340655" fill="#bf0000" fill-rule="nonzero"></path></g></g><defs><clipPath id="SvgjsClipPath189170"><path d=" M -2.381818699425154 -0.09181897969306818 h 1.876818699425154 v 2.2407034593861366 h -1.876818699425154 Z"></path></clipPath><clipPath id="SvgjsClipPath1891652fb6fef3-fd23-4503-8cf2-5349e3537b6d"><path d=" M -2.381818699425154 -0.09181897969306818 L -0.5049999999999999 -0.09181897969306818 L -0.5049999999999999 2.148884479693068 L -2.381818699425154 2.148884479693068 Z"></path></clipPath></defs></svg>