<svg xmlns="http://www.w3.org/2000/svg" version="1.1" xmlns:xlink="http://www.w3.org/1999/xlink" viewBox="0 0 23.387075686916443 6.828503369730457"><g transform="matrix(0.7305971792810597,0,0,0.7305971792810597,7.2412509924025645,2.3931751529765233)"><g transform="matrix(1,0,0,1,0,0)" clip-path="url(#SvgjsClipPath95152)"><g clip-path="url(#SvgjsClipPath95150280c6119-a2ef-4860-8b0d-ad5f03e09bcd)"><path d=" M -2.3053106627853435 -0.7115402924920935 L -2.309370741813143 -0.7115402924920935 L -2.309370741813143 2.751548933321798 L -1.6534570656276317 2.751548933321798 L -1.6534570656276317 2.2011973118590182 C -1.0059182072048563 1.8959729103996013 -0.656746899604689 1.1824068884821197 -0.8130869734189092 0.48381810405061376 C -0.9694270472331348 -0.2147706803808921 -1.5894416118621377 -0.7114385868679713 -2.3053106627853435 -0.7115402924920935 Z" fill="#ff6b00" transform="matrix(1,0,0,1,0,0)" fill-rule="nonzero"></path></g><g clip-path="url(#SvgjsClipPath95150280c6119-a2ef-4860-8b0d-ad5f03e09bcd)"><path d=" M -1.034453198785735 0.8646140230782478 C -1.0599341048102815 0.8646140230782478 -1.0805904604652494 0.8439576674232823 -1.0805904604652494 0.8184767613987332 C -1.080735044454575 0.23949705353373774 -1.4915857523224143 -0.2579957908003902 -2.0600977079965017 -0.3675935977087702 C -2.076288975088898 -0.3706830306035469 -2.0896021299972176 -0.38217572255630994 -2.0950222360394584 -0.39774248767217907 C -2.1004423420816964 -0.41330925278804687 -2.09714595619827 -0.4305851290911929 -2.0863747950669573 -0.443062461080245 C -2.0756036339356445 -0.4555397930692997 -2.058994093193014 -0.46132297716225357 -2.0428028261799662 -0.4582335438495098 C -1.4307739227608787 -0.3403289527920523 -0.9884302166589674 0.19519445500022925 -0.9882368446576297 0.8184767613987318 C -0.9882368266581807 0.8307268399712373 -0.9931085583904014 0.842474035132029 -1.0017780871487614 0.8511287272743193 C -1.0104476159071187 0.8597834194166107 -1.0222031382184902 0.8646350232136317 -1.034453198788308 0.8646140230782438 Z" fill="#bf0000" transform="matrix(1,0,0,1,0,0)" fill-rule="nonzero"></path></g><g clip-path="url(#SvgjsClipPath95150280c6119-a2ef-4860-8b0d-ad5f03e09bcd)"><path d=" M -2.435734110515949 3.5067236324920934 C -2.2743744530507817 3.5067236324920934 -2.143566605411736 3.3759157848530457 -2.143566605411736 3.214556127387876 L -2.7279016156201665 3.214556127387876 C -2.727887057616945 3.3759097543461083 -2.59708773747394 3.5067090744890086 -2.4357341105158308 3.5067236324920934 Z" fill="#ff6b00" transform="matrix(1,0,0,1,0,0)" fill-rule="nonzero"></path></g><g clip-path="url(#SvgjsClipPath95150280c6119-a2ef-4860-8b0d-ad5f03e09bcd)"><path d=" M -2.3053106627853435 -0.7576775541716081 L -2.3554025468945308 -0.7576775541716081 L -2.3554025468945308 2.705517128240408 L -3.029402029658411 2.705517128240408 C -3.0548829356829605 2.705517128240408 -3.0755392913379254 2.726173483895373 -3.0755392913379254 2.7516543899199224 C -3.0755392913379254 2.777135295944471 -3.0548829356829605 2.7977916515994368 -3.029402029658411 2.7977916515994368 L -1.607319803948117 2.7977916515994368 L -1.607319803948117 2.2301451480442225 C -0.9511133250815078 1.9057895933340092 -0.6047499835221171 1.172193659975742 -0.7712687138880558 0.4593928594604826 C -0.9377874442539942 -0.25340794105477715 -1.5733178583991125 -0.7576218346679047 -2.3053106627853435 -0.7576775541716055 Z M -2.2631280235355016 1.2826176138946501 L -2.0601240721456375 1.2826176138946501 C -2.0993301562642834 1.4791094909805669 -2.1179734298248767 1.6791491655833097 -2.11575242765637 1.8795019592799134 L -2.11575242765637 2.7055171282404107 L -2.2630489310869084 2.7055171282404107 Z M -1.6730719928788091 2.159462863151206 L -1.6994361424099602 2.1719594700289733 L -1.6994361424099602 2.7055171282404107 L -2.0236624533440577 2.7055171282404107 L -2.0236624533440577 1.879501959279912 C -2.026364978455369 1.6788541785078335 -2.006734750554192 1.4785285870208325 -1.9651340413848977 1.282222151651675 C -1.6993570499613648 1.2759211199137372 -1.5962732252945653 1.1957213770399753 -1.5567797292969003 1.127991876894447 C -1.5225330982511402 1.0686919765548788 -1.5233010135385952 0.9954470039395087 -1.5587834046612663 0.9368781569431319 C -1.5881936959811656 0.8839828567977575 -1.6416206778300495 0.8488210889794068 -1.7018352800172938 0.8427317789673905 C -1.785336954884015 0.8377058570056695 -1.8660848921567954 0.8735141023476933 -1.9184167684157036 0.9387763757093728 C -1.9655558677774012 0.9919792294632355 -2.0058139241114703 1.078506368224474 -2.0373981752497894 1.1903430905356172 L -2.2632334801336307 1.1903430905356172 L -2.2632334801336307 -0.6648230195228931 C -1.5771000730489444 -0.6452488924999812 -0.9940327094825938 -0.15743939399814744 -0.8536567640749557 0.514465951059667 C -0.7132808186673119 1.1863712961174815 -1.0522731984233418 1.8668195481926608 -1.6731774494769356 2.159462863151206 Z M -1.9401408276293712 1.189051247208596 C -1.922674480100261 1.1206251201392794 -1.8917837628934846 1.0563523543118893 -1.8492636041954902 0.9999675667711792 C -1.818281190570116 0.9611966994642962 -1.7724433836113178 0.937216027084141 -1.7229265996422147 0.9338726438965828 C -1.7190783193447485 0.9338753795903834 -1.7152327725497338 0.9340777767901216 -1.711405466297105 0.9344790193357997 C -1.6807461572814946 0.9372134326563448 -1.653523725047918 0.9551998594870468 -1.6389831475350296 0.9823299507348406 C -1.6201245828452255 1.0124581370645391 -1.6191149406091845 1.0504509744067625 -1.636346732581917 1.0815382454205604 C -1.6541161693659117 1.111698832484197 -1.7181019602780139 1.1789010496391017 -1.940246284227495 1.1890512472085946 Z" fill="#004a80" transform="matrix(1,0,0,1,0,0)" fill-rule="nonzero"></path></g><g clip-path="url(#SvgjsClipPath95150280c6119-a2ef-4860-8b0d-ad5f03e09bcd)"><path d=" M -3.8196146835556046 0.7390943071604372 C -3.913457079133865 0.762982453273606 -3.9831167874066473 0.8418715802906498 -3.995205100411388 0.9379492125537854 C -4.007293413416133 1.0340268448169196 -3.9593468113596586 1.1277129839699358 -3.874346657982276 1.1741027744244306 C -3.8519744224927224 1.186304488280759 -3.8239466987768855 1.1780596514664756 -3.811744984920561 1.1556874159769226 C -3.7995432710642314 1.1333151804873693 -3.807788107878512 1.1052874567715325 -3.830160343368065 1.0930857429152039 C -3.881920659419905 1.064912055193597 -3.911148098247442 1.0079162705983076 -3.9038206600711067 0.9494423820035429 C -3.8964932218947745 0.8909684934087767 -3.8541059134725084 0.8429468448868283 -3.796994243257876 0.828416045771978 C -3.7725439551710807 0.8219556470864353 -3.7578512378399 0.7970164080861468 -3.7640511026046357 0.7724987610619642 C -3.7702509673693716 0.7479811140377803 -3.7950324536706885 0.7330238575652488 -3.819614683555602 0.7389624864127811 Z" fill="#004a80" transform="matrix(1,0,0,1,0,0)" fill-rule="nonzero"></path></g><g clip-path="url(#SvgjsClipPath95150280c6119-a2ef-4860-8b0d-ad5f03e09bcd)"><path d=" M -3.173482106846155 0.288082801131035 C -3.1570836216781064 0.2864015092487502 -3.1428277550834443 0.27609944370869655 -3.136084554130086 0.2610572929614545 C -3.1293413531767285 0.2460151422142114 -3.1311352705223534 0.22851816683806492 -3.140790554853068 0.21515730823193002 C -3.1504458391837824 0.2017964496257938 -3.166495623093202 0.19460154009076025 -3.1828941082111455 0.1962828324617577 C -3.329632269732079 0.21137925686297576 -3.447954927956386 0.32311651429780874 -3.471420433415398 0.468750851336059 C -3.494885938874412 0.614385188374309 -3.417647953803785 0.7576323866385484 -3.2830778764471473 0.8180549350062345 C -3.2598392902032565 0.8285093865201916 -3.232525686419467 0.8181457977776234 -3.2220712347323692 0.7949072116116229 C -3.2116167830452715 0.7716686254456226 -3.221980371584336 0.7443550215846186 -3.2452189576724457 0.7339005697243792 C -3.341717574201905 0.6905877128056255 -3.3971101906317704 0.5878763309750288 -3.3802882344725096 0.48344928301132994 C -3.363466278313244 0.3790222350476311 -3.2786215681305313 0.29890141960926964 -3.1734030143975573 0.28808280113103124 Z" fill="#004a80" transform="matrix(1,0,0,1,0,0)" fill-rule="nonzero"></path></g><g clip-path="url(#SvgjsClipPath95150280c6119-a2ef-4860-8b0d-ad5f03e09bcd)"><path d=" M -3.0539470528719157 1.257176209597089 C -2.9309227161685802 1.1990111494435465 -2.8480454603845438 1.0798851326812886 -2.8362846343427326 0.9443128471109155 C -2.8341005566834863 0.9189338647104675 -2.852903742145407 0.8965895897076968 -2.8782827245458575 0.8944055120484491 C -2.9036617069463055 0.8922214343892012 -2.9260059819490785 0.911024619851122 -2.9281900596083252 0.9364036022515714 C -2.9392537641486944 1.0666501982466774 -3.0363568971946755 1.1732591300837956 -3.1650072344380575 1.1964037202428934 C -3.2936575716814387 1.219548310401991 -3.4218282401011857 1.1534668262204701 -3.4775925716879814 1.0352427988438586 C -3.4846097291365554 1.0203230972609763 -3.4990534160861646 1.0102803334363208 -3.5154828354049763 1.0088975193393055 C -3.5319122547237907 1.0075147052422875 -3.547831386757763 1.0150019232317005 -3.5572436484866583 1.0285388107294635 C -3.5666559102155513 1.0420756982272252 -3.5681313551629645 1.0596056799768796 -3.561114197492068 1.0745253814551965 C -3.471454880367567 1.265037098838978 -3.2443558950752758 1.3468267240377918 -3.053815232124263 1.2572289378961499 Z" fill="#004a80" transform="matrix(1,0,0,1,0,0)" fill-rule="nonzero"></path></g><g clip-path="url(#SvgjsClipPath95150280c6119-a2ef-4860-8b0d-ad5f03e09bcd)"><path d=" M -2.960697055980232 2.0291712361682572 C -3.0070763040827506 2.0775407448109755 -3.082166866615138 2.0839299135146776 -3.13605139227921 2.044091465818374 C -3.1899359179432807 2.0042530181220712 -3.205840381925609 1.9305884942073035 -3.173192101201309 1.8720672691121247 C -3.1607792598379225 1.8498115177643986 -3.1687585149366413 1.8217070704418428 -3.1910142662843684 1.8092942290784546 C -3.2132700176320954 1.7968813877150678 -3.241374464954653 1.8048606428137866 -3.25378730631804 1.827116394161514 C -3.308961646185594 1.9261757664088737 -3.282005621776098 2.050798713305128 -3.1908254086088452 2.118201500611261 C -3.099645195441595 2.185604287917398 -2.97259668532143 2.174825502210398 -2.894074850115012 2.0930252063327055 C -2.882668436536449 2.0811242955739653 -2.878477536161589 2.064042151280435 -2.883080820639922 2.0482134520406285 C -2.8876841051182573 2.032384752800823 -2.900382226011117 2.0202142546430926 -2.9163919239559988 2.016286466547193 C -2.932401621900886 2.0123586784512932 -2.949290642859621 2.0172703248832455 -2.9606970559365964 2.02917123612273 Z" fill="#004a80" transform="matrix(1,0,0,1,0,0)" fill-rule="nonzero"></path></g><g clip-path="url(#SvgjsClipPath95150280c6119-a2ef-4860-8b0d-ad5f03e09bcd)"><path d=" M -2.498006231708531 2.0159891614026817 C -2.497202059789437 2.012629298150956 -2.4967862990974425 2.009188214976775 -2.4967671166805667 2.005733507235063 L -2.4967671166805667 1.988702266637939 C -2.4967671166805667 1.9867776837221658 -2.4965034751852544 1.9849321932549844 -2.4965034751852544 1.9830076103392102 C -2.4965034751852544 1.9821375934046823 -2.4967143883815046 1.981320304769216 -2.4967671166805667 1.9803711953860936 L -2.4967671166805667 1.5180231050582986 C -2.4967671166805667 1.5174430937686127 -2.496608931783381 1.5168894466284593 -2.49658256763385 1.5163094353387734 C -2.49658256763385 1.5147539505164358 -2.49658256763385 1.513277558142691 -2.4967671166805667 1.511774801619415 L -2.4967671166805667 -0.06501225353967388 C -2.4975753188348873 -0.06897885473296439 -2.4975753188348873 -0.07306770453258882 -2.4967671166805667 -0.07703430572587922 C -2.496749071363067 -0.44074705513768553 -2.78271537578832 -0.7401916114626803 -3.1460435625776926 -0.7569126489612931 C -3.5093717493670646 -0.7736336864599059 -3.821632989645234 -0.5017206720614626 -3.8550217363759005 -0.1395437042647255 C -3.8606109360765464 -0.1383309533858057 -3.8662528640762157 -0.137619121348465 -3.8717893354777537 -0.13619545727378213 C -4.019702569915149 -0.09877995222863489 -4.142044901717575 0.004851192135325144 -4.2032792327197654 0.14459596536935115 C -4.264513563721961 0.2843407386033785 -4.257775327074032 0.444533298979676 -4.185021796057361 0.578642093113849 C -4.306298181491598 0.7050434014743112 -4.361247218965018 0.8810202642111142 -4.333444215493812 1.0539718337825115 C -4.305641212022605 1.22692340335391 -4.1983072956655905 1.3768123066703615 -4.043525405523673 1.4588355893608635 C -4.065497782573223 1.5090364900360427 -4.076731960955878 1.5632766478547897 -4.076506956587143 1.6180750525290193 C -4.076156144270383 1.8420600291101195 -3.896635675061715 2.02458090571693 -3.6726872782184974 2.028643953177636 C -3.6279030570405144 2.3174657834362824 -3.3806124380306866 2.531407202833206 -3.088352268010067 2.5341765204374562 L -3.0818930513749345 2.5341765204374562 C -2.922047643598546 2.536481703278228 -2.7676521922326343 2.4761146432559684 -2.6517619517742004 2.3659996105782444 C -2.55809533957032 2.2729690987295816 -2.5031557383603906 2.1479042589382518 -2.498006231708531 2.0159891614026817 Z M -3.0874031586269464 2.4419019970784293 C -3.3621353896488984 2.4398242362177385 -3.584403829821942 2.217743572328698 -3.586713786597418 1.9430131955004553 C -3.587071573007539 1.8106354137094913 -3.534459776553314 1.683615233890383 -3.4406036698957716 1.5902608747736469 C -3.423115236372281 1.572161126118566 -3.423359461565339 1.5433849648847728 -3.4411525812878097 1.5255846531171418 C -3.458945701010281 1.5077843413495138 -3.487721761197509 1.5075284870957548 -3.5058285758358485 1.5250096046840527 C -3.6152634128075003 1.6339662422797867 -3.677354345970761 1.7816583597293054 -3.678645576012544 1.936079424173762 C -3.8491897603025462 1.9289515775177575 -3.9838646630031187 1.7887678809027807 -3.984153340779518 1.6180750525290157 C -3.9842979585985034 1.5757270945556188 -3.9755872007965216 1.5338166753165992 -3.9585801157343017 1.4950335666671328 C -3.9308024483986497 1.5043756491223352 -3.902339915919283 1.511541966528877 -3.873450276898214 1.5164676202359593 C -3.8709319816149117 1.5168855289725791 -3.86838377122079 1.5170971450606718 -3.865831037683712 1.5171003598247073 C -3.8418417734519674 1.5170335752906217 -3.8219014453766977 1.4986037287591871 -3.819949065595456 1.4746939510156738 C -3.8179966858142143 1.4507841732721596 -3.8346829780695186 1.4293635388816452 -3.8583436192168654 1.425405847755364 C -4.061148128210038 1.3914487232036057 -4.217863455057797 1.2288120830952036 -4.244279162315699 1.0248881620220474 C -4.270694869573599 0.8209642409488922 -4.1605916660170585 0.6237647101651251 -3.973133126275497 0.539254053714312 C -3.949901820239976 0.5287777612087878 -3.9395618387806883 0.5014523535852189 -3.95003813128621 0.4782210475496955 C -3.960514423791732 0.4549897415141708 -3.987839831415302 0.44464976005488555 -4.0110711374508226 0.45512605256040595 C -4.047336566420283 0.47151485218771816 -4.081744294096231 0.49173701528111025 -4.113706771575595 0.5154472266876817 C -4.164574242711417 0.40802330088516836 -4.165309827965844 0.2835987524505834 -4.115716026616464 0.17558090983976482 C -4.0661222252670814 0.06756306722894612 -3.971280853215908 -0.012979613917561417 -3.8566563136468712 -0.04442185275584454 C -3.8507029341089787 0.09156896803575143 -3.8037174823576065 0.22257124577681298 -3.7218827812436284 0.33134637051165283 C -3.711992828387763 0.3445329774486239 -3.6958191636257136 0.3514416771519673 -3.6794542507504504 0.34947002896161217 C -3.6630893378751868 0.3474983807712597 -3.6490193968457407 0.3369459249976525 -3.6425444389800266 0.3217876701298028 C -3.63606948111431 0.3066294152619531 -3.6381732066985615 0.2891682611737436 -3.6480631625602404 0.2759816564911264 C -3.8017574480137992 0.07120247811813152 -3.8053757086743505 -0.20946240016544737 -3.6570115472703466 -0.41813563968205275 C -3.508647385866338 -0.6268088791986595 -3.242365830338855 -0.7155782370762916 -2.9984659021036686 -0.6376727155367995 C -2.754565973868485 -0.5597671939973072 -2.5890481099013103 -0.3330742244991607 -2.5891207324881886 -0.077034305725878 C -2.588312530333866 -0.07306770453258749 -2.588312530333866 -0.06897885473296306 -2.589120732488186 -0.06501225353967266 L -2.589120732488186 0.35981965200529675 C -2.657998172111407 0.30853501866397237 -2.7499288576139644 0.3005360568578086 -2.8266287819581923 0.3391538883815317 C -2.90332870630242 0.3777717199052548 -2.951650025693149 0.4563865048969191 -2.951469603644329 0.542259566760865 C -2.951469603644329 0.5677404727854127 -2.930813247989361 0.5883968284403782 -2.9053323419648143 0.5883968284403782 C -2.8798514359402683 0.5883968284403782 -2.8591950802853 0.5677404727854127 -2.8591950802853 0.5422595667608636 C -2.8591950802853 0.4676805949564413 -2.798736878191166 0.4072223928623069 -2.7241579063867443 0.4072223928623069 C -2.6495789345823235 0.4072223928623069 -2.5891207324881886 0.4676805949564413 -2.5891207324881886 0.5422595667608636 L -2.5891207324881886 1.5129084600492557 C -2.595112097731082 1.5929178165719888 -2.660438184437671 1.6555517151929797 -2.7406287363711233 1.6581725870448711 C -2.8208192883045733 1.6607934588967626 -2.890095728776479 1.6025587814579423 -2.9012986270865437 1.5231113859178118 C -2.902795769711256 1.5125478767801173 -2.9032285545088774 1.5018607419817236 -2.902590470413573 1.4912107649851192 C -2.901615603323642 1.4747275088460017 -2.9095085015262354 1.458976266684753 -2.9232959866130006 1.4498903790686166 C -2.9370834716997636 1.4408044914524802 -2.9546708966628072 1.4397643208760929 -2.969433248634056 1.4471616895344661 C -2.9841956006052994 1.4545590581928376 -2.9938901271036813 1.4692701297931963 -2.994864993768187 1.4857533859574772 C -2.995838227226286 1.5025757080193707 -2.9951316883611714 1.5194531551597426 -2.9927558618101067 1.5361352757862001 C -2.980276095897204 1.6250279587788918 -2.9208945674549422 1.7003125700502058 -2.8373541527138424 1.733155419374895 C -2.7538137379727345 1.7659982686995839 -2.659060439864701 1.7513098000230423 -2.5893843739834987 1.6947156352160746 L -2.5893843739834987 1.9886231741893485 C -2.588316207906905 2.10549662620022 -2.6343236960481264 2.217883360965687 -2.717039586013329 2.3004583348438006 C -2.8171023298930122 2.3944564585948154 -2.950155735513618 2.44527020582962 -3.0874031586269464 2.4419019970784293 Z" fill="#004a80" transform="matrix(1,0,0,1,0,0)" fill-rule="nonzero"></path></g><g clip-path="url(#SvgjsClipPath95150280c6119-a2ef-4860-8b0d-ad5f03e09bcd)"><path d=" M -3.439944566157499 -0.0307915874482394 C -3.41446366013295 -0.0307915874482394 -3.393807304477985 -0.051447943103204885 -3.393807304477985 -0.076928849127754 C -3.394666968837141 -0.15481391823192714 -3.35360847888668 -0.2271533815905994 -3.2862976583848837 -0.26634619286443734 C -3.2189868378830857 -0.3055390041382766 -3.1358075282199693 -0.3055390041382766 -3.068496707718171 -0.26634619286443734 C -3.001185887216373 -0.22715338159059806 -2.9601273972659143 -0.15481391823192459 -2.9609870616250755 -0.076928849127754 C -2.9609870616250755 -0.051447943103204885 -2.9403307059701076 -0.0307915874482394 -2.9148497999455607 -0.0307915874482394 C -2.889368893921012 -0.0307915874482394 -2.8687125382660463 -0.051447943103204885 -2.8687125382660463 -0.076928849127754 C -2.8676870544839597 -0.1878909804956207 -2.9262967072530324 -0.29086584848386055 -3.02222546346784 -0.3466450555933994 C -3.118154219682644 -0.40242426270293963 -3.2366401464204078 -0.40242426270293963 -3.332568902635213 -0.34664505559340203 C -3.4284976588500173 -0.29086584848386565 -3.4871073116190927 -0.18789098049562714 -3.486081827837011 -0.076928849127754 C -3.4860818278370136 -0.051447943103204885 -3.4654254721820457 -0.0307915874482394 -3.439944566157499 -0.0307915874482394 Z" fill="#004a80" transform="matrix(1,0,0,1,0,0)" fill-rule="nonzero"></path></g><g clip-path="url(#SvgjsClipPath95150280c6119-a2ef-4860-8b0d-ad5f03e09bcd)"><path d=" M -1.8424089253173923 3.168418865708362 L -3.0290592957145055 3.168418865708362 C -3.0545402017390546 3.168418865708362 -3.07519655739402 3.1890752213633267 -3.07519655739402 3.214556127387876 C -3.07519655739402 3.240037033412425 -3.0545402017390546 3.2606933890673906 -3.0290592957145055 3.2606933890673906 L -2.770506081262507 3.2606933890673906 C -2.747808933113353 3.4282415719017125 -2.6047599264062336 3.5532188348581037 -2.4356813822168895 3.5532188348581037 C -2.2666028380275427 3.5532188348581037 -2.1235538313204234 3.4282415719017125 -2.100856683171267 3.2606933890673906 L -1.8423298328687991 3.2606933890673906 C -1.81684892684425 3.2606933890673906 -1.7961925711892848 3.240037033412425 -1.7961925711892848 3.214556127387876 C -1.7961925711892848 3.1890752213633267 -1.81684892684425 3.168418865708362 -1.8423298328687991 3.168418865708362 Z M -2.435602289768294 3.460586370812579 C -2.553641848473461 3.4604285735266798 -2.6549989292025886 3.3766055602099003 -2.677308812669885 3.2606933890673906 L -2.1938957668667 3.2606933890673906 C -2.216222725522001 3.3766388406716246 -2.3176322325246335 3.4604686359282706 -2.435707746366418 3.460586370812579 Z" fill="#004a80" transform="matrix(1,0,0,1,0,0)" fill-rule="nonzero"></path></g><g clip-path="url(#SvgjsClipPath95150280c6119-a2ef-4860-8b0d-ad5f03e09bcd)"><path d=" M -1.8424089253173923 2.9369679969743876 L -3.0290592957145055 2.9369679969743876 C -3.0545402017390546 2.9369679969743876 -3.07519655739402 2.9576243526293524 -3.07519655739402 2.983105258653902 C -3.07519655739402 3.008586164678448 -3.0545402017390546 3.0292425203334163 -3.0290592957145055 3.0292425203334163 L -1.8424089253173923 3.0292425203334163 C -1.8169280192928454 3.0292425203334163 -1.7962716636378775 3.008586164678448 -1.7962716636378775 2.983105258653902 C -1.7962716636378775 2.9576243526293524 -1.8169280192928454 2.9369679969743876 -1.8424089253173923 2.9369679969743876 Z" fill="#004a80" transform="matrix(1,0,0,1,0,0)" fill-rule="nonzero"></path></g></g><g><path d=" M 0.104781 1.310751 Q 0.104781 1.2721995 0.1057695 1.1871885 Q 0.106758 1.1021775 0.10922925 0.98998275 Q 0.11170050000000001 0.877788 0.114666 0.753237 Q 0.1176315 0.628686 0.12010275000000001 0.5090775 Q 0.122574 0.38946899999999995 0.12504525 0.29061899999999996 Q 0.1275165 0.19176900000000008 0.128505 0.130482 Q 0.1294935 0.0691949999999999 0.1294935 0.06326399999999999 Q 0.1848495 0.059309999999999974 0.26046975 0.0543674999999999 Q 0.33609 0.04942500000000005 0.41961825 0.04596525000000007 Q 0.5031465 0.042505500000000085 0.5822265 0.042505500000000085 Q 0.697881 0.042505500000000085 0.78734025 0.07216050000000007 Q 0.8767995000000001 0.10181550000000006 0.9282015 0.168045 Q 0.9796035 0.23427449999999994 0.9796035 0.342021 Q 0.9796035 0.42110100000000006 0.943029 0.48041100000000003 Q 0.9064545 0.539721 0.854064 0.5762955 Q 0.8016735 0.61287 0.753237 0.6227550000000001 Q 0.7581795 0.6227550000000001 0.76361625 0.6227550000000001 Q 0.769053 0.6227550000000001 0.7779495 0.6227550000000001 Q 0.865926 0.628686 0.93264975 0.6657547500000001 Q 0.9993735 0.7028235 1.0369365 0.765099 Q 1.0744995 0.8273745 1.0744995 0.9084315000000001 Q 1.0744995 1.0408905 1.0230975 1.12343025 Q 0.9716955 1.20597 0.8767995000000001 1.251441 Q 0.7819035 1.296912 0.65092725 1.3137165 Q 0.519951 1.330521 0.3627795 1.330521 Q 0.288642 1.330521 0.2204355 1.3255785 Q 0.152229 1.320636 0.104781 1.310751 M 0.42999750000000003 1.0369365 Q 0.438894 1.037925 0.4517445 1.037925 Q 0.464595 1.037925 0.48041100000000003 1.037925 Q 0.53379 1.037925 0.587169 1.0310055 Q 0.640548 1.024086 0.68453625 1.00827 Q 0.7285245 0.992454 0.755214 0.96428175 Q 0.7819035 0.9361095 0.7819035 0.8936040000000001 Q 0.7819035 0.8639490000000001 0.76954725 0.8412135000000001 Q 0.7571910000000001 0.818478 0.73149 0.80315625 Q 0.705789 0.7878345 0.66476625 0.78042075 Q 0.6237435 0.773007 0.5664105 0.773007 Q 0.549606 0.773007 0.5248935 0.77350125 Q 0.500181 0.7739955000000001 0.47398575 0.77547825 Q 0.4477905 0.776961 0.425055 0.7799265 L 0.42999750000000003 1.0369365 M 0.421101 0.529836 Q 0.4734915 0.529836 0.5051235000000001 0.5268705 Q 0.5367555 0.523905 0.5604795 0.515997 Q 0.6178125 0.5071005 0.6657547500000001 0.47398575 Q 0.713697 0.440871 0.713697 0.3845265 Q 0.713697 0.3262050000000001 0.6731685000000001 0.2970442499999999 Q 0.63264 0.26788349999999994 0.569376 0.26788349999999994 Q 0.5328015 0.26788349999999994 0.48980175 0.27233175 Q 0.44680200000000003 0.27678 0.41517 0.2817225000000001 L 0.421101 0.529836 M 1.3128266183203126 1.358199 Q 1.3068956183203126 1.247487 1.2984933683203126 1.08685575 Q 1.2900911183203125 0.9262245 1.2807003683203126 0.74285775 Q 1.2713096183203125 0.559491 1.2624131183203127 0.37810125000000006 Q 1.2535166183203126 0.19671149999999993 1.2465971183203126 0.04547100000000004 Q 1.2851486183203127 0.041517000000000026 1.3454471183203127 0.03756300000000001 Q 1.4057456183203128 0.033609 1.4759291183203127 0.029654999999999987 Q 1.5461126183203127 0.025700999999999974 1.6133306183203127 0.02273550000000002 Q 1.6805486183203127 0.019770000000000065 1.7329391183203127 0.019770000000000065 Q 1.8090536183203128 0.019770000000000065 1.8856623683203126 0.03410325000000003 Q 1.9622711183203125 0.04843649999999999 2.0260293683203128 0.08402250000000011 Q 2.0897876183203126 0.1196085 2.1283391183203126 0.18534374999999992 Q 2.1668906183203127 0.25107900000000005 2.1668906183203127 0.3548715 Q 2.1668906183203127 0.45668699999999995 2.1149943683203127 0.5466405 Q 2.0630981183203128 0.636594 1.9770986183203125 0.6771225 Q 1.9998341183203125 0.719628 2.0275121183203124 0.7799265 Q 2.0551901183203127 0.840225 2.0833623683203126 0.90942 Q 2.1115346183203125 0.978615 2.1372356183203127 1.04632725 Q 2.1629366183203125 1.1140395 2.183200868320313 1.170384 Q 2.2034651183203127 1.2267285 2.213350118320313 1.2623145 Q 2.184683618320313 1.2801075 2.1367413683203127 1.2959235 Q 2.0887991183203125 1.3117395 2.0383856183203126 1.3240957500000001 Q 1.9879721183203127 1.336452 1.9509033683203127 1.34436 Q 1.9138346183203128 1.352268 1.9059266183203127 1.352268 Q 1.8980186183203127 1.3127280000000001 1.8812141183203126 1.2484755 Q 1.8644096183203125 1.184223 1.8426626183203125 1.109097 Q 1.8209156183203126 1.033971 1.7986743683203126 0.9613162500000001 Q 1.7764331183203126 0.8886615 1.7576516183203126 0.8313285 Q 1.7388701183203126 0.7739955000000001 1.7279966183203126 0.7463175 Q 1.7052611183203128 0.75126 1.6820313683203127 0.755214 Q 1.6588016183203127 0.7591680000000001 1.6385373683203126 0.761145 Q 1.6182731183203125 0.763122 1.6014686183203126 0.7641105 Q 1.6054226183203126 0.786846 1.6098708683203127 0.83874225 Q 1.6143191183203127 0.8906385 1.6192616183203126 0.958845 Q 1.6242041183203126 1.0270515 1.6286523683203127 1.09871775 Q 1.6331006183203125 1.170384 1.6365603683203127 1.233648 Q 1.6400201183203127 1.296912 1.6410086183203125 1.3374405 Q 1.6014686183203126 1.3463370000000001 1.5446298683203126 1.35078525 Q 1.4877911183203127 1.3552335 1.4269983683203127 1.35671625 Q 1.3662056183203126 1.358199 1.3128266183203126 1.358199 M 1.5747791183203126 0.5268705 Q 1.6054226183203126 0.5268705 1.6375488683203128 0.52439925 Q 1.6696751183203127 0.5219280000000001 1.7141576183203127 0.51402 Q 1.7784101183203127 0.5031465 1.8169616183203128 0.48387075 Q 1.8555131183203126 0.464595 1.8728118683203125 0.43444574999999996 Q 1.8901106183203127 0.40429650000000006 1.8901106183203127 0.363768 Q 1.8901106183203127 0.30940049999999997 1.8653981183203125 0.2851822500000001 Q 1.8406856183203126 0.260964 1.7976858683203125 0.2540445 Q 1.7546861183203126 0.24712500000000004 1.6973531183203128 0.24712500000000004 Q 1.6815371183203127 0.24712500000000004 1.6597901183203128 0.2486077499999999 Q 1.6380431183203126 0.2500905 1.6162961183203126 0.2520675000000001 Q 1.5945491183203127 0.2540445 1.5767561183203127 0.2555272500000001 Q 1.5589631183203125 0.25700999999999996 1.5510551183203125 0.2579985 Q 1.5520436183203126 0.2748029999999999 1.5550091183203127 0.302481 Q 1.5579746183203127 0.3301590000000001 1.5609401183203127 0.36327375000000006 Q 1.5639056183203126 0.39638850000000003 1.5663768683203125 0.42851475000000006 Q 1.5688481183203127 0.46064099999999997 1.5713193683203126 0.48683624999999997 Q 1.5737906183203125 0.5130315 1.5747791183203126 0.5268705 M 2.753154291328125 1.3512795 Q 2.714602791328125 1.3512795 2.661718041328125 1.350291 Q 2.608833291328125 1.3493025 2.554960041328125 1.3463370000000001 Q 2.501086791328125 1.3433715 2.457592791328125 1.338429 Q 2.455615791328125 1.2741765 2.453638791328125 1.17384375 Q 2.451661791328125 1.0735109999999999 2.450179041328125 0.9598335 Q 2.448696291328125 0.846156 2.448696291328125 0.743352 Q 2.448696291328125 0.585192 2.451167541328125 0.405285 Q 2.453638791328125 0.22537800000000008 2.457592791328125 0.03262049999999994 Q 2.474397291328125 0.031632000000000104 2.510971791328125 0.031137750000000075 Q 2.547546291328125 0.030643500000000046 2.593511541328125 0.029160749999999958 Q 2.639476791328125 0.02767800000000009 2.682476541328125 0.027183750000000062 Q 2.7254762913281247 0.026689500000000033 2.755131291328125 0.026689500000000033 Q 2.761062291328125 0.1324590000000001 2.765016291328125 0.26145825 Q 2.768970291328125 0.3904575 2.770947291328125 0.5248935 Q 2.772924291328125 0.6593295 2.772924291328125 0.782892 Q 2.772924291328125 0.844179 2.772430041328125 0.9104085 Q 2.771935791328125 0.976638 2.770947291328125 1.041879 Q 2.769958791328125 1.10712 2.766993291328125 1.16643 Q 2.764027791328125 1.22574 2.761062291328125 1.27368225 Q 2.758096791328125 1.3216245 2.753154291328125 1.3512795 M 3.0566924843554686 1.3097625 Q 3.0596579843554688 1.255395 3.0626234843554685 1.16198175 Q 3.0655889843554687 1.0685685 3.067565984355469 0.95143125 Q 3.0695429843554685 0.8342940000000001 3.0695429843554685 0.709743 Q 3.0695429843554685 0.585192 3.067565984355469 0.46311225 Q 3.0655889843554687 0.34103249999999996 3.0626234843554685 0.2372399999999999 Q 3.0596579843554688 0.13344749999999994 3.0566924843554686 0.06326399999999999 Q 3.0853589843554685 0.059309999999999974 3.1466459843554686 0.0543674999999999 Q 3.2079329843554687 0.04942500000000005 3.2741624843554686 0.04942500000000005 Q 3.3057944843554687 0.04942500000000005 3.3482999843554686 0.05140199999999995 Q 3.3908054843554685 0.053379000000000065 3.4056329843554685 0.05634450000000002 Q 3.4076099843554686 0.10774649999999997 3.4071157343554686 0.1868265 Q 3.4066214843554685 0.26590650000000005 3.404150234355469 0.363768 Q 3.4016789843554687 0.4616295 3.3977249843554684 0.57085875 Q 3.3937709843554686 0.680088 3.388828484355469 0.7898115 Q 3.3858629843554686 0.848133 3.3824032343554684 0.90299475 Q 3.3789434843554687 0.9578565 3.3749894843554684 0.996408 Q 3.4530809843554686 0.9914655 3.5291954843554687 0.9884999999999999 Q 3.6053099843554683 0.9855345 3.6819187343554685 0.9835575000000001 Q 3.7585274843554686 0.9815805 3.8356304843554687 0.9815805 Q 3.8395844843554685 1.0072815 3.8425499843554687 1.0626375000000001 Q 3.8455154843554684 1.1179935 3.8474924843554685 1.18076325 Q 3.8494694843554687 1.243533 3.8494694843554687 1.2899925 Q 3.7308494843554687 1.3058085 3.6097582343554686 1.31322225 Q 3.4886669843554685 1.320636 3.3799319843554687 1.3216245 Q 3.2899784843554687 1.322613 3.2064502343554686 1.31915325 Q 3.1229219843554685 1.3156935 3.0566924843554686 1.3097625 M 4.067955168105469 1.3097625 Q 4.070920668105469 1.255395 4.073886168105469 1.16198175 Q 4.076851668105468 1.0685685 4.078828668105468 0.95143125 Q 4.0808056681054685 0.8342940000000001 4.0808056681054685 0.709743 Q 4.0808056681054685 0.585192 4.078828668105468 0.46311225 Q 4.076851668105468 0.34103249999999996 4.073886168105469 0.2372399999999999 Q 4.070920668105469 0.13344749999999994 4.067955168105469 0.06326399999999999 Q 4.096621668105469 0.059309999999999974 4.157908668105469 0.0543674999999999 Q 4.219195668105469 0.04942500000000005 4.285425168105468 0.04942500000000005 Q 4.317057168105468 0.04942500000000005 4.359562668105468 0.05140199999999995 Q 4.402068168105469 0.053379000000000065 4.416895668105469 0.05634450000000002 Q 4.418872668105468 0.10774649999999997 4.418378418105469 0.1868265 Q 4.417884168105469 0.26590650000000005 4.415412918105469 0.363768 Q 4.412941668105469 0.4616295 4.4089876681054685 0.57085875 Q 4.405033668105468 0.680088 4.400091168105469 0.7898115 Q 4.397125668105469 0.848133 4.3936659181054685 0.90299475 Q 4.390206168105468 0.9578565 4.386252168105469 0.996408 Q 4.464343668105469 0.9914655 4.540458168105468 0.9884999999999999 Q 4.616572668105468 0.9855345 4.6931814181054685 0.9835575000000001 Q 4.769790168105469 0.9815805 4.846893168105469 0.9815805 Q 4.850847168105469 1.0072815 4.853812668105468 1.0626375000000001 Q 4.8567781681054685 1.1179935 4.858755168105469 1.18076325 Q 4.860732168105469 1.243533 4.860732168105469 1.2899925 Q 4.742112168105469 1.3058085 4.621020918105469 1.31322225 Q 4.499929668105469 1.320636 4.391194668105468 1.3216245 Q 4.301241168105468 1.322613 4.217712918105469 1.31915325 Q 4.134184668105469 1.3156935 4.067955168105469 1.3097625 M 5.409376851855469 1.3512795 Q 5.370825351855469 1.3512795 5.31794060185547 1.350291 Q 5.265055851855469 1.3493025 5.211182601855469 1.3463370000000001 Q 5.157309351855469 1.3433715 5.113815351855469 1.338429 Q 5.111838351855469 1.2741765 5.109861351855469 1.17384375 Q 5.1078843518554695 1.0735109999999999 5.106401601855469 0.9598335 Q 5.104918851855469 0.846156 5.104918851855469 0.743352 Q 5.104918851855469 0.585192 5.1073901018554695 0.405285 Q 5.109861351855469 0.22537800000000008 5.113815351855469 0.03262049999999994 Q 5.130619851855469 0.031632000000000104 5.1671943518554695 0.031137750000000075 Q 5.203768851855469 0.030643500000000046 5.249734101855469 0.029160749999999958 Q 5.295699351855469 0.02767800000000009 5.338699101855469 0.027183750000000062 Q 5.381698851855469 0.026689500000000033 5.411353851855469 0.026689500000000033 Q 5.417284851855469 0.1324590000000001 5.4212388518554695 0.26145825 Q 5.425192851855469 0.3904575 5.427169851855469 0.5248935 Q 5.429146851855469 0.6593295 5.429146851855469 0.782892 Q 5.429146851855469 0.844179 5.428652601855469 0.9104085 Q 5.428158351855469 0.976638 5.427169851855469 1.041879 Q 5.426181351855469 1.10712 5.423215851855469 1.16643 Q 5.420250351855469 1.22574 5.417284851855469 1.27368225 Q 5.414319351855469 1.3216245 5.409376851855469 1.3512795 M 5.974867544882813 1.348314 Q 5.9501550448828135 1.348314 5.906661044882814 1.34683125 Q 5.863167044882813 1.3453485 5.813247794882813 1.34386575 Q 5.763328544882813 1.342383 5.716374794882813 1.340406 Q 5.669421044882813 1.338429 5.638777544882813 1.336452 Q 5.6496510448828134 1.275165 5.668926794882813 1.180269 Q 5.688202544882813 1.085373 5.713903544882813 0.9697185 Q 5.7396045448828135 0.8540639999999999 5.768271044882813 0.72803025 Q 5.796937544882813 0.6019965 5.827581044882813 0.47744549999999997 Q 5.858224544882813 0.3528945 5.886891044882813 0.2411939999999999 Q 5.915557544882813 0.12949349999999993 5.940270044882813 0.042505500000000085 Q 6.040108544882814 0.029654999999999987 6.137475794882813 0.02125274999999993 Q 6.234843044882814 0.012850500000000098 6.326773544882813 0.012850500000000098 Q 6.379164044882813 0.012850500000000098 6.431554544882813 0.015816000000000052 Q 6.483945044882813 0.018781500000000007 6.535347044882814 0.025700999999999974 Q 6.554128544882813 0.11268900000000004 6.573898544882813 0.22537800000000008 Q 6.593668544882814 0.338067 6.613932794882813 0.49079025 Q 6.634197044882813 0.6435135 6.654461294882813 0.84961575 Q 6.674725544882813 1.055718 6.6954840448828135 1.3295325 Q 6.662863544882813 1.3334865 6.602565044882813 1.338429 Q 6.542266544882813 1.3433715 6.476531294882813 1.34584275 Q 6.410796044882813 1.348314 6.359394044882813 1.348314 Q 6.357417044882813 1.3196475 6.355934294882813 1.283073 Q 6.354451544882814 1.2464985 6.3524745448828135 1.2049815 Q 6.350497544882813 1.1634645 6.349014794882813 1.120959 Q 6.347532044882813 1.0784535 6.346543544882813 1.0389135 Q 6.345555044882813 0.9993735 6.344566544882813 0.9657645 Q 6.312934544882813 0.966753 6.276360044882813 0.9682357500000001 Q 6.239785544882813 0.9697185 6.2027167948828135 0.9721897500000001 Q 6.165648044882813 0.974661 6.133027544882813 0.97713225 Q 6.100407044882814 0.9796035000000001 6.075694544882813 0.982569 Q 6.050982044882813 0.9855345 6.040108544882814 0.9875115000000001 Q 6.025281044882814 1.0547295 6.012430544882813 1.122936 Q 5.999580044882813 1.1911425 5.989695044882813 1.24995825 Q 5.9798100448828135 1.308774 5.974867544882813 1.348314 M 6.080637044882813 0.713697 Q 6.103372544882813 0.709743 6.151809044882813 0.7048005 Q 6.200245544882813 0.699858 6.252636044882813 0.6968925 Q 6.305026544882813 0.693927 6.3376470448828135 0.6929385 Q 6.335670044882813 0.67218 6.333198794882813 0.61435275 Q 6.330727544882813 0.5565255 6.326773544882813 0.48782475000000003 Q 6.3228195448828135 0.41912400000000005 6.319359794882813 0.36129675000000006 Q 6.315900044882813 0.30346950000000006 6.312934544882813 0.2817225000000001 Q 6.297118544882813 0.2817225000000001 6.265486544882814 0.2836995 Q 6.2338545448828135 0.2856765000000001 6.2041995448828136 0.2876535 Q 6.174544544882814 0.2896304999999999 6.162682544882813 0.2916075 Q 6.156751544882813 0.32027399999999995 6.146372294882813 0.37118175 Q 6.135993044882813 0.4220895 6.124131044882813 0.48436500000000005 Q 6.112269044882813 0.5466405 6.100901294882814 0.60644475 Q 6.089533544882813 0.666249 6.080637044882813 0.713697 M 7.2778564644726575 1.3394175 Q 7.2175579644726575 1.340406 7.150834214472657 1.33694625 Q 7.084110464472658 1.3334865 7.027765964472657 1.328544 Q 6.971421464472657 1.3236015 6.940777964472657 1.3196475 Q 6.940777964472657 1.3097625 6.940777964472657 1.26528 Q 6.940777964472657 1.2207975 6.940777964472657 1.1516025 Q 6.940777964472657 1.0824075 6.940777964472657 0.99789075 Q 6.940777964472657 0.913374 6.941272214472657 0.822432 Q 6.941766464472657 0.73149 6.941766464472657 0.644502 Q 6.941766464472657 0.5367555 6.940777964472657 0.43049175000000006 Q 6.939789464472657 0.32422799999999996 6.937812464472657 0.23279175000000008 Q 6.935835464472657 0.14135549999999997 6.931881464472657 0.08105699999999993 Q 6.951651464472657 0.08105699999999993 6.992179964472657 0.08303400000000005 Q 7.032708464472657 0.08501099999999995 7.081639214472657 0.0879764999999999 Q 7.130569964472657 0.09094200000000008 7.177029464472657 0.0953902499999999 Q 7.223488964472657 0.09983849999999994 7.256109464472657 0.10478100000000001 Q 7.320361964472657 0.1977 7.380166214472657 0.29407874999999994 Q 7.439970464472657 0.3904575 7.493843714472657 0.48782475000000003 Q 7.547716964472658 0.585192 7.595659214472657 0.682065 Q 7.643601464472657 0.778938 7.685118464472657 0.8728454999999999 L 7.644589964472657 0.0988500000000001 Q 7.674244964472657 0.0988500000000001 7.717244714472657 0.10181550000000006 Q 7.760244464472657 0.10478100000000001 7.806209714472657 0.10873500000000003 Q 7.852174964472657 0.11268900000000004 7.891220714472658 0.11861999999999995 Q 7.930266464472657 0.12455100000000008 7.950036464472657 0.130482 Q 7.953001964472657 0.17298750000000007 7.956461714472657 0.22784925 Q 7.959921464472657 0.28271099999999993 7.961898464472657 0.34548075 Q 7.9638754644726575 0.40825049999999996 7.965852464472658 0.47497425000000004 Q 7.967829464472658 0.541698 7.968817964472657 0.60842175 Q 7.969806464472657 0.6751455000000001 7.969806464472657 0.7364325 Q 7.969806464472657 0.836271 7.967335214472657 0.93363825 Q 7.9648639644726575 1.0310055 7.960415714472657 1.11453375 Q 7.955967464472657 1.198062 7.951024964472657 1.25490075 Q 7.946082464472657 1.3117395 7.940151464472657 1.330521 Q 7.912473464472657 1.3315095000000001 7.881335714472657 1.33200375 Q 7.850197964472657 1.332498 7.818565964472657 1.332498 Q 7.772106464472657 1.332498 7.728118214472657 1.330521 Q 7.684129964472657 1.328544 7.654474964472657 1.3236015 Q 7.644589964472657 1.3058085 7.6213602144726575 1.26280875 Q 7.598130464472657 1.219809 7.564521464472657 1.15802775 Q 7.5309124644726575 1.0962465 7.491372464472657 1.0230975 Q 7.451832464472657 0.9499485000000001 7.410315464472657 0.87333975 Q 7.368798464472658 0.796731 7.328269964472657 0.7235820000000001 Q 7.287741464472657 0.650433 7.254132464472657 0.5891460000000001 Q 7.257097964472657 0.616824 7.260063464472657 0.6731685000000001 Q 7.263028964472658 0.729513 7.265500214472657 0.8036505 Q 7.267971464472657 0.877788 7.269948464472657 0.9573622500000001 Q 7.271925464472657 1.0369365 7.273902464472657 1.11255675 Q 7.275879464472657 1.188177 7.2768679644726575 1.24798125 Q 7.2778564644726575 1.3077855 7.2778564644726575 1.3394175 M 8.164597108183594 0.3084119999999999 Q 8.159654608183594 0.28666499999999995 8.156194858183595 0.24663075 Q 8.152735108183595 0.20659650000000007 8.150263858183594 0.1626082499999999 Q 8.147792608183595 0.11861999999999995 8.146309858183594 0.08352825000000008 Q 8.144827108183595 0.04843649999999999 8.144827108183595 0.035585999999999895 Q 8.255539108183594 0.02767800000000009 8.397388858183595 0.02125274999999993 Q 8.539238608183595 0.014827499999999993 8.684548108183595 0.014827499999999993 Q 8.794271608183594 0.014827499999999993 8.898558358183594 0.019275750000000036 Q 9.002845108183594 0.02372400000000008 9.088844608183594 0.036574499999999954 Q 9.089833108183594 0.11861999999999995 9.083902108183594 0.18929774999999993 Q 9.077971108183595 0.2599754999999999 9.070063108183595 0.29556150000000003 Q 9.051281608183595 0.29556150000000003 9.015695608183595 0.29506725 Q 8.980109608183595 0.294573 8.937109858183595 0.29407874999999994 Q 8.894110108183595 0.2935844999999999 8.852593108183594 0.2930902500000001 Q 8.811076108183595 0.2925960000000001 8.780432608183595 0.2916075 Q 8.781421108183595 0.328182 8.784386608183596 0.39984825 Q 8.787352108183594 0.47151450000000006 8.791306108183594 0.563445 Q 8.795260108183594 0.6553755 8.800202608183595 0.7562025 Q 8.805145108183595 0.8570295 8.809593358183594 0.9539025 Q 8.814041608183594 1.0507755 8.817501358183595 1.13133825 Q 8.820961108183594 1.2119010000000001 8.823432358183595 1.26379725 Q 8.825903608183594 1.3156935 8.825903608183594 1.3255785 Q 8.786363608183594 1.3315095000000001 8.723099608183595 1.336452 Q 8.659835608183595 1.3413945 8.597065858183594 1.34436 Q 8.534296108183595 1.3473255 8.494756108183594 1.3473255 Q 8.491790608183594 1.289004 8.488825108183594 1.20646425 Q 8.485859608183594 1.1239245 8.483882608183595 1.02754575 Q 8.481905608183595 0.9311670000000001 8.479928608183595 0.82984575 Q 8.477951608183595 0.7285245 8.476963108183595 0.6316515 Q 8.475974608183595 0.5347785 8.475974608183595 0.4537215 Q 8.475974608183595 0.40825049999999996 8.475974608183595 0.36871050000000005 Q 8.475974608183595 0.32917050000000003 8.476963108183595 0.29753849999999993 Q 8.443354108183595 0.29951550000000005 8.403814108183594 0.3009982499999999 Q 8.364274108183595 0.302481 8.322757108183595 0.3044579999999999 Q 8.281240108183594 0.306435 8.240711608183595 0.30742350000000007 Q 8.200183108183595 0.3084119999999999 8.164597108183594 0.3084119999999999 M 9.973661499609374 1.310751 Q 9.973661499609374 1.2721995 9.974649999609374 1.1871885 Q 9.975638499609374 1.1021775 9.978109749609375 0.98998275 Q 9.980580999609375 0.877788 9.983546499609375 0.753237 Q 9.986511999609375 0.628686 9.988983249609374 0.5090775 Q 9.991454499609375 0.38946899999999995 9.993925749609375 0.29061899999999996 Q 9.996396999609376 0.19176900000000008 9.997385499609376 0.130482 Q 9.998373999609376 0.0691949999999999 9.998373999609376 0.06326399999999999 Q 10.053729999609375 0.059309999999999974 10.129350249609375 0.0543674999999999 Q 10.204970499609376 0.04942500000000005 10.288498749609374 0.04596525000000007 Q 10.372026999609375 0.042505500000000085 10.451106999609376 0.042505500000000085 Q 10.566761499609376 0.042505500000000085 10.656220749609375 0.07216050000000007 Q 10.745679999609376 0.10181550000000006 10.797081999609375 0.168045 Q 10.848483999609375 0.23427449999999994 10.848483999609375 0.342021 Q 10.848483999609375 0.42110100000000006 10.811909499609374 0.48041100000000003 Q 10.775334999609376 0.539721 10.722944499609374 0.5762955 Q 10.670553999609375 0.61287 10.622117499609375 0.6227550000000001 Q 10.627059999609376 0.6227550000000001 10.632496749609375 0.6227550000000001 Q 10.637933499609375 0.6227550000000001 10.646829999609375 0.6227550000000001 Q 10.734806499609375 0.628686 10.801530249609375 0.6657547500000001 Q 10.868253999609376 0.7028235 10.905816999609375 0.765099 Q 10.943379999609375 0.8273745 10.943379999609375 0.9084315000000001 Q 10.943379999609375 1.0408905 10.891977999609376 1.12343025 Q 10.840575999609374 1.20597 10.745679999609376 1.251441 Q 10.650783999609375 1.296912 10.519807749609376 1.3137165 Q 10.388831499609376 1.330521 10.231659999609375 1.330521 Q 10.157522499609374 1.330521 10.089315999609376 1.3255785 Q 10.021109499609375 1.320636 9.973661499609374 1.310751 M 10.298877999609376 1.0369365 Q 10.307774499609375 1.037925 10.320624999609375 1.037925 Q 10.333475499609374 1.037925 10.349291499609375 1.037925 Q 10.402670499609375 1.037925 10.456049499609374 1.0310055 Q 10.509428499609376 1.024086 10.553416749609376 1.00827 Q 10.597404999609376 0.992454 10.624094499609376 0.96428175 Q 10.650783999609375 0.9361095 10.650783999609375 0.8936040000000001 Q 10.650783999609375 0.8639490000000001 10.638427749609376 0.8412135000000001 Q 10.626071499609376 0.818478 10.600370499609376 0.80315625 Q 10.574669499609374 0.7878345 10.533646749609375 0.78042075 Q 10.492623999609375 0.773007 10.435290999609375 0.773007 Q 10.418486499609376 0.773007 10.393773999609374 0.77350125 Q 10.369061499609375 0.7739955000000001 10.342866249609376 0.77547825 Q 10.316670999609375 0.776961 10.293935499609375 0.7799265 L 10.298877999609376 1.0369365 M 10.289981499609375 0.529836 Q 10.342371999609375 0.529836 10.374003999609375 0.5268705 Q 10.405635999609375 0.523905 10.429359999609375 0.515997 Q 10.486692999609375 0.5071005 10.534635249609375 0.47398575 Q 10.582577499609375 0.440871 10.582577499609375 0.3845265 Q 10.582577499609375 0.3262050000000001 10.542048999609374 0.2970442499999999 Q 10.501520499609375 0.26788349999999994 10.438256499609375 0.26788349999999994 Q 10.401681999609375 0.26788349999999994 10.358682249609375 0.27233175 Q 10.315682499609375 0.27678 10.284050499609375 0.2817225000000001 L 10.289981499609375 0.529836 M 11.181707117929689 1.358199 Q 11.175776117929688 1.247487 11.167373867929689 1.08685575 Q 11.158971617929687 0.9262245 11.149580867929687 0.74285775 Q 11.140190117929688 0.559491 11.131293617929687 0.37810125000000006 Q 11.122397117929689 0.19671149999999993 11.115477617929688 0.04547100000000004 Q 11.154029117929689 0.041517000000000026 11.214327617929689 0.03756300000000001 Q 11.274626117929689 0.033609 11.344809617929688 0.029654999999999987 Q 11.414993117929688 0.025700999999999974 11.482211117929689 0.02273550000000002 Q 11.549429117929687 0.019770000000000065 11.601819617929689 0.019770000000000065 Q 11.677934117929688 0.019770000000000065 11.754542867929688 0.03410325000000003 Q 11.831151617929688 0.04843649999999999 11.894909867929687 0.08402250000000011 Q 11.958668117929689 0.1196085 11.997219617929687 0.18534374999999992 Q 12.035771117929688 0.25107900000000005 12.035771117929688 0.3548715 Q 12.035771117929688 0.45668699999999995 11.983874867929687 0.5466405 Q 11.931978617929689 0.636594 11.845979117929687 0.6771225 Q 11.868714617929689 0.719628 11.896392617929688 0.7799265 Q 11.924070617929688 0.840225 11.952242867929687 0.90942 Q 11.980415117929688 0.978615 12.006116117929688 1.04632725 Q 12.031817117929688 1.1140395 12.052081367929688 1.170384 Q 12.072345617929688 1.2267285 12.082230617929689 1.2623145 Q 12.053564117929689 1.2801075 12.005621867929689 1.2959235 Q 11.957679617929688 1.3117395 11.907266117929687 1.3240957500000001 Q 11.856852617929688 1.336452 11.819783867929688 1.34436 Q 11.782715117929689 1.352268 11.774807117929688 1.352268 Q 11.766899117929688 1.3127280000000001 11.750094617929689 1.2484755 Q 11.733290117929688 1.184223 11.711543117929688 1.109097 Q 11.689796117929689 1.033971 11.667554867929688 0.9613162500000001 Q 11.645313617929688 0.8886615 11.626532117929688 0.8313285 Q 11.607750617929687 0.7739955000000001 11.596877117929688 0.7463175 Q 11.574141617929689 0.75126 11.550911867929688 0.755214 Q 11.527682117929688 0.7591680000000001 11.507417867929687 0.761145 Q 11.487153617929687 0.763122 11.470349117929688 0.7641105 Q 11.474303117929688 0.786846 11.478751367929688 0.83874225 Q 11.483199617929689 0.8906385 11.488142117929687 0.958845 Q 11.493084617929687 1.0270515 11.497532867929689 1.09871775 Q 11.501981117929688 1.170384 11.505440867929687 1.233648 Q 11.508900617929688 1.296912 11.509889117929688 1.3374405 Q 11.470349117929688 1.3463370000000001 11.413510367929687 1.35078525 Q 11.356671617929688 1.3552335 11.295878867929687 1.35671625 Q 11.235086117929688 1.358199 11.181707117929689 1.358199 M 11.443659617929688 0.5268705 Q 11.474303117929688 0.5268705 11.506429367929687 0.52439925 Q 11.538555617929688 0.5219280000000001 11.583038117929688 0.51402 Q 11.647290617929688 0.5031465 11.685842117929688 0.48387075 Q 11.724393617929689 0.464595 11.741692367929687 0.43444574999999996 Q 11.758991117929687 0.40429650000000006 11.758991117929687 0.363768 Q 11.758991117929687 0.30940049999999997 11.734278617929688 0.2851822500000001 Q 11.709566117929688 0.260964 11.666566367929688 0.2540445 Q 11.623566617929688 0.24712500000000004 11.566233617929688 0.24712500000000004 Q 11.550417617929687 0.24712500000000004 11.528670617929688 0.2486077499999999 Q 11.506923617929688 0.2500905 11.485176617929689 0.2520675000000001 Q 11.463429617929688 0.2540445 11.445636617929688 0.2555272500000001 Q 11.427843617929687 0.25700999999999996 11.419935617929688 0.2579985 Q 11.420924117929689 0.2748029999999999 11.423889617929689 0.302481 Q 11.426855117929687 0.3301590000000001 11.429820617929687 0.36327375000000006 Q 11.432786117929687 0.39638850000000003 11.435257367929688 0.42851475000000006 Q 11.437728617929688 0.46064099999999997 11.440199867929689 0.48683624999999997 Q 11.442671117929688 0.5130315 11.443659617929688 0.5268705 M 12.553828290937501 1.348314 Q 12.529115790937501 1.348314 12.4856217909375 1.34683125 Q 12.442127790937501 1.3453485 12.392208540937501 1.34386575 Q 12.3422892909375 1.342383 12.2953355409375 1.340406 Q 12.2483817909375 1.338429 12.2177382909375 1.336452 Q 12.228611790937501 1.275165 12.247887540937501 1.180269 Q 12.267163290937502 1.085373 12.292864290937501 0.9697185 Q 12.318565290937501 0.8540639999999999 12.347231790937501 0.72803025 Q 12.375898290937501 0.6019965 12.406541790937501 0.47744549999999997 Q 12.437185290937501 0.3528945 12.465851790937501 0.2411939999999999 Q 12.494518290937501 0.12949349999999993 12.5192307909375 0.042505500000000085 Q 12.619069290937501 0.029654999999999987 12.7164365409375 0.02125274999999993 Q 12.8138037909375 0.012850500000000098 12.9057342909375 0.012850500000000098 Q 12.9581247909375 0.012850500000000098 13.010515290937501 0.015816000000000052 Q 13.062905790937501 0.018781500000000007 13.1143077909375 0.025700999999999974 Q 13.133089290937502 0.11268900000000004 13.152859290937501 0.22537800000000008 Q 13.1726292909375 0.338067 13.1928935409375 0.49079025 Q 13.213157790937501 0.6435135 13.233422040937501 0.84961575 Q 13.253686290937502 1.055718 13.274444790937501 1.3295325 Q 13.241824290937501 1.3334865 13.181525790937501 1.338429 Q 13.121227290937501 1.3433715 13.055492040937501 1.34584275 Q 12.9897567909375 1.348314 12.9383547909375 1.348314 Q 12.9363777909375 1.3196475 12.934895040937501 1.283073 Q 12.9334122909375 1.2464985 12.9314352909375 1.2049815 Q 12.9294582909375 1.1634645 12.927975540937501 1.120959 Q 12.926492790937502 1.0784535 12.925504290937502 1.0389135 Q 12.924515790937502 0.9993735 12.923527290937502 0.9657645 Q 12.891895290937502 0.966753 12.855320790937501 0.9682357500000001 Q 12.8187462909375 0.9697185 12.781677540937501 0.9721897500000001 Q 12.744608790937502 0.974661 12.711988290937501 0.97713225 Q 12.679367790937501 0.9796035000000001 12.654655290937502 0.982569 Q 12.6299427909375 0.9855345 12.619069290937501 0.9875115000000001 Q 12.6042417909375 1.0547295 12.591391290937501 1.122936 Q 12.5785407909375 1.1911425 12.568655790937502 1.24995825 Q 12.558770790937501 1.308774 12.553828290937501 1.348314 M 12.6595977909375 0.713697 Q 12.682333290937502 0.709743 12.7307697909375 0.7048005 Q 12.7792062909375 0.699858 12.831596790937501 0.6968925 Q 12.883987290937501 0.693927 12.916607790937501 0.6929385 Q 12.914630790937501 0.67218 12.912159540937502 0.61435275 Q 12.9096882909375 0.5565255 12.9057342909375 0.48782475000000003 Q 12.9017802909375 0.41912400000000005 12.898320540937501 0.36129675000000006 Q 12.894860790937502 0.30346950000000006 12.891895290937502 0.2817225000000001 Q 12.8760792909375 0.2817225000000001 12.8444472909375 0.2836995 Q 12.8128152909375 0.2856765000000001 12.7831602909375 0.2876535 Q 12.7535052909375 0.2896304999999999 12.741643290937501 0.2916075 Q 12.735712290937501 0.32027399999999995 12.725333040937501 0.37118175 Q 12.714953790937502 0.4220895 12.703091790937501 0.48436500000000005 Q 12.6912297909375 0.5466405 12.6798620409375 0.60644475 Q 12.6684942909375 0.666249 12.6595977909375 0.713697 M 13.829139210527345 1.3512795 Q 13.790587710527344 1.3512795 13.737702960527344 1.350291 Q 13.684818210527345 1.3493025 13.630944960527344 1.3463370000000001 Q 13.577071710527344 1.3433715 13.533577710527345 1.338429 Q 13.531600710527345 1.2741765 13.529623710527344 1.17384375 Q 13.527646710527344 1.0735109999999999 13.526163960527343 0.9598335 Q 13.524681210527344 0.846156 13.524681210527344 0.743352 Q 13.524681210527344 0.585192 13.527152460527343 0.405285 Q 13.529623710527344 0.22537800000000008 13.533577710527345 0.03262049999999994 Q 13.550382210527344 0.031632000000000104 13.586956710527344 0.031137750000000075 Q 13.623531210527345 0.030643500000000046 13.669496460527345 0.029160749999999958 Q 13.715461710527343 0.02767800000000009 13.758461460527345 0.027183750000000062 Q 13.801461210527345 0.026689500000000033 13.831116210527345 0.026689500000000033 Q 13.837047210527343 0.1324590000000001 13.841001210527343 0.26145825 Q 13.844955210527344 0.3904575 13.846932210527344 0.5248935 Q 13.848909210527344 0.6593295 13.848909210527344 0.782892 Q 13.848909210527344 0.844179 13.848414960527345 0.9104085 Q 13.847920710527344 0.976638 13.846932210527344 1.041879 Q 13.845943710527344 1.10712 13.842978210527344 1.16643 Q 13.840012710527343 1.22574 13.837047210527343 1.27368225 Q 13.834081710527345 1.3216245 13.829139210527345 1.3512795 M 14.490514403554688 1.3394175 Q 14.430215903554688 1.340406 14.363492153554688 1.33694625 Q 14.296768403554687 1.3334865 14.240423903554687 1.328544 Q 14.184079403554687 1.3236015 14.153435903554687 1.3196475 Q 14.153435903554687 1.3097625 14.153435903554687 1.26528 Q 14.153435903554687 1.2207975 14.153435903554687 1.1516025 Q 14.153435903554687 1.0824075 14.153435903554687 0.99789075 Q 14.153435903554687 0.913374 14.153930153554688 0.822432 Q 14.154424403554687 0.73149 14.154424403554687 0.644502 Q 14.154424403554687 0.5367555 14.153435903554687 0.43049175000000006 Q 14.152447403554687 0.32422799999999996 14.150470403554687 0.23279175000000008 Q 14.148493403554687 0.14135549999999997 14.144539403554687 0.08105699999999993 Q 14.164309403554688 0.08105699999999993 14.204837903554687 0.08303400000000005 Q 14.245366403554687 0.08501099999999995 14.294297153554687 0.0879764999999999 Q 14.343227903554688 0.09094200000000008 14.389687403554687 0.0953902499999999 Q 14.436146903554688 0.09983849999999994 14.468767403554686 0.10478100000000001 Q 14.533019903554687 0.1977 14.592824153554687 0.29407874999999994 Q 14.652628403554687 0.3904575 14.706501653554687 0.48782475000000003 Q 14.760374903554688 0.585192 14.808317153554688 0.682065 Q 14.856259403554688 0.778938 14.897776403554687 0.8728454999999999 L 14.857247903554686 0.0988500000000001 Q 14.886902903554688 0.0988500000000001 14.929902653554688 0.10181550000000006 Q 14.972902403554688 0.10478100000000001 15.018867653554688 0.10873500000000003 Q 15.064832903554688 0.11268900000000004 15.103878653554688 0.11861999999999995 Q 15.142924403554687 0.12455100000000008 15.162694403554687 0.130482 Q 15.165659903554687 0.17298750000000007 15.169119653554688 0.22784925 Q 15.172579403554687 0.28271099999999993 15.174556403554687 0.34548075 Q 15.176533403554687 0.40825049999999996 15.178510403554688 0.47497425000000004 Q 15.180487403554688 0.541698 15.181475903554688 0.60842175 Q 15.182464403554688 0.6751455000000001 15.182464403554688 0.7364325 Q 15.182464403554688 0.836271 15.179993153554687 0.93363825 Q 15.177521903554688 1.0310055 15.173073653554688 1.11453375 Q 15.168625403554687 1.198062 15.163682903554687 1.25490075 Q 15.158740403554686 1.3117395 15.152809403554688 1.330521 Q 15.125131403554686 1.3315095000000001 15.093993653554687 1.33200375 Q 15.062855903554688 1.332498 15.031223903554688 1.332498 Q 14.984764403554687 1.332498 14.940776153554687 1.330521 Q 14.896787903554687 1.328544 14.867132903554687 1.3236015 Q 14.857247903554686 1.3058085 14.834018153554688 1.26280875 Q 14.810788403554687 1.219809 14.777179403554687 1.15802775 Q 14.743570403554687 1.0962465 14.704030403554688 1.0230975 Q 14.664490403554687 0.9499485000000001 14.622973403554687 0.87333975 Q 14.581456403554688 0.796731 14.540927903554687 0.7235820000000001 Q 14.500399403554686 0.650433 14.466790403554688 0.5891460000000001 Q 14.469755903554686 0.616824 14.472721403554687 0.6731685000000001 Q 14.475686903554687 0.729513 14.478158153554688 0.8036505 Q 14.480629403554687 0.877788 14.482606403554687 0.9573622500000001 Q 14.484583403554687 1.0369365 14.486560403554687 1.11255675 Q 14.488537403554687 1.188177 14.489525903554688 1.24798125 Q 14.490514403554688 1.3077855 14.490514403554688 1.3394175 M 15.917979992578125 1.3493025 Q 15.843842492578124 1.3493025 15.767233742578124 1.3315095000000001 Q 15.690624992578124 1.3137165 15.618958742578124 1.2791190000000001 Q 15.547292492578125 1.2445215 15.487982492578125 1.19361375 Q 15.428672492578125 1.142706 15.388143992578124 1.0764765 Q 15.394074992578124 1.0665915 15.419775992578124 1.04237325 Q 15.445476992578124 1.0181550000000001 15.479085992578124 0.98899425 Q 15.512694992578124 0.9598335 15.545809742578124 0.9351210000000001 Q 15.578924492578125 0.9104085 15.600671492578124 0.899535 Q 15.632303492578124 0.9361095 15.668383742578124 0.972684 Q 15.704463992578125 1.0092585 15.745486742578125 1.03841925 Q 15.786509492578125 1.06758 15.833957492578124 1.085373 Q 15.881405492578125 1.103166 15.934784492578125 1.103166 Q 15.996071492578125 1.103166 16.032151742578126 1.0804305 Q 16.068231992578124 1.057695 16.084047992578125 1.02260325 Q 16.099863992578126 0.9875115000000001 16.099863992578126 0.950937 Q 16.099863992578126 0.9212819999999999 16.085036492578123 0.8945925 Q 16.070208992578124 0.8679030000000001 16.040553992578126 0.84368475 Q 16.010898992578124 0.8194665 15.966910742578124 0.79623675 Q 15.922922492578124 0.773007 15.863612492578124 0.7522485 Q 15.744992492578124 0.7067775000000001 15.649107992578124 0.65586975 Q 15.553223492578125 0.604962 15.496384742578124 0.5328015 Q 15.439545992578124 0.46064099999999997 15.439545992578124 0.35190600000000005 Q 15.439545992578124 0.23625150000000006 15.503798492578124 0.15816000000000008 Q 15.568050992578124 0.0800685000000001 15.673820492578125 0.04003424999999994 Q 15.779589992578124 0 15.901175492578124 0 Q 15.993105992578124 0 16.079599742578125 0.020264250000000095 Q 16.166093492578124 0.04052849999999997 16.241219492578125 0.08105699999999993 Q 16.316345492578126 0.1215854999999999 16.370712992578124 0.1828725 Q 16.355885492578125 0.20461949999999995 16.324253492578123 0.2411939999999999 Q 16.292621492578125 0.2777685000000001 16.257035492578126 0.31434300000000004 Q 16.221449492578124 0.3509175 16.196736992578124 0.37266449999999995 Q 16.157196992578125 0.334113 16.108760492578124 0.30297525000000003 Q 16.060323992578123 0.27183749999999995 16.006944992578124 0.25355025 Q 15.953565992578124 0.235263 15.899198492578124 0.235263 Q 15.835934492578124 0.235263 15.792440492578125 0.26244675000000006 Q 15.748946492578124 0.2896304999999999 15.748946492578124 0.343998 Q 15.748946492578124 0.36871050000000005 15.760314242578124 0.3884805 Q 15.771681992578124 0.40825049999999996 15.792440492578125 0.4240665 Q 15.813198992578124 0.43988249999999995 15.841865492578124 0.45322724999999997 Q 15.870531992578124 0.466572 15.906117992578125 0.478434 Q 16.006944992578124 0.512043 16.098381242578125 0.5486175 Q 16.189817492578126 0.585192 16.260495242578124 0.63313425 Q 16.331172992578125 0.6810765 16.371701492578126 0.7502715 Q 16.412229992578123 0.8194665 16.412229992578123 0.919305 Q 16.412229992578123 1.0132125 16.375655492578126 1.09179825 Q 16.339080992578126 1.170384 16.273345742578126 1.22821125 Q 16.207610492578123 1.2860385 16.117162742578124 1.3176705 Q 16.026714992578125 1.3493025 15.917979992578125 1.3493025" fill="#004a80" fill-rule="nonzero"></path></g><g><path d=" M 0.0096675 2.1319928399999997 L 0.09957525 2.1319928399999997 L 0.201084 2.59023234 Q 0.2068845 2.61440109 0.21316837500000002 2.65500459 Q 0.21945225000000002 2.69560809 0.22138575000000002 2.70817584 L 0.22525275 2.70817584 Q 0.22621950000000002 2.6975415899999997 0.230569875 2.665155465 Q 0.23492025000000002 2.63276934 0.2416875 2.59023234 L 0.31806075 2.1319928399999997 L 0.43600425000000004 2.1319928399999997 L 0.518178 2.59023234 Q 0.5239785 2.6202015899999997 0.529295625 2.658388215 Q 0.5346127500000001 2.69657484 0.5355795 2.70817584 L 0.5394465 2.70817584 Q 0.5413800000000001 2.69560809 0.547663875 2.6564547149999997 Q 0.5539477500000001 2.61730134 0.5597482500000001 2.59023234 L 0.661257 2.1319928399999997 L 0.7385970000000001 2.1319928399999997 L 0.58488375 2.79518334 L 0.47467425 2.79518334 L 0.39346725000000005 2.34564459 Q 0.3886335 2.31760884 0.38283300000000003 2.27217159 Q 0.37703250000000005 2.22673434 0.375099 2.21223309 L 0.371232 2.21223309 Q 0.36929850000000003 2.22673434 0.36349800000000004 2.27217159 Q 0.3576975 2.31760884 0.35286375000000003 2.34564459 L 0.27359025000000003 2.79518334 L 0.16338075000000002 2.79518334 L 0.0096675 2.1319928399999997 M 1.2283494722607424 2.1319928399999997 L 1.6372847222607425 2.1319928399999997 L 1.6372847222607425 2.20933284 L 1.3134234722607423 2.20933284 L 1.3134234722607423 2.41718409 L 1.5947477222607425 2.41718409 L 1.5947477222607425 2.49452409 L 1.3134234722607423 2.49452409 L 1.3134234722607423 2.71784334 L 1.6430852222607424 2.71784334 L 1.6430852222607424 2.79518334 L 1.2283494722607424 2.79518334 L 1.2283494722607424 2.1319928399999997 M 3.029641009555664 2.45005359 L 3.288730009555664 2.45005359 L 3.288730009555664 2.79518334 L 3.232658509555664 2.79518334 L 3.214290259555664 2.72171034 Q 3.156285259555664 2.80678434 3.043175509555664 2.80678434 Q 2.916531259555664 2.80678434 2.849342134555664 2.72074359 Q 2.782153009555664 2.63470284 2.782153009555664 2.46358809 Q 2.782153009555664 2.2944068399999997 2.851759009555664 2.20739934 Q 2.921365009555664 2.12039184 3.048009259555664 2.12039184 Q 3.156285259555664 2.12039184 3.2225076345556642 2.1812970899999997 Q 3.288730009555664 2.24220234 3.288730009555664 2.3582123399999997 L 3.201722509555664 2.3582123399999997 Q 3.201722509555664 2.27797209 3.160635634555664 2.23833534 Q 3.119548759555664 2.19869859 3.048009259555664 2.19869859 Q 2.9639020095556643 2.19869859 2.917498009555664 2.25960384 Q 2.871094009555664 2.32050909 2.871094009555664 2.4394193399999997 L 2.871094009555664 2.48775684 Q 2.871094009555664 2.60763384 2.915081134555664 2.668055715 Q 2.9590682595556643 2.72847759 3.043175509555664 2.72847759 Q 3.125349259555664 2.72847759 3.1635358845556643 2.68207359 Q 3.201722509555664 2.63566959 3.201722509555664 2.53996134 L 3.201722509555664 2.52449334 L 3.029641009555664 2.52449334 L 3.029641009555664 2.45005359 M 3.8891885741015626 2.748295965 Q 3.8316669491015625 2.68980759 3.8316669491015625 2.5795980899999997 L 3.8316669491015625 2.1319928399999997 L 3.9167409491015626 2.1319928399999997 L 3.9167409491015626 2.5844318399999997 Q 3.9167409491015626 2.65403784 3.9520273241015627 2.691257715 Q 3.9873136991015623 2.72847759 4.050152449101563 2.72847759 Q 4.112991199101563 2.72847759 4.148277574101562 2.691257715 Q 4.183563949101562 2.65403784 4.183563949101562 2.5844318399999997 L 4.183563949101562 2.1319928399999997 L 4.268637949101563 2.1319928399999997 L 4.268637949101563 2.5795980899999997 Q 4.268637949101563 2.68980759 4.211116324101562 2.748295965 Q 4.153594699101562 2.80678434 4.050152449101563 2.80678434 Q 3.9467101991015623 2.80678434 3.8891885741015626 2.748295965 M 4.816388812719726 2.1319928399999997 L 4.901462812719727 2.1319928399999997 L 4.901462812719727 2.79518334 L 4.816388812719726 2.79518334 L 4.816388812719726 2.1319928399999997 M 5.449259464790039 2.1319928399999997 L 5.655177214790039 2.1319928399999997 Q 5.774087464790039 2.1319928399999997 5.84030983979004 2.2141665899999996 Q 5.906532214790039 2.29634034 5.906532214790039 2.45392059 Q 5.906532214790039 2.62213509 5.84079321479004 2.708659215 Q 5.775054214790039 2.79518334 5.655177214790039 2.79518334 L 5.449259464790039 2.79518334 L 5.449259464790039 2.1319928399999997 M 5.647443214790039 2.71784334 Q 5.727683464790039 2.71784334 5.772637339790039 2.657421465 Q 5.817591214790039 2.59699959 5.817591214790039 2.47808934 L 5.817591214790039 2.4297518399999998 Q 5.817591214790039 2.3214758399999997 5.772637339790039 2.26540434 Q 5.727683464790039 2.20933284 5.647443214790039 2.20933284 L 5.5343334647900395 2.20933284 L 5.5343334647900395 2.71784334 L 5.647443214790039 2.71784334 M 6.433981328408203 2.1319928399999997 L 6.842916578408204 2.1319928399999997 L 6.842916578408204 2.20933284 L 6.519055328408204 2.20933284 L 6.519055328408204 2.41718409 L 6.8003795784082035 2.41718409 L 6.8003795784082035 2.49452409 L 6.519055328408204 2.49452409 L 6.519055328408204 2.71784334 L 6.848717078408203 2.71784334 L 6.848717078408203 2.79518334 L 6.433981328408203 2.79518334 L 6.433981328408203 2.1319928399999997 M 7.369415463632813 2.69077434 L 7.466090463632813 2.69077434 L 7.466090463632813 2.79518334 L 7.369415463632813 2.79518334 L 7.369415463632813 2.69077434 M 8.782124953930664 2.5206263399999997 L 8.567506453930664 2.1319928399999997 L 8.661281203930665 2.1319928399999997 L 8.829495703930665 2.4394193399999997 L 8.833362703930664 2.4394193399999997 L 8.998676953930664 2.1319928399999997 L 9.080850703930665 2.1319928399999997 L 8.867198953930664 2.5206263399999997 L 8.867198953930664 2.79518334 L 8.782124953930664 2.79518334 L 8.782124953930664 2.5206263399999997 M 9.617017089155272 2.7197768399999998 Q 9.548377839155274 2.63276934 9.548377839155274 2.46358809 Q 9.548377839155274 2.2944068399999997 9.617017089155272 2.20739934 Q 9.685656339155273 2.12039184 9.809400339155273 2.12039184 Q 9.933144339155273 2.12039184 10.001783589155274 2.20739934 Q 10.070422839155272 2.2944068399999997 10.070422839155272 2.46358809 Q 10.070422839155272 2.63276934 10.001783589155274 2.7197768399999998 Q 9.933144339155273 2.80678434 9.809400339155273 2.80678434 Q 9.685656339155273 2.80678434 9.617017089155272 2.7197768399999998 M 9.936044589155273 2.66757234 Q 9.981481839155274 2.6066670899999997 9.981481839155274 2.48775684 L 9.981481839155274 2.4394193399999997 Q 9.981481839155274 2.32050909 9.936044589155273 2.25960384 Q 9.890607339155274 2.19869859 9.809400339155273 2.19869859 Q 9.728193339155274 2.19869859 9.682756089155273 2.25960384 Q 9.637318839155274 2.32050909 9.637318839155274 2.4394193399999997 L 9.637318839155274 2.48775684 Q 9.637318839155274 2.6066670899999997 9.682756089155273 2.66757234 Q 9.728193339155274 2.72847759 9.809400339155273 2.72847759 Q 9.890607339155274 2.72847759 9.936044589155273 2.66757234 M 10.655413403701171 2.748295965 Q 10.597891778701172 2.68980759 10.597891778701172 2.5795980899999997 L 10.597891778701172 2.1319928399999997 L 10.68296577870117 2.1319928399999997 L 10.68296577870117 2.5844318399999997 Q 10.68296577870117 2.65403784 10.71825215370117 2.691257715 Q 10.75353852870117 2.72847759 10.816377278701172 2.72847759 Q 10.87921602870117 2.72847759 10.91450240370117 2.691257715 Q 10.949788778701171 2.65403784 10.949788778701171 2.5844318399999997 L 10.949788778701171 2.1319928399999997 L 11.034862778701171 2.1319928399999997 L 11.034862778701171 2.5795980899999997 Q 11.034862778701171 2.68980759 10.977341153701172 2.748295965 Q 10.919819528701172 2.80678434 10.816377278701172 2.80678434 Q 10.712935028701171 2.80678434 10.655413403701171 2.748295965 M 12.442670544389648 2.45005359 L 12.701759544389649 2.45005359 L 12.701759544389649 2.79518334 L 12.645688044389647 2.79518334 L 12.62731979438965 2.72171034 Q 12.569314794389648 2.80678434 12.456205044389648 2.80678434 Q 12.329560794389648 2.80678434 12.262371669389648 2.72074359 Q 12.195182544389649 2.63470284 12.195182544389649 2.46358809 Q 12.195182544389649 2.2944068399999997 12.264788544389647 2.20739934 Q 12.334394544389648 2.12039184 12.461038794389648 2.12039184 Q 12.569314794389648 2.12039184 12.635537169389648 2.1812970899999997 Q 12.701759544389649 2.24220234 12.701759544389649 2.3582123399999997 L 12.614752044389649 2.3582123399999997 Q 12.614752044389649 2.27797209 12.573665169389649 2.23833534 Q 12.532578294389648 2.19869859 12.461038794389648 2.19869859 Q 12.376931544389649 2.19869859 12.330527544389648 2.25960384 Q 12.284123544389649 2.32050909 12.284123544389649 2.4394193399999997 L 12.284123544389649 2.48775684 Q 12.284123544389649 2.60763384 12.328110669389648 2.668055715 Q 12.372097794389648 2.72847759 12.456205044389648 2.72847759 Q 12.538378794389649 2.72847759 12.576565419389649 2.68207359 Q 12.614752044389649 2.63566959 12.614752044389649 2.53996134 L 12.614752044389649 2.52449334 L 12.442670544389648 2.52449334 L 12.442670544389648 2.45005359 M 13.244696483935547 2.1319928399999997 L 13.511519483935546 2.1319928399999997 Q 13.607227733935547 2.1319928399999997 13.658465483935547 2.181780465 Q 13.709703233935546 2.2315680899999997 13.709703233935546 2.31567534 Q 13.709703233935546 2.37754734 13.678767233935547 2.42298459 Q 13.647831233935547 2.46842184 13.591759733935547 2.48679009 L 13.725171233935546 2.79518334 L 13.630429733935546 2.79518334 L 13.507652483935546 2.5022580899999998 L 13.329770483935546 2.5022580899999998 L 13.329770483935546 2.79518334 L 13.244696483935547 2.79518334 L 13.244696483935547 2.1319928399999997 M 13.508619233935546 2.42491809 Q 13.558890233935546 2.42491809 13.589826233935547 2.3949488399999996 Q 13.620762233935547 2.36497959 13.620762233935547 2.31567534 Q 13.620762233935547 2.26540434 13.591759733935547 2.23736859 Q 13.562757233935546 2.20933284 13.508619233935546 2.20933284 L 13.329770483935546 2.20933284 L 13.329770483935546 2.42491809 L 13.508619233935546 2.42491809 M 14.27775584755371 2.7197768399999998 Q 14.209116597553711 2.63276934 14.209116597553711 2.46358809 Q 14.209116597553711 2.2944068399999997 14.27775584755371 2.20739934 Q 14.34639509755371 2.12039184 14.47013909755371 2.12039184 Q 14.59388309755371 2.12039184 14.662522347553711 2.20739934 Q 14.73116159755371 2.2944068399999997 14.73116159755371 2.46358809 Q 14.73116159755371 2.63276934 14.662522347553711 2.7197768399999998 Q 14.59388309755371 2.80678434 14.47013909755371 2.80678434 Q 14.34639509755371 2.80678434 14.27775584755371 2.7197768399999998 M 14.59678334755371 2.66757234 Q 14.642220597553711 2.6066670899999997 14.642220597553711 2.48775684 L 14.642220597553711 2.4394193399999997 Q 14.642220597553711 2.32050909 14.59678334755371 2.25960384 Q 14.551346097553711 2.19869859 14.47013909755371 2.19869859 Q 14.388932097553711 2.19869859 14.34349484755371 2.25960384 Q 14.298057597553711 2.32050909 14.298057597553711 2.4394193399999997 L 14.298057597553711 2.48775684 Q 14.298057597553711 2.6066670899999997 14.34349484755371 2.66757234 Q 14.388932097553711 2.72847759 14.47013909755371 2.72847759 Q 14.551346097553711 2.72847759 14.59678334755371 2.66757234 M 15.20062553709961 2.1319928399999997 L 15.29053328709961 2.1319928399999997 L 15.392042037099609 2.59023234 Q 15.397842537099608 2.61440109 15.40412641209961 2.65500459 Q 15.410410287099609 2.69560809 15.412343787099609 2.70817584 L 15.416210787099608 2.70817584 Q 15.417177537099608 2.6975415899999997 15.42152791209961 2.665155465 Q 15.425878287099609 2.63276934 15.432645537099608 2.59023234 L 15.50901878709961 2.1319928399999997 L 15.626962287099609 2.1319928399999997 L 15.70913603709961 2.59023234 Q 15.714936537099609 2.6202015899999997 15.720253662099609 2.658388215 Q 15.72557078709961 2.69657484 15.72653753709961 2.70817584 L 15.73040453709961 2.70817584 Q 15.732338037099609 2.69560809 15.738621912099608 2.6564547149999997 Q 15.74490578709961 2.61730134 15.750706287099609 2.59023234 L 15.852215037099608 2.1319928399999997 L 15.92955503709961 2.1319928399999997 L 15.775841787099608 2.79518334 L 15.665632287099609 2.79518334 L 15.58442528709961 2.34564459 Q 15.579591537099608 2.31760884 15.573791037099609 2.27217159 Q 15.56799053709961 2.22673434 15.56605703709961 2.21223309 L 15.562190037099608 2.21223309 Q 15.560256537099608 2.22673434 15.554456037099609 2.27217159 Q 15.54865553709961 2.31760884 15.54382178709961 2.34564459 L 15.464548287099609 2.79518334 L 15.354338787099609 2.79518334 L 15.20062553709961 2.1319928399999997 M 16.370019780966796 2.69077434 L 16.466694780966794 2.69077434 L 16.466694780966794 2.79518334 L 16.370019780966796 2.79518334 L 16.370019780966796 2.69077434" fill="#bf0000" fill-rule="nonzero"></path></g></g><defs><clipPath id="SvgjsClipPath95152"><path d=" M -4.340517549992091 -0.7576775541716081 h 3.6105175499920907 v 4.310538448343216 h -3.6105175499920907 Z"></path></clipPath><clipPath id="SvgjsClipPath95150280c6119-a2ef-4860-8b0d-ad5f03e09bcd"><path d=" M -4.340517549992091 -0.7576775541716081 L -0.7300000000000004 -0.7576775541716081 L -0.7300000000000004 3.5528608941716078 L -4.340517549992091 3.5528608941716078 Z"></path></clipPath></defs></svg>