<svg xmlns="http://www.w3.org/2000/svg" version="1.1" xmlns:xlink="http://www.w3.org/1999/xlink" viewBox="0 0 16.506354273716795 4.22753000478421"><g transform="matrix(0.7098705167713917,0,0,0.7098705167713917,3.007755565521631,1.4407678222762572)"><g transform="matrix(1,0,0,1,0,0)" clip-path="url(#SvgjsClipPath50508)"><g clip-path="url(#SvgjsClipPath505066de13031-1f20-4a5b-96e4-665a933118e8)"><path d=" M 13.864998768988807 -0.2750416410870341 L 13.862644305548464 -0.2750416410870341 L 13.862644305548464 1.7332239411833212 L 14.243012460952894 1.7332239411833212 L 14.243012460952894 1.4140718352277988 C 14.618524010831447 1.237070429733848 14.82101048277759 0.8232693437518188 14.730347964748786 0.4181536448907369 C 14.63968544671998 0.013037946029654968 14.280135394884937 -0.2749826614041182 13.864998768988807 -0.2750416410870341 Z" fill="#ff6b00" transform="matrix(1,0,0,1,0,0)" fill-rule="nonzero"></path></g><g clip-path="url(#SvgjsClipPath505066de13031-1f20-4a5b-96e4-665a933118e8)"><path d=" M 14.601976403263299 0.6389794129223064 C 14.587199877670853 0.6389794129223064 14.57522113689577 0.6270006721472248 14.57522113689577 0.6122241465547775 C 14.575137291799505 0.2764704468028031 14.336882576930448 -0.012028546886048708 14.007199187551084 -0.07558495249805938 C 13.997809777600965 -0.07737653260089539 13.990089401644575 -0.08404121150212848 13.986946250629073 -0.09306846912415512 C 13.983803099613574 -0.102095726746181 13.9857146929581 -0.11211410788535428 13.991960951939781 -0.11934978526998338 C 13.998207210921462 -0.12658546265461398 14.007839180193898 -0.12993916474326955 14.017228590098002 -0.12814758439805202 C 14.37214771055536 -0.05977402634838774 14.628665398253576 0.25077911226345806 14.628777535801742 0.6122241465547769 C 14.628777546239727 0.6193280383615172 14.625952400675777 0.6261403051531955 14.620924890529594 0.631159211459435 C 14.61589738038341 0.6361781177656751 14.609080284628684 0.6389915910229457 14.601976403261807 0.6389794129223042 Z" fill="#bf0000" transform="matrix(1,0,0,1,0,0)" fill-rule="nonzero"></path></g><g clip-path="url(#SvgjsClipPath505066de13031-1f20-4a5b-96e4-665a933118e8)"><path d=" M 13.789365453148713 2.1711541410870345 C 13.882938856928995 2.1711541410870345 13.958795088511541 2.095297909504487 13.958795088511541 2.0017245057242032 L 13.619935817785882 2.0017245057242032 C 13.619944260056613 2.0952944123784425 13.695795546494614 2.171145698816381 13.78936545314878 2.1711541410870345 Z" fill="#ff6b00" transform="matrix(1,0,0,1,0,0)" fill-rule="nonzero"></path></g><g clip-path="url(#SvgjsClipPath505066de13031-1f20-4a5b-96e4-665a933118e8)"><path d=" M 13.864998768988807 -0.301796907454563 L 13.83595019407549 -0.301796907454563 L 13.83595019407549 1.7065298297103464 L 13.44509397425499 1.7065298297103464 C 13.430317448662542 1.7065298297103464 13.418338707887461 1.7185085704854282 13.418338707887461 1.7332850960778754 C 13.418338707887461 1.7480616216703226 13.430317448662542 1.760040362445404 13.44509397425499 1.760040362445404 L 14.269767727320422 1.760040362445404 L 14.269767727320422 1.4308588537829685 C 14.650305680702468 1.2427631812582036 14.85116379681133 0.8173466331440955 14.75459861665237 0.40398930350349826 C 14.65803343649341 -0.009368026137098862 14.289485653288747 -0.3017645953903185 13.864998768988807 -0.3017969074545615 Z M 13.889460726810547 0.8813821262121184 L 14.007183898827675 0.8813821262121184 C 13.98444806263721 0.9953289084682424 13.973636719876096 1.1113330791372307 13.974924691950253 1.2275188293897497 L 13.974924691950253 1.7065298297103477 L 13.889506592981464 1.7065298297103477 Z M 14.231637650565784 1.389869785707914 L 14.216348926927196 1.3971166407126054 L 14.216348926927196 1.7065298297103477 L 14.028328203619841 1.7065298297103477 L 14.028328203619841 1.227518829389749 C 14.026760993590768 1.1111620144166112 14.038144676913797 0.9949920388836404 14.062269170097508 0.8811527953575351 C 14.216394793098113 0.8774987904079168 14.276173702524991 0.8309904930993324 14.299076210535596 0.7917137620717993 C 14.3189360310465 0.7573254049956029 14.318490712505355 0.7148502194065824 14.297914267539063 0.6808858044156754 C 14.280859068561792 0.6502115122392009 14.249876451073362 0.6298209985917279 14.214957653076084 0.6262897723022774 C 14.1665345462018 0.6233752109275186 14.119708347773102 0.6441406206506765 14.089360788385083 0.6819865925176525 C 14.062024550519288 0.7128392368203227 14.038678669523165 0.7630168278021685 14.020362778604134 0.8278715934770584 L 13.889399571915991 0.8278715934770584 L 13.889399571915991 -0.24795002279945602 C 14.287292325017155 -0.23659887270199825 14.625416480082846 0.04628469242345945 14.7068213072064 0.4359265096093766 C 14.788226134329957 0.8255683267952938 14.591642481838024 1.2201642254433995 14.231576495671227 1.389869785707914 Z M 14.076762880106887 0.8271224460187705 C 14.086891716617718 0.7874417369867732 14.104805423176472 0.7501695862935915 14.129463110489102 0.7174717200828176 C 14.147429992334278 0.6949882686525748 14.174011603167731 0.6810817372753913 14.202726674165215 0.6791428899208776 C 14.204958314290085 0.6791444763656225 14.207188369240985 0.679261847678828 14.209407846395276 0.6794945305645652 C 14.227187357998178 0.681080232751624 14.242973804767399 0.6915106662740619 14.25140597023048 0.7072435639686032 C 14.262342161569485 0.7247150744371047 14.262927658973922 0.7467473417660677 14.252934842594335 0.7647750310206085 C 14.242630242861928 0.7822653308631529 14.205524510591076 0.8212362874179135 14.076701725212333 0.8271224460187698 Z" fill="#004a80" transform="matrix(1,0,0,1,0,0)" fill-rule="nonzero"></path></g><g clip-path="url(#SvgjsClipPath505066de13031-1f20-4a5b-96e4-665a933118e8)"><path d=" M 12.986845060635593 0.5661897996789895 C 12.93242530968236 0.5800426745358443 12.892029239736358 0.6257909380869948 12.885019156723141 0.6815069157932107 C 12.878009073709922 0.7372228934994258 12.905813587084596 0.7915520304429231 12.955105670361885 0.8184537397156897 C 12.968079459832053 0.8255295845422455 12.984332899815156 0.8207483557243047 12.99140874464171 0.8077745662541367 C 12.998484589468266 0.7948007767839687 12.993703360650327 0.7785473368008653 12.98072957118016 0.7714714919743095 C 12.95071346288023 0.7551334066153801 12.933764301126692 0.7220812196592923 12.938013525139189 0.6881718715977277 C 12.942262749151684 0.6542625235361625 12.966843395816804 0.6264144902797141 12.999962785517504 0.6179879953665258 C 13.014141649774102 0.6142415725971642 13.022662042002604 0.5997791628622481 13.019066704369102 0.58556123676612 C 13.015471366735598 0.5713433106699912 13.001100438708255 0.5626695106549436 12.986845060635595 0.5661133560607963 Z" fill="#004a80" transform="matrix(1,0,0,1,0,0)" fill-rule="nonzero"></path></g><g clip-path="url(#SvgjsClipPath505066de13031-1f20-4a5b-96e4-665a933118e8)"><path d=" M 13.361541099570104 0.3046456043936663 C 13.371050676487409 0.3036706134532726 13.37931773643322 0.29769638573307267 13.383228157882375 0.2889733550344026 C 13.38713857933153 0.2802503243357318 13.386098276229953 0.27010372655828396 13.380499120694521 0.2623556869500999 C 13.37489996515909 0.2546076473419151 13.3655926021296 0.2504352774592532 13.356083025241354 0.25141026868305405 C 13.270988711993082 0.2601647729893032 13.202372714362017 0.32496185840396496 13.18876493127845 0.409416057415237 C 13.175157148194883 0.49387025642650906 13.219947904928793 0.5769401397798956 13.297985875404496 0.6119795269765601 C 13.311462066715524 0.6180421242092548 13.32730138439694 0.6120322188261172 13.33336398173004 0.5985560275602586 C 13.33942657906314 0.5850798362944 13.333416673798016 0.5692405185682072 13.319940482577326 0.5631779211347012 C 13.26398037364676 0.5380605435137736 13.231857873233315 0.4784976158536184 13.241613023441195 0.41793976342511086 C 13.251368173649077 0.3573819109966033 13.300570114513768 0.3109193841668243 13.361586965741024 0.30464560439366406 Z" fill="#004a80" transform="matrix(1,0,0,1,0,0)" fill-rule="nonzero"></path></g><g clip-path="url(#SvgjsClipPath505066de13031-1f20-4a5b-96e4-665a933118e8)"><path d=" M 13.430860172547462 0.8666285079008811 C 13.502202700871976 0.8328982512484289 13.55026370348879 0.763816381329129 13.557083874907644 0.6851972244817565 C 13.558350434244138 0.6704798049916807 13.54744635764145 0.6575222299704071 13.532728938151372 0.6562556706339111 C 13.518011518661297 0.6549891112974152 13.505053943640021 0.6658931879001043 13.503787384303527 0.6806106073901809 C 13.497371477697595 0.7561413658803464 13.44106080612342 0.8179645054561895 13.366455727366713 0.8313861878909947 C 13.291850648610003 0.8448078703257997 13.217523732593719 0.8064868333401292 13.185185672398994 0.7379280323112478 C 13.18111638198502 0.729276010595115 13.172740403923072 0.7234521534476905 13.163212888111836 0.7226502515108262 C 13.1536853723006 0.7218483495739603 13.144453775053513 0.7261902308292896 13.138995549738219 0.7340403506154565 C 13.133537324422925 0.7418904704016227 13.132681705317204 0.7520562087670222 13.136750995860105 0.760708230422517 C 13.188744955290556 0.8711870832886734 13.320440977596721 0.9186173626038034 13.430936616165653 0.8666590853481573 Z" fill="#004a80" transform="matrix(1,0,0,1,0,0)" fill-rule="nonzero"></path></g><g clip-path="url(#SvgjsClipPath505066de13031-1f20-4a5b-96e4-665a933118e8)"><path d=" M 13.484936388057148 1.3143129134860125 C 13.458040792355604 1.3423626728495384 13.414495338440345 1.3460677889381802 13.383247388632558 1.3229652414314055 C 13.351999438824771 1.2998626939246316 13.342776347666137 1.2571442080971142 13.361709275530131 1.2232074093236656 C 13.36890755442588 1.2103011696847774 13.364280337989333 1.1940032372359377 13.351374098350446 1.186804958340188 C 13.338467858711557 1.1796066794444393 13.322169926262715 1.1842338958809855 13.314971647366967 1.1971401355198743 C 13.282975726801434 1.254585241583789 13.298607682124128 1.3268548132561833 13.351483618014816 1.3659420816080934 C 13.404359553905504 1.4050293499600057 13.478035723797746 1.3987786694425415 13.523570992691862 1.3513422021386727 C 13.530185638262129 1.3444407947777832 13.532615965762448 1.3345347599576696 13.52994649432223 1.3253556052138464 C 13.52727702288201 1.316176450470024 13.519913308728027 1.3091187078086255 13.510629191782499 1.3068409606490523 C 13.50134507483697 1.304563213489479 13.491551033361848 1.307411505819935 13.484936388082453 1.3143129134596108 Z" fill="#004a80" transform="matrix(1,0,0,1,0,0)" fill-rule="nonzero"></path></g><g clip-path="url(#SvgjsClipPath505066de13031-1f20-4a5b-96e4-665a933118e8)"><path d=" M 13.753253487914366 1.3066685516667185 C 13.753719831887055 1.304720147427151 13.753960933930275 1.3027246432822033 13.75397205792538 1.3007212381713076 L 13.75397205792538 1.2908447227007793 C 13.75397205792538 1.289728645875163 13.754124945161767 1.2886584352204613 13.754124945161767 1.2875423583948442 C 13.754124945161767 1.287037830514771 13.754002635372657 1.2865638800819745 13.75397205792538 1.2860134860309849 L 13.75397205792538 1.0178951395810698 C 13.75397205792538 1.0175587876610206 13.75406379026721 1.0172377244646107 13.754079078990848 1.0169013725445615 C 13.754079078990848 1.0159993378498848 13.754079078990848 1.0151431693261237 13.75397205792538 1.0142717120787241 L 13.75397205792538 0.09988372870205736 C 13.753503376795845 0.09758347360158254 13.753503376795845 0.09521232582333583 13.75397205792538 0.09291207072286106 C 13.753982522509943 -0.1180070678982317 13.588148999485046 -0.29165670758499773 13.377452870965197 -0.30135333447465695 C 13.166756742445347 -0.3110499613643161 12.985674633196394 -0.15336602295541205 12.966312304788993 0.05666250697548675 C 12.963071095377588 0.05736578826314409 12.95979930851893 0.057778583801385786 12.956588676554828 0.05860417487786995 C 12.870812931688452 0.08030164385017818 12.799865901972298 0.14039794715247605 12.764355757304816 0.22143675386185646 C 12.72884561263733 0.3024755605712377 12.732753155256896 0.3953721579622208 12.774943351004765 0.47314262761454207 C 12.704614469786726 0.546443481442413 12.672749203389838 0.6484934875687143 12.68887232679618 0.7487891085942582 C 12.70499545020252 0.8490847296198025 12.767239012517729 0.9360061763590022 12.856997930773066 0.9835719550124395 C 12.844256021537705 1.012683749266381 12.837741256159209 1.0441379322289066 12.837871737501192 1.0759158457895124 C 12.838075175603894 1.2058060363339789 12.942180139731713 1.3116509541613919 13.072049117473446 1.3140071390132417 C 13.098019747785285 1.4814965980757502 13.241425015912343 1.6055624713989918 13.410908388199106 1.6071684147831633 L 13.41465412549056 1.6071684147831633 C 13.507349407069928 1.6085052037187342 13.596884227231653 1.5734979945362848 13.664089651654123 1.509641646692612 C 13.718407464806255 1.455692711835828 13.750267259059067 1.3831668839036715 13.753253487914366 1.3066685516667185 Z M 13.411458782250094 1.5536578820481068 C 13.252139963725554 1.5524529764413988 13.123245202626947 1.4236671079019318 13.121905645258877 1.2643493646351072 C 13.121698162838877 1.1875827191076278 13.152208049576087 1.1139229781217292 13.206635751663937 1.0597862423507973 C 13.216777395971352 1.0492900928433586 13.216635768361563 1.0326026295909188 13.2063174347554 1.0222801252759417 C 13.195999101149237 1.0119576209609658 13.179311696494288 1.0118092495912445 13.168811449382064 1.021946651345295 C 13.105349550984144 1.0851312391440664 13.069342657741732 1.1707787569832269 13.06859386593112 1.260328430318158 C 12.969694301630842 1.2561949505890615 12.89159554232856 1.1749016096584297 12.891428136407168 1.0759158457895102 C 12.891344271692887 1.0513580186785392 12.89639569080124 1.0270539228242188 12.906258198336598 1.0045633725682201 C 12.922366629170583 1.00998090051456 12.938872217284366 1.0141366896556265 12.955625486965598 1.0169931048863925 C 12.957085861045986 1.017235452593182 12.958563583073115 1.0173581699933585 12.96004392809715 1.0173600342537188 C 12.973955441939037 1.0173213055140051 12.985518954156465 1.0066337303283248 12.986651150546026 0.9927683111632306 C 12.987783346935585 0.9789028919981355 12.978106869014587 0.9664809415395081 12.96438592561051 0.9641858534387102 C 12.846778411399116 0.9444939194273545 12.755898281953812 0.8501799859857369 12.740579659689638 0.7319233181990188 C 12.725261037425465 0.6136666504123015 12.78911052549297 0.49930949566130634 12.897818822888096 0.45030127449849333 C 12.911290792363951 0.44422601154776864 12.917287007746221 0.42837984875101764 12.9112117447955 0.4149078792751614 C 12.905136481844776 0.40143590979930444 12.889290319048024 0.3954396944170352 12.87581834957217 0.40151495736775766 C 12.854787816404627 0.4110189175836604 12.83483457502099 0.42274586756716037 12.816299348447146 0.43649555705284804 C 12.786801006106517 0.3741997977367276 12.786374435939546 0.30204527848607743 12.81513416976376 0.23940510335879028 C 12.843893903587977 0.1767649282315032 12.898892966807582 0.13005775902413402 12.965364403923378 0.11182422186379476 C 12.968816803340356 0.1906860897200216 12.996063940063358 0.2666550724494703 13.04352035916384 0.3297343998845884 C 13.049255600341763 0.3373813899364322 13.058634802598144 0.341387785073192 13.068124910747615 0.3402444148211289 C 13.077615018897086 0.3391010445690673 13.085774259526346 0.33298161409623994 13.08952912524896 0.3241912539428049 C 13.093283990971576 0.31540089378936986 13.092064028270674 0.3052750689851219 13.08632878534966 0.29762808024059095 C 12.997200575378265 0.17887544377179315 12.995102324978564 0.01611624859785371 13.081139565015322 -0.10489457657473972 C 13.167176805052085 -0.22590540174733387 13.321595027710952 -0.2773832686348066 13.463034014538621 -0.2322054036204237 C 13.604473001366289 -0.18702753860604074 13.700457773279886 -0.05556696722015722 13.700415659019406 0.09291207072286178 C 13.700884340148944 0.09521232582333661 13.700884340148944 0.09758347360158331 13.700415659019407 0.09988372870205808 L 13.700415659019407 0.34624622141426364 C 13.660473231212713 0.31650596428458166 13.607162092050274 0.31186731981378024 13.562683359860792 0.33426202490336143 C 13.518204627671311 0.3566567299929426 13.490182813535267 0.40224590100809 13.490287441330654 0.45204418899329335 C 13.490287441330654 0.4668207145857399 13.502266182105737 0.4787994553608216 13.517042707698185 0.4787994553608216 C 13.53181923329063 0.4787994553608216 13.543797974065713 0.4668207145857399 13.543797974065713 0.4520441889932927 C 13.543797974065713 0.40879540951642745 13.578858037065695 0.3737353465164449 13.62210681654256 0.3737353465164449 C 13.665355596019424 0.3737353465164449 13.700415659019406 0.40879540951642745 13.700415659019406 0.4520441889932927 L 13.700415659019406 1.0149291271951841 C 13.696941231471186 1.0613270183515806 13.65905825387438 1.0976487804206434 13.61255528644553 1.0991686392497089 C 13.566052319016686 1.1006884980787743 13.525878508297376 1.066917869957718 13.51938188241489 1.020845863243318 C 13.518513680699916 1.0147200228603737 13.518262706278838 1.0085224912378223 13.518632734956599 1.0023465076406268 C 13.519198066051564 0.9927877715441993 13.514620928481305 0.9836535346106974 13.506625485695881 0.9783845755414795 C 13.498630042910458 0.9731156164722616 13.488430992891542 0.9725124155057148 13.47987021913029 0.9768021926114387 C 13.471309445369043 0.9810919697171618 13.46568753307236 0.9896230056931039 13.465122202224101 0.9991817418041236 C 13.464557818481733 1.008937104201068 13.464967544478618 1.018724433951612 13.466345300112629 1.0283984927207803 C 13.473582388943854 1.0799478765596955 13.508018082631526 1.1236058604671848 13.55646365498426 1.1426516197940941 C 13.604909227337 1.1616973791210035 13.659857215964767 1.1531794507120345 13.700262771783022 1.1203601654068869 L 13.700262771783022 1.2907988565298654 C 13.700882207502952 1.3585744510496391 13.674202197565 1.423748172145488 13.626234771924981 1.471633879727081 C 13.568207804816193 1.5261439383533608 13.491049361100691 1.5556111258913483 13.411458782250094 1.5536578820481068 Z" fill="#004a80" transform="matrix(1,0,0,1,0,0)" fill-rule="nonzero"></path></g><g clip-path="url(#SvgjsClipPath505066de13031-1f20-4a5b-96e4-665a933118e8)"><path d=" M 13.207017969754897 0.11972849198494467 C 13.221794495347345 0.11972849198494467 13.233773236122426 0.10774975120986308 13.233773236122426 0.09297322561741578 C 13.233274711761018 0.04780722108921914 13.257084768866354 0.005857145584310386 13.29611870513358 -0.016870993606261042 C 13.335152641400807 -0.03959913279683325 13.383388806818747 -0.03959913279683325 13.422422743085974 -0.016870993606261042 C 13.4614566793532 0.0058571455843111075 13.485266736458534 0.04780722108922064 13.484768212097125 0.09297322561741578 C 13.484768212097125 0.10774975120986308 13.496746952872208 0.11972849198494467 13.511523478464653 0.11972849198494467 C 13.5263000040571 0.11972849198494467 13.538278744832182 0.10774975120986308 13.538278744832182 0.09297322561741578 C 13.5388734288413 0.02862564031687348 13.504885350345493 -0.031090084498450465 13.449255706725518 -0.06343677109532558 C 13.393626063105545 -0.09578345769220145 13.324915385114009 -0.09578345769220145 13.269285741494036 -0.06343677109532708 C 13.213656097874063 -0.031090084498453407 13.179668019378255 0.02862564031686976 13.18026270338737 0.09297322561741578 C 13.180262703387369 0.10774975120986308 13.192241444162452 0.11972849198494467 13.207017969754897 0.11972849198494467 Z" fill="#004a80" transform="matrix(1,0,0,1,0,0)" fill-rule="nonzero"></path></g><g clip-path="url(#SvgjsClipPath505066de13031-1f20-4a5b-96e4-665a933118e8)"><path d=" M 14.133438178635133 1.9749692393566742 L 13.445292727662292 1.9749692393566742 C 13.430516202069844 1.9749692393566742 13.418537461294763 1.986947980131756 13.418537461294763 2.0017245057242032 C 13.418537461294763 2.0165010313166505 13.430516202069844 2.028479772091732 13.445292727662292 2.028479772091732 L 13.595229240385923 2.028479772091732 C 13.608391448596981 2.1256419377240743 13.691346399513776 2.198116979340331 13.789396030595988 2.198116979340331 C 13.887445661678202 2.198116979340331 13.970400612594997 2.1256419377240743 13.983562820806057 2.028479772091732 L 14.13348404480605 2.028479772091732 C 14.148260570398497 2.028479772091732 14.160239311173578 2.0165010313166505 14.160239311173578 2.0017245057242032 C 14.160239311173578 1.986947980131756 14.148260570398497 1.9749692393566742 14.13348404480605 1.9749692393566742 Z M 13.789441896766904 2.144398874719506 C 13.720990070193405 2.1443073671557142 13.662212509618174 2.0956979142454397 13.649274878448333 2.028479772091732 L 13.92960891508548 2.028479772091732 C 13.91666138191481 2.0957172137787423 13.85785341903868 2.1443305995753867 13.789380741872352 2.144398874719506 Z" fill="#004a80" transform="matrix(1,0,0,1,0,0)" fill-rule="nonzero"></path></g><g clip-path="url(#SvgjsClipPath505066de13031-1f20-4a5b-96e4-665a933118e8)"><path d=" M 14.133438178635133 1.8407495345335119 L 13.445292727662292 1.8407495345335119 C 13.430516202069844 1.8407495345335119 13.418537461294763 1.8527282753085932 13.418537461294763 1.8675048009010404 C 13.418537461294763 1.8822813264934863 13.430516202069844 1.8942600672685694 13.445292727662292 1.8942600672685694 L 14.133438178635133 1.8942600672685694 C 14.148214704227579 1.8942600672685694 14.160193445002662 1.8822813264934863 14.160193445002662 1.8675048009010404 C 14.160193445002662 1.8527282753085932 14.148214704227579 1.8407495345335119 14.133438178635133 1.8407495345335119 Z" fill="#004a80" transform="matrix(1,0,0,1,0,0)" fill-rule="nonzero"></path></g></g><g><path d=" M 0.0795 0.9944999999999999 Q 0.0795 0.9652499999999999 0.08025 0.9007499999999999 Q 0.081 0.8362499999999999 0.082875 0.7511249999999999 Q 0.08475 0.6659999999999999 0.08700000000000001 0.5714999999999999 Q 0.08925 0.47699999999999987 0.091125 0.38624999999999987 Q 0.093 0.2954999999999999 0.094875 0.22049999999999992 Q 0.09675 0.14549999999999996 0.0975 0.09899999999999987 Q 0.09825 0.05249999999999988 0.09825 0.04799999999999993 Q 0.14025 0.04499999999999993 0.197625 0.0412499999999999 Q 0.255 0.03749999999999987 0.318375 0.03487499999999988 Q 0.38175000000000003 0.03224999999999989 0.44175000000000003 0.03224999999999989 Q 0.5295 0.03224999999999989 0.597375 0.054749999999999854 Q 0.66525 0.07724999999999993 0.70425 0.12749999999999995 Q 0.74325 0.17774999999999996 0.74325 0.25949999999999995 Q 0.74325 0.3194999999999999 0.7155 0.36449999999999994 Q 0.68775 0.40949999999999986 0.648 0.4372499999999999 Q 0.60825 0.46499999999999997 0.5715 0.4724999999999999 Q 0.57525 0.4724999999999999 0.579375 0.4724999999999999 Q 0.5835 0.4724999999999999 0.59025 0.4724999999999999 Q 0.657 0.47699999999999987 0.7076250000000001 0.5051249999999999 Q 0.75825 0.5332499999999999 0.7867500000000001 0.5804999999999999 Q 0.81525 0.6277499999999999 0.81525 0.6892499999999999 Q 0.81525 0.78975 0.77625 0.8523749999999999 Q 0.73725 0.9149999999999999 0.66525 0.9494999999999999 Q 0.59325 0.9839999999999999 0.493875 0.9967499999999999 Q 0.3945 1.0094999999999998 0.27525 1.0094999999999998 Q 0.219 1.0094999999999998 0.16725 1.00575 Q 0.1155 1.002 0.0795 0.9944999999999999 M 0.32625 0.78675 Q 0.333 0.7874999999999999 0.34275 0.7874999999999999 Q 0.3525 0.7874999999999999 0.3645 0.7874999999999999 Q 0.405 0.7874999999999999 0.4455 0.7822499999999999 Q 0.486 0.7769999999999999 0.519375 0.7649999999999999 Q 0.55275 0.7529999999999999 0.5730000000000001 0.731625 Q 0.59325 0.7102499999999999 0.59325 0.6779999999999999 Q 0.59325 0.6555 0.583875 0.63825 Q 0.5745 0.621 0.555 0.609375 Q 0.5355 0.5977499999999999 0.504375 0.5921249999999999 Q 0.47325 0.5864999999999999 0.42975 0.5864999999999999 Q 0.417 0.5864999999999999 0.39825 0.5868749999999999 Q 0.3795 0.5872499999999999 0.35962500000000003 0.5883749999999999 Q 0.33975 0.5894999999999999 0.3225 0.59175 L 0.32625 0.78675 M 0.3195 0.4019999999999999 Q 0.35925 0.4019999999999999 0.38325000000000004 0.39974999999999994 Q 0.40725 0.39749999999999996 0.42525 0.39149999999999996 Q 0.46875 0.3847499999999999 0.505125 0.35962499999999986 Q 0.5415 0.3344999999999999 0.5415 0.29174999999999995 Q 0.5415 0.24749999999999994 0.51075 0.22537499999999988 Q 0.48 0.20324999999999993 0.432 0.20324999999999993 Q 0.40425 0.20324999999999993 0.371625 0.20662499999999995 Q 0.339 0.20999999999999996 0.315 0.21374999999999988 L 0.3195 0.4019999999999999 M 0.9803023242187499 1.0305 Q 0.9758023242187499 0.9464999999999999 0.9694273242187499 0.8246249999999999 Q 0.9630523242187499 0.70275 0.9559273242187499 0.5636249999999999 Q 0.9488023242187499 0.4244999999999999 0.94205232421875 0.2868749999999999 Q 0.9353023242187499 0.14924999999999988 0.93005232421875 0.034499999999999864 Q 0.95930232421875 0.03149999999999986 1.00505232421875 0.02849999999999986 Q 1.0508023242187499 0.025499999999999856 1.1040523242187499 0.022499999999999853 Q 1.15730232421875 0.019499999999999962 1.2083023242187498 0.017249999999999877 Q 1.25930232421875 0.014999999999999902 1.29905232421875 0.014999999999999902 Q 1.35680232421875 0.014999999999999902 1.41492732421875 0.02587499999999987 Q 1.4730523242187499 0.03674999999999995 1.52142732421875 0.06374999999999986 Q 1.5698023242187498 0.09074999999999989 1.59905232421875 0.1406249999999999 Q 1.6283023242187498 0.1904999999999999 1.6283023242187498 0.2692499999999999 Q 1.6283023242187498 0.3464999999999999 1.58892732421875 0.41474999999999995 Q 1.5495523242187499 0.4829999999999999 1.48430232421875 0.5137499999999999 Q 1.5015523242187498 0.5459999999999999 1.5225523242187498 0.59175 Q 1.5435523242187499 0.6375 1.56492732421875 0.69 Q 1.58630232421875 0.7424999999999999 1.6058023242187498 0.7938749999999999 Q 1.6253023242187499 0.84525 1.6406773242187498 0.8879999999999999 Q 1.65605232421875 0.93075 1.6635523242187498 0.9577499999999999 Q 1.6418023242187498 0.97125 1.6054273242187498 0.98325 Q 1.56905232421875 0.99525 1.53080232421875 1.0046249999999999 Q 1.49255232421875 1.014 1.4644273242187498 1.02 Q 1.43630232421875 1.026 1.4303023242187498 1.026 Q 1.42430232421875 0.9959999999999999 1.41155232421875 0.9472499999999999 Q 1.39880232421875 0.8985 1.3823023242187498 0.8414999999999999 Q 1.36580232421875 0.7845 1.3489273242187498 0.7293749999999999 Q 1.3320523242187499 0.6742499999999999 1.31780232421875 0.6307499999999999 Q 1.30355232421875 0.5872499999999999 1.29530232421875 0.5662499999999999 Q 1.2780523242187498 0.5699999999999998 1.26042732421875 0.573 Q 1.2428023242187498 0.5759999999999998 1.22742732421875 0.5774999999999999 Q 1.21205232421875 0.579 1.19930232421875 0.57975 Q 1.2023023242187498 0.597 1.20567732421875 0.6363749999999999 Q 1.2090523242187499 0.6757499999999999 1.21280232421875 0.7274999999999999 Q 1.21655232421875 0.7792499999999999 1.2199273242187498 0.833625 Q 1.22330232421875 0.8879999999999999 1.2259273242187498 0.9359999999999999 Q 1.22855232421875 0.9839999999999999 1.22930232421875 1.0147499999999998 Q 1.19930232421875 1.0214999999999999 1.1561773242187499 1.024875 Q 1.11305232421875 1.0282499999999999 1.0669273242187498 1.029375 Q 1.0208023242187498 1.0305 0.9803023242187499 1.0305 M 1.1790523242187498 0.39974999999999994 Q 1.2023023242187498 0.39974999999999994 1.2266773242187499 0.39787499999999987 Q 1.25105232421875 0.3959999999999999 1.2848023242187498 0.3899999999999999 Q 1.33355232421875 0.3817499999999999 1.36280232421875 0.3671249999999999 Q 1.39205232421875 0.3524999999999999 1.40517732421875 0.32962499999999995 Q 1.4183023242187498 0.30674999999999997 1.4183023242187498 0.2759999999999999 Q 1.4183023242187498 0.2347499999999999 1.39955232421875 0.21637499999999987 Q 1.38080232421875 0.19799999999999995 1.3481773242187498 0.19274999999999987 Q 1.31555232421875 0.1874999999999999 1.27205232421875 0.1874999999999999 Q 1.26005232421875 0.1874999999999999 1.2435523242187498 0.18862499999999993 Q 1.2270523242187499 0.18974999999999986 1.21055232421875 0.19124999999999992 Q 1.19405232421875 0.19274999999999987 1.18055232421875 0.1938749999999999 Q 1.16705232421875 0.19499999999999995 1.1610523242187498 0.19574999999999987 Q 1.1618023242187498 0.2084999999999999 1.16405232421875 0.22949999999999993 Q 1.16630232421875 0.25049999999999994 1.1685523242187499 0.2756249999999999 Q 1.17080232421875 0.30074999999999996 1.1726773242187498 0.3251249999999999 Q 1.1745523242187499 0.3494999999999999 1.17642732421875 0.3693749999999999 Q 1.17830232421875 0.3892499999999999 1.1790523242187498 0.39974999999999994 M 2.0573429296874997 1.02525 Q 2.0280929296875 1.02525 1.9879679296874997 1.0245 Q 1.9478429296874997 1.02375 1.9069679296874997 1.0214999999999999 Q 1.8660929296874997 1.01925 1.8330929296874998 1.0154999999999998 Q 1.8315929296874998 0.9667499999999999 1.8300929296875 0.8906249999999999 Q 1.8285929296874999 0.8144999999999999 1.8274679296874998 0.7282499999999998 Q 1.8263429296874998 0.6419999999999999 1.8263429296874998 0.5639999999999998 Q 1.8263429296874998 0.44399999999999995 1.8282179296874999 0.3074999999999999 Q 1.8300929296875 0.17099999999999993 1.8330929296874998 0.02474999999999994 Q 1.8458429296874999 0.02399999999999991 1.8735929296874998 0.023624999999999896 Q 1.9013429296874997 0.023249999999999882 1.9362179296874997 0.02212499999999995 Q 1.9710929296875 0.020999999999999908 2.0037179296875 0.020624999999999893 Q 2.0363429296874997 0.02024999999999988 2.0588429296874997 0.02024999999999988 Q 2.0633429296875 0.10049999999999992 2.0663429296875 0.19837499999999986 Q 2.0693429296874997 0.2962499999999999 2.0708429296874997 0.3982499999999999 Q 2.0723429296875 0.5002499999999999 2.0723429296875 0.5939999999999999 Q 2.0723429296875 0.6404999999999998 2.0719679296874998 0.69075 Q 2.0715929296874998 0.7409999999999999 2.0708429296874997 0.7905 Q 2.0700929296874997 0.8399999999999999 2.0678429296875 0.8849999999999999 Q 2.0655929296875 0.9299999999999999 2.0633429296875 0.966375 Q 2.0610929296875 1.00275 2.0573429296874997 1.02525 M 2.271872548828125 0.9937499999999999 Q 2.274122548828125 0.9524999999999999 2.2763725488281246 0.8816249999999999 Q 2.2786225488281246 0.8107499999999999 2.2801225488281247 0.7218749999999999 Q 2.2816225488281248 0.6329999999999999 2.2816225488281248 0.5385 Q 2.2816225488281248 0.44399999999999995 2.2801225488281247 0.3513749999999999 Q 2.2786225488281246 0.2587499999999999 2.2763725488281246 0.17999999999999994 Q 2.274122548828125 0.10124999999999995 2.271872548828125 0.04799999999999993 Q 2.2936225488281248 0.04499999999999993 2.3401225488281248 0.0412499999999999 Q 2.3866225488281247 0.03749999999999987 2.436872548828125 0.03749999999999987 Q 2.460872548828125 0.03749999999999987 2.493122548828125 0.038999999999999924 Q 2.5253725488281247 0.04049999999999987 2.5366225488281247 0.042749999999999955 Q 2.5381225488281247 0.08174999999999988 2.5377475488281247 0.14174999999999993 Q 2.5373725488281247 0.20174999999999987 2.5354975488281246 0.2759999999999999 Q 2.5336225488281245 0.35024999999999995 2.530622548828125 0.43312499999999987 Q 2.5276225488281248 0.5159999999999999 2.5238725488281246 0.5992499999999998 Q 2.5216225488281245 0.6435 2.518997548828125 0.685125 Q 2.5163725488281248 0.7267499999999999 2.5133725488281247 0.7559999999999999 Q 2.5726225488281247 0.7522499999999999 2.6303725488281247 0.75 Q 2.6881225488281246 0.7477499999999999 2.7462475488281246 0.7462499999999999 Q 2.8043725488281246 0.7447499999999999 2.8628725488281246 0.7447499999999999 Q 2.8658725488281247 0.7642499999999999 2.868122548828125 0.8062499999999999 Q 2.870372548828125 0.84825 2.871872548828125 0.895875 Q 2.873372548828125 0.9434999999999999 2.873372548828125 0.9787499999999999 Q 2.7833725488281247 0.9907499999999999 2.6914975488281248 0.9963749999999999 Q 2.599622548828125 1.002 2.517122548828125 1.00275 Q 2.448872548828125 1.0034999999999998 2.3854975488281247 1.000875 Q 2.3221225488281245 0.99825 2.271872548828125 0.9937499999999999 M 3.0233706738281247 0.9937499999999999 Q 3.025620673828125 0.9524999999999999 3.0278706738281245 0.8816249999999999 Q 3.0301206738281246 0.8107499999999999 3.0316206738281246 0.7218749999999999 Q 3.0331206738281247 0.6329999999999999 3.0331206738281247 0.5385 Q 3.0331206738281247 0.44399999999999995 3.0316206738281246 0.3513749999999999 Q 3.0301206738281246 0.2587499999999999 3.0278706738281245 0.17999999999999994 Q 3.025620673828125 0.10124999999999995 3.0233706738281247 0.04799999999999993 Q 3.0451206738281247 0.04499999999999993 3.0916206738281247 0.0412499999999999 Q 3.1381206738281247 0.03749999999999987 3.188370673828125 0.03749999999999987 Q 3.212370673828125 0.03749999999999987 3.2446206738281247 0.038999999999999924 Q 3.2768706738281246 0.04049999999999987 3.2881206738281246 0.042749999999999955 Q 3.2896206738281246 0.08174999999999988 3.2892456738281246 0.14174999999999993 Q 3.2888706738281246 0.20174999999999987 3.2869956738281245 0.2759999999999999 Q 3.2851206738281244 0.35024999999999995 3.282120673828125 0.43312499999999987 Q 3.2791206738281247 0.5159999999999999 3.2753706738281245 0.5992499999999998 Q 3.2731206738281244 0.6435 3.270495673828125 0.685125 Q 3.2678706738281247 0.7267499999999999 3.2648706738281246 0.7559999999999999 Q 3.3241206738281246 0.7522499999999999 3.3818706738281246 0.75 Q 3.4396206738281245 0.7477499999999999 3.4977456738281245 0.7462499999999999 Q 3.5558706738281245 0.7447499999999999 3.6143706738281245 0.7447499999999999 Q 3.6173706738281246 0.7642499999999999 3.6196206738281247 0.8062499999999999 Q 3.6218706738281248 0.84825 3.6233706738281244 0.895875 Q 3.6248706738281244 0.9434999999999999 3.6248706738281244 0.9787499999999999 Q 3.5348706738281246 0.9907499999999999 3.4429956738281247 0.9963749999999999 Q 3.3511206738281247 1.002 3.2686206738281247 1.00275 Q 3.200370673828125 1.0034999999999998 3.1369956738281246 1.000875 Q 3.0736206738281244 0.99825 3.0233706738281247 0.9937499999999999 M 4.025368798828125 1.02525 Q 3.9961187988281246 1.02525 3.9559937988281244 1.0245 Q 3.9158687988281247 1.02375 3.8749937988281244 1.0214999999999999 Q 3.8341187988281247 1.01925 3.8011187988281243 1.0154999999999998 Q 3.7996187988281247 0.9667499999999999 3.7981187988281246 0.8906249999999999 Q 3.7966187988281246 0.8144999999999999 3.7954937988281245 0.7282499999999998 Q 3.7943687988281245 0.6419999999999999 3.7943687988281245 0.5639999999999998 Q 3.7943687988281245 0.44399999999999995 3.7962437988281246 0.3074999999999999 Q 3.7981187988281246 0.17099999999999993 3.8011187988281243 0.02474999999999994 Q 3.8138687988281244 0.02399999999999991 3.8416187988281245 0.023624999999999896 Q 3.8693687988281247 0.023249999999999882 3.9042437988281247 0.02212499999999995 Q 3.9391187988281247 0.020999999999999908 3.9717437988281246 0.020624999999999893 Q 4.004368798828125 0.02024999999999988 4.026868798828125 0.02024999999999988 Q 4.031368798828124 0.10049999999999992 4.034368798828124 0.19837499999999986 Q 4.037368798828124 0.2962499999999999 4.038868798828124 0.3982499999999999 Q 4.0403687988281245 0.5002499999999999 4.0403687988281245 0.5939999999999999 Q 4.0403687988281245 0.6404999999999998 4.0399937988281245 0.69075 Q 4.0396187988281245 0.7409999999999999 4.038868798828124 0.7905 Q 4.038118798828124 0.8399999999999999 4.035868798828124 0.8849999999999999 Q 4.033618798828124 0.9299999999999999 4.031368798828124 0.966375 Q 4.029118798828124 1.00275 4.025368798828125 1.02525 M 4.438648417968749 1.023 Q 4.419898417968749 1.023 4.38689841796875 1.0218749999999999 Q 4.353898417968749 1.0207499999999998 4.31602341796875 1.019625 Q 4.278148417968749 1.0185 4.24252341796875 1.017 Q 4.206898417968749 1.0154999999999998 4.183648417968749 1.014 Q 4.1918984179687495 0.9674999999999999 4.206523417968749 0.8955 Q 4.22114841796875 0.8234999999999999 4.24064841796875 0.7357499999999999 Q 4.260148417968749 0.6479999999999999 4.281898417968749 0.5523749999999998 Q 4.303648417968749 0.4567499999999999 4.326898417968749 0.36224999999999996 Q 4.350148417968749 0.26774999999999993 4.371898417968749 0.18299999999999994 Q 4.393648417968749 0.09824999999999995 4.412398417968749 0.03224999999999989 Q 4.488148417968749 0.022499999999999853 4.562023417968749 0.016124999999999945 Q 4.6358984179687495 0.009749999999999925 4.705648417968749 0.009749999999999925 Q 4.745398417968749 0.009749999999999925 4.78514841796875 0.0119999999999999 Q 4.8248984179687495 0.014249999999999874 4.863898417968749 0.019499999999999962 Q 4.87814841796875 0.08549999999999991 4.893148417968749 0.17099999999999993 Q 4.908148417968749 0.25649999999999995 4.92352341796875 0.3723749999999999 Q 4.938898417968749 0.48824999999999996 4.954273417968749 0.6446249999999999 Q 4.96964841796875 0.8009999999999999 4.985398417968749 1.00875 Q 4.960648417968749 1.01175 4.914898417968749 1.0154999999999998 Q 4.869148417968749 1.01925 4.819273417968749 1.0211249999999998 Q 4.769398417968749 1.023 4.7303984179687495 1.023 Q 4.728898417968749 1.00125 4.727773417968749 0.9734999999999999 Q 4.726648417968749 0.9457499999999999 4.725148417968749 0.9142499999999999 Q 4.723648417968749 0.8827499999999999 4.722523417968749 0.8504999999999999 Q 4.721398417968749 0.8182499999999999 4.720648417968749 0.7882499999999999 Q 4.719898417968749 0.7582499999999999 4.719148417968749 0.7327499999999999 Q 4.695148417968749 0.7334999999999999 4.66739841796875 0.7346249999999999 Q 4.63964841796875 0.7357499999999999 4.611523417968749 0.737625 Q 4.583398417968749 0.7394999999999999 4.558648417968749 0.7413749999999999 Q 4.533898417968749 0.74325 4.515148417968749 0.7454999999999999 Q 4.4963984179687495 0.7477499999999999 4.488148417968749 0.74925 Q 4.47689841796875 0.8002499999999999 4.467148417968749 0.8519999999999999 Q 4.45739841796875 0.9037499999999999 4.4498984179687495 0.948375 Q 4.442398417968749 0.9929999999999999 4.438648417968749 1.023 M 4.5188984179687495 0.5414999999999999 Q 4.536148417968749 0.5385 4.57289841796875 0.5347499999999998 Q 4.609648417968749 0.5309999999999999 4.649398417968749 0.5287499999999999 Q 4.68914841796875 0.5265 4.71389841796875 0.5257499999999999 Q 4.71239841796875 0.5099999999999999 4.71052341796875 0.4661249999999999 Q 4.7086484179687496 0.4222499999999999 4.705648417968749 0.3701249999999999 Q 4.702648417968749 0.31799999999999995 4.700023417968749 0.27412499999999995 Q 4.697398417968749 0.23024999999999995 4.695148417968749 0.21374999999999988 Q 4.6831484179687495 0.21374999999999988 4.6591484179687495 0.21524999999999994 Q 4.635148417968749 0.2167499999999999 4.6126484179687495 0.21824999999999994 Q 4.5901484179687495 0.2197499999999999 4.581148417968749 0.22124999999999995 Q 4.57664841796875 0.24299999999999988 4.56877341796875 0.2816249999999999 Q 4.560898417968749 0.3202499999999999 4.55189841796875 0.36749999999999994 Q 4.5428984179687495 0.41474999999999995 4.534273417968749 0.4601249999999999 Q 4.52564841796875 0.5055 4.5188984179687495 0.5414999999999999 M 5.4114866308593745 1.0162499999999999 Q 5.365736630859375 1.017 5.315111630859374 1.014375 Q 5.264486630859375 1.01175 5.2217366308593745 1.008 Q 5.178986630859375 1.0042499999999999 5.155736630859375 1.00125 Q 5.155736630859375 0.9937499999999999 5.155736630859375 0.96 Q 5.155736630859375 0.9262499999999999 5.155736630859375 0.8737499999999999 Q 5.155736630859375 0.8212499999999999 5.155736630859375 0.7571249999999999 Q 5.155736630859375 0.6929999999999998 5.156111630859375 0.6239999999999999 Q 5.156486630859375 0.5549999999999999 5.156486630859375 0.4889999999999999 Q 5.156486630859375 0.4072499999999999 5.155736630859375 0.32662499999999994 Q 5.154986630859375 0.24599999999999989 5.1534866308593745 0.17662499999999992 Q 5.1519866308593745 0.10724999999999996 5.148986630859374 0.06149999999999989 Q 5.163986630859375 0.06149999999999989 5.194736630859375 0.06299999999999994 Q 5.225486630859375 0.06449999999999989 5.262611630859375 0.06674999999999986 Q 5.299736630859375 0.06899999999999995 5.334986630859375 0.07237499999999986 Q 5.370236630859375 0.07574999999999987 5.394986630859375 0.0794999999999999 Q 5.443736630859375 0.1499999999999999 5.489111630859375 0.2231249999999999 Q 5.534486630859375 0.2962499999999999 5.5753616308593745 0.3701249999999999 Q 5.616236630859374 0.44399999999999995 5.652611630859375 0.5174999999999998 Q 5.688986630859375 0.591 5.720486630859375 0.6622499999999999 L 5.689736630859374 0.07499999999999996 Q 5.712236630859374 0.07499999999999996 5.744861630859375 0.07724999999999993 Q 5.777486630859375 0.0794999999999999 5.812361630859375 0.0824999999999999 Q 5.847236630859375 0.08549999999999991 5.876861630859375 0.08999999999999986 Q 5.906486630859375 0.09449999999999992 5.921486630859375 0.09899999999999987 Q 5.923736630859375 0.13124999999999987 5.9263616308593745 0.1728749999999999 Q 5.928986630859375 0.2144999999999999 5.930486630859375 0.26212499999999994 Q 5.931986630859375 0.30974999999999986 5.933486630859375 0.3603749999999999 Q 5.934986630859375 0.4109999999999999 5.935736630859375 0.46162499999999995 Q 5.936486630859375 0.5122499999999999 5.936486630859375 0.5587499999999999 Q 5.936486630859375 0.6344999999999998 5.934611630859375 0.708375 Q 5.932736630859375 0.7822499999999999 5.929361630859375 0.845625 Q 5.9259866308593745 0.9089999999999999 5.922236630859375 0.9521249999999999 Q 5.918486630859375 0.99525 5.913986630859375 1.0094999999999998 Q 5.892986630859375 1.0102499999999999 5.869361630859375 1.0106249999999999 Q 5.845736630859375 1.011 5.821736630859375 1.011 Q 5.7864866308593745 1.011 5.753111630859375 1.0094999999999998 Q 5.719736630859375 1.008 5.697236630859375 1.0042499999999999 Q 5.689736630859374 0.9907499999999999 5.672111630859375 0.9581249999999999 Q 5.654486630859375 0.9254999999999999 5.628986630859375 0.878625 Q 5.603486630859375 0.83175 5.5734866308593745 0.7762499999999999 Q 5.543486630859375 0.72075 5.511986630859375 0.6626249999999999 Q 5.4804866308593745 0.6044999999999999 5.449736630859375 0.5489999999999999 Q 5.418986630859375 0.49349999999999994 5.393486630859375 0.44699999999999995 Q 5.395736630859375 0.46799999999999986 5.397986630859375 0.5107499999999999 Q 5.400236630859375 0.5534999999999999 5.402111630859375 0.6097499999999999 Q 5.403986630859375 0.6659999999999999 5.405486630859375 0.726375 Q 5.406986630859375 0.78675 5.408486630859374 0.8441249999999999 Q 5.4099866308593745 0.9015 5.4107366308593745 0.9468749999999999 Q 5.4114866308593745 0.99225 5.4114866308593745 1.0162499999999999 M 6.068506728515624 0.23399999999999987 Q 6.064756728515624 0.21749999999999992 6.062131728515625 0.18712499999999987 Q 6.0595067285156246 0.15674999999999994 6.0576317285156245 0.1233749999999999 Q 6.055756728515624 0.08999999999999986 6.054631728515624 0.06337499999999996 Q 6.053506728515624 0.03674999999999995 6.053506728515624 0.026999999999999913 Q 6.137506728515624 0.020999999999999908 6.2451317285156245 0.016124999999999945 Q 6.352756728515624 0.011249999999999982 6.463006728515624 0.011249999999999982 Q 6.546256728515624 0.011249999999999982 6.625381728515624 0.014624999999999888 Q 6.704506728515624 0.017999999999999905 6.769756728515624 0.02774999999999994 Q 6.770506728515624 0.08999999999999986 6.766006728515624 0.1436249999999999 Q 6.7615067285156245 0.19724999999999993 6.755506728515624 0.22424999999999995 Q 6.741256728515625 0.22424999999999995 6.7142567285156245 0.22387499999999994 Q 6.687256728515624 0.22349999999999992 6.654631728515624 0.2231249999999999 Q 6.6220067285156246 0.2227499999999999 6.590506728515624 0.22237499999999988 Q 6.559006728515624 0.22199999999999986 6.535756728515624 0.22124999999999995 Q 6.536506728515624 0.2489999999999999 6.538756728515624 0.30337499999999995 Q 6.541006728515624 0.3577499999999999 6.544006728515624 0.4274999999999999 Q 6.547006728515624 0.49724999999999997 6.5507567285156245 0.57375 Q 6.554506728515625 0.65025 6.557881728515624 0.7237499999999999 Q 6.561256728515624 0.7972499999999999 6.563881728515624 0.8583749999999999 Q 6.566506728515624 0.9195 6.568381728515624 0.9588749999999999 Q 6.570256728515624 0.99825 6.570256728515624 1.00575 Q 6.540256728515624 1.0102499999999999 6.492256728515624 1.014 Q 6.444256728515624 1.01775 6.396631728515624 1.02 Q 6.349006728515624 1.0222499999999999 6.319006728515625 1.0222499999999999 Q 6.3167567285156245 0.978 6.3145067285156244 0.9153749999999999 Q 6.312256728515624 0.8527499999999999 6.310756728515624 0.7796249999999999 Q 6.309256728515624 0.7064999999999999 6.307756728515624 0.6296249999999999 Q 6.306256728515624 0.5527499999999999 6.305506728515624 0.47924999999999995 Q 6.304756728515624 0.40574999999999994 6.304756728515624 0.34424999999999994 Q 6.304756728515624 0.30974999999999986 6.304756728515624 0.27974999999999994 Q 6.304756728515624 0.24974999999999992 6.305506728515624 0.2257499999999999 Q 6.280006728515624 0.22724999999999995 6.250006728515625 0.22837499999999988 Q 6.220006728515624 0.22949999999999993 6.188506728515624 0.23099999999999987 Q 6.157006728515624 0.23249999999999993 6.126256728515624 0.23324999999999996 Q 6.095506728515624 0.23399999999999987 6.068506728515624 0.23399999999999987 M 7.409544726562499 0.9944999999999999 Q 7.409544726562499 0.9652499999999999 7.410294726562499 0.9007499999999999 Q 7.4110447265624995 0.8362499999999999 7.412919726562499 0.7511249999999999 Q 7.414794726562499 0.6659999999999999 7.417044726562499 0.5714999999999999 Q 7.419294726562499 0.47699999999999987 7.421169726562499 0.38624999999999987 Q 7.423044726562499 0.2954999999999999 7.424919726562499 0.22049999999999992 Q 7.426794726562499 0.14549999999999996 7.427544726562499 0.09899999999999987 Q 7.428294726562499 0.05249999999999988 7.428294726562499 0.04799999999999993 Q 7.470294726562499 0.04499999999999993 7.527669726562499 0.0412499999999999 Q 7.585044726562499 0.03749999999999987 7.648419726562499 0.03487499999999988 Q 7.711794726562499 0.03224999999999989 7.771794726562499 0.03224999999999989 Q 7.859544726562499 0.03224999999999989 7.9274197265624995 0.054749999999999854 Q 7.995294726562499 0.07724999999999993 8.0342947265625 0.12749999999999995 Q 8.0732947265625 0.17774999999999996 8.0732947265625 0.25949999999999995 Q 8.0732947265625 0.3194999999999999 8.045544726562499 0.36449999999999994 Q 8.0177947265625 0.40949999999999986 7.978044726562499 0.4372499999999999 Q 7.938294726562499 0.46499999999999997 7.901544726562499 0.4724999999999999 Q 7.905294726562499 0.4724999999999999 7.909419726562499 0.4724999999999999 Q 7.913544726562499 0.4724999999999999 7.920294726562499 0.4724999999999999 Q 7.987044726562499 0.47699999999999987 8.037669726562498 0.5051249999999999 Q 8.088294726562498 0.5332499999999999 8.1167947265625 0.5804999999999999 Q 8.145294726562499 0.6277499999999999 8.145294726562499 0.6892499999999999 Q 8.145294726562499 0.78975 8.1062947265625 0.8523749999999999 Q 8.0672947265625 0.9149999999999999 7.995294726562499 0.9494999999999999 Q 7.923294726562499 0.9839999999999999 7.823919726562499 0.9967499999999999 Q 7.724544726562499 1.0094999999999998 7.605294726562499 1.0094999999999998 Q 7.549044726562499 1.0094999999999998 7.497294726562499 1.00575 Q 7.445544726562499 1.002 7.409544726562499 0.9944999999999999 M 7.656294726562499 0.78675 Q 7.663044726562499 0.7874999999999999 7.672794726562499 0.7874999999999999 Q 7.682544726562499 0.7874999999999999 7.694544726562499 0.7874999999999999 Q 7.735044726562499 0.7874999999999999 7.775544726562499 0.7822499999999999 Q 7.816044726562499 0.7769999999999999 7.849419726562499 0.7649999999999999 Q 7.882794726562499 0.7529999999999999 7.9030447265624995 0.731625 Q 7.923294726562499 0.7102499999999999 7.923294726562499 0.6779999999999999 Q 7.923294726562499 0.6555 7.913919726562499 0.63825 Q 7.904544726562499 0.621 7.885044726562499 0.609375 Q 7.865544726562499 0.5977499999999999 7.8344197265624995 0.5921249999999999 Q 7.803294726562499 0.5864999999999999 7.759794726562499 0.5864999999999999 Q 7.747044726562499 0.5864999999999999 7.728294726562499 0.5868749999999999 Q 7.709544726562499 0.5872499999999999 7.689669726562499 0.5883749999999999 Q 7.669794726562499 0.5894999999999999 7.652544726562499 0.59175 L 7.656294726562499 0.78675 M 7.649544726562499 0.4019999999999999 Q 7.689294726562499 0.4019999999999999 7.713294726562499 0.39974999999999994 Q 7.737294726562499 0.39749999999999996 7.755294726562499 0.39149999999999996 Q 7.798794726562499 0.3847499999999999 7.8351697265624995 0.35962499999999986 Q 7.871544726562499 0.3344999999999999 7.871544726562499 0.29174999999999995 Q 7.871544726562499 0.24749999999999994 7.840794726562499 0.22537499999999988 Q 7.810044726562499 0.20324999999999993 7.762044726562499 0.20324999999999993 Q 7.734294726562499 0.20324999999999993 7.701669726562499 0.20662499999999995 Q 7.6690447265624995 0.20999999999999996 7.6450447265624994 0.21374999999999988 L 7.649544726562499 0.4019999999999999 M 8.31034705078125 1.0305 Q 8.30584705078125 0.9464999999999999 8.29947205078125 0.8246249999999999 Q 8.293097050781249 0.70275 8.285972050781249 0.5636249999999999 Q 8.27884705078125 0.4244999999999999 8.27209705078125 0.2868749999999999 Q 8.26534705078125 0.14924999999999988 8.26009705078125 0.034499999999999864 Q 8.289347050781249 0.03149999999999986 8.335097050781249 0.02849999999999986 Q 8.380847050781249 0.025499999999999856 8.434097050781249 0.022499999999999853 Q 8.48734705078125 0.019499999999999962 8.53834705078125 0.017249999999999877 Q 8.58934705078125 0.014999999999999902 8.62909705078125 0.014999999999999902 Q 8.68684705078125 0.014999999999999902 8.74497205078125 0.02587499999999987 Q 8.803097050781249 0.03674999999999995 8.851472050781249 0.06374999999999986 Q 8.899847050781249 0.09074999999999989 8.92909705078125 0.1406249999999999 Q 8.95834705078125 0.1904999999999999 8.95834705078125 0.2692499999999999 Q 8.95834705078125 0.3464999999999999 8.91897205078125 0.41474999999999995 Q 8.87959705078125 0.4829999999999999 8.81434705078125 0.5137499999999999 Q 8.83159705078125 0.5459999999999999 8.852597050781249 0.59175 Q 8.87359705078125 0.6375 8.894972050781249 0.69 Q 8.91634705078125 0.7424999999999999 8.93584705078125 0.7938749999999999 Q 8.95534705078125 0.84525 8.97072205078125 0.8879999999999999 Q 8.98609705078125 0.93075 8.993597050781249 0.9577499999999999 Q 8.97184705078125 0.97125 8.93547205078125 0.98325 Q 8.899097050781249 0.99525 8.86084705078125 1.0046249999999999 Q 8.82259705078125 1.014 8.79447205078125 1.02 Q 8.766347050781249 1.026 8.760347050781249 1.026 Q 8.754347050781249 0.9959999999999999 8.74159705078125 0.9472499999999999 Q 8.72884705078125 0.8985 8.712347050781249 0.8414999999999999 Q 8.69584705078125 0.7845 8.67897205078125 0.7293749999999999 Q 8.662097050781249 0.6742499999999999 8.64784705078125 0.6307499999999999 Q 8.63359705078125 0.5872499999999999 8.625347050781249 0.5662499999999999 Q 8.60809705078125 0.5699999999999998 8.59047205078125 0.573 Q 8.572847050781249 0.5759999999999998 8.55747205078125 0.5774999999999999 Q 8.54209705078125 0.579 8.529347050781249 0.57975 Q 8.532347050781249 0.597 8.53572205078125 0.6363749999999999 Q 8.53909705078125 0.6757499999999999 8.54284705078125 0.7274999999999999 Q 8.54659705078125 0.7792499999999999 8.54997205078125 0.833625 Q 8.55334705078125 0.8879999999999999 8.55597205078125 0.9359999999999999 Q 8.55859705078125 0.9839999999999999 8.55934705078125 1.0147499999999998 Q 8.529347050781249 1.0214999999999999 8.48622205078125 1.024875 Q 8.44309705078125 1.0282499999999999 8.39697205078125 1.029375 Q 8.35084705078125 1.0305 8.31034705078125 1.0305 M 8.50909705078125 0.39974999999999994 Q 8.532347050781249 0.39974999999999994 8.55672205078125 0.39787499999999987 Q 8.58109705078125 0.3959999999999999 8.614847050781249 0.3899999999999999 Q 8.663597050781249 0.3817499999999999 8.69284705078125 0.3671249999999999 Q 8.72209705078125 0.3524999999999999 8.73522205078125 0.32962499999999995 Q 8.74834705078125 0.30674999999999997 8.74834705078125 0.2759999999999999 Q 8.74834705078125 0.2347499999999999 8.72959705078125 0.21637499999999987 Q 8.710847050781249 0.19799999999999995 8.67822205078125 0.19274999999999987 Q 8.64559705078125 0.1874999999999999 8.60209705078125 0.1874999999999999 Q 8.59009705078125 0.1874999999999999 8.573597050781249 0.18862499999999993 Q 8.55709705078125 0.18974999999999986 8.54059705078125 0.19124999999999992 Q 8.524097050781249 0.19274999999999987 8.51059705078125 0.1938749999999999 Q 8.49709705078125 0.19499999999999995 8.49109705078125 0.19574999999999987 Q 8.49184705078125 0.2084999999999999 8.49409705078125 0.22949999999999993 Q 8.49634705078125 0.25049999999999994 8.49859705078125 0.2756249999999999 Q 8.50084705078125 0.30074999999999996 8.50272205078125 0.3251249999999999 Q 8.50459705078125 0.3494999999999999 8.50647205078125 0.3693749999999999 Q 8.50834705078125 0.3892499999999999 8.50909705078125 0.39974999999999994 M 9.335637656249999 1.023 Q 9.31688765625 1.023 9.283887656249998 1.0218749999999999 Q 9.250887656249999 1.0207499999999998 9.21301265625 1.019625 Q 9.17513765625 1.0185 9.139512656249998 1.017 Q 9.103887656249999 1.0154999999999998 9.08063765625 1.014 Q 9.088887656249998 0.9674999999999999 9.103512656249999 0.8955 Q 9.11813765625 0.8234999999999999 9.137637656249998 0.7357499999999999 Q 9.157137656249999 0.6479999999999999 9.17888765625 0.5523749999999998 Q 9.200637656249999 0.4567499999999999 9.22388765625 0.36224999999999996 Q 9.247137656249999 0.26774999999999993 9.26888765625 0.18299999999999994 Q 9.290637656249999 0.09824999999999995 9.30938765625 0.03224999999999989 Q 9.385137656249999 0.022499999999999853 9.45901265625 0.016124999999999945 Q 9.532887656249999 0.009749999999999925 9.60263765625 0.009749999999999925 Q 9.64238765625 0.009749999999999925 9.68213765625 0.0119999999999999 Q 9.721887656249999 0.014249999999999874 9.760887656249999 0.019499999999999962 Q 9.77513765625 0.08549999999999991 9.79013765625 0.17099999999999993 Q 9.805137656249999 0.25649999999999995 9.82051265625 0.3723749999999999 Q 9.835887656249998 0.48824999999999996 9.851262656249999 0.6446249999999999 Q 9.866637656249999 0.8009999999999999 9.88238765625 1.00875 Q 9.857637656249999 1.01175 9.811887656249999 1.0154999999999998 Q 9.766137656249999 1.01925 9.716262656249999 1.0211249999999998 Q 9.666387656249999 1.023 9.627387656249999 1.023 Q 9.625887656249999 1.00125 9.624762656249999 0.9734999999999999 Q 9.623637656249999 0.9457499999999999 9.622137656249999 0.9142499999999999 Q 9.620637656249999 0.8827499999999999 9.619512656249999 0.8504999999999999 Q 9.618387656249999 0.8182499999999999 9.617637656249999 0.7882499999999999 Q 9.616887656249999 0.7582499999999999 9.616137656249998 0.7327499999999999 Q 9.59213765625 0.7334999999999999 9.564387656249998 0.7346249999999999 Q 9.536637656249999 0.7357499999999999 9.508512656249998 0.737625 Q 9.480387656249999 0.7394999999999999 9.45563765625 0.7413749999999999 Q 9.430887656249999 0.74325 9.41213765625 0.7454999999999999 Q 9.393387656249999 0.7477499999999999 9.385137656249999 0.74925 Q 9.373887656249998 0.8002499999999999 9.36413765625 0.8519999999999999 Q 9.35438765625 0.9037499999999999 9.346887656249999 0.948375 Q 9.339387656249999 0.9929999999999999 9.335637656249999 1.023 M 9.415887656249998 0.5414999999999999 Q 9.433137656249999 0.5385 9.469887656249998 0.5347499999999998 Q 9.50663765625 0.5309999999999999 9.54638765625 0.5287499999999999 Q 9.58613765625 0.5265 9.610887656249998 0.5257499999999999 Q 9.609387656249998 0.5099999999999999 9.607512656249998 0.4661249999999999 Q 9.605637656249998 0.4222499999999999 9.60263765625 0.3701249999999999 Q 9.59963765625 0.31799999999999995 9.59701265625 0.27412499999999995 Q 9.59438765625 0.23024999999999995 9.59213765625 0.21374999999999988 Q 9.580137656249999 0.21374999999999988 9.556137656249998 0.21524999999999994 Q 9.532137656249999 0.2167499999999999 9.50963765625 0.21824999999999994 Q 9.487137656249999 0.2197499999999999 9.478137656249999 0.22124999999999995 Q 9.473637656249998 0.24299999999999988 9.465762656249998 0.2816249999999999 Q 9.45788765625 0.3202499999999999 9.44888765625 0.36749999999999994 Q 9.439887656249999 0.41474999999999995 9.431262656249999 0.4601249999999999 Q 9.422637656249998 0.5055 9.415887656249998 0.5414999999999999 M 10.287475869140623 1.02525 Q 10.258225869140624 1.02525 10.218100869140624 1.0245 Q 10.177975869140623 1.02375 10.137100869140623 1.0214999999999999 Q 10.096225869140623 1.01925 10.063225869140624 1.0154999999999998 Q 10.061725869140624 0.9667499999999999 10.060225869140623 0.8906249999999999 Q 10.058725869140623 0.8144999999999999 10.057600869140623 0.7282499999999998 Q 10.056475869140623 0.6419999999999999 10.056475869140623 0.5639999999999998 Q 10.056475869140623 0.44399999999999995 10.058350869140623 0.3074999999999999 Q 10.060225869140623 0.17099999999999993 10.063225869140624 0.02474999999999994 Q 10.075975869140624 0.02399999999999991 10.103725869140623 0.023624999999999896 Q 10.131475869140623 0.023249999999999882 10.166350869140624 0.02212499999999995 Q 10.201225869140623 0.020999999999999908 10.233850869140623 0.020624999999999893 Q 10.266475869140624 0.02024999999999988 10.288975869140623 0.02024999999999988 Q 10.293475869140623 0.10049999999999992 10.296475869140624 0.19837499999999986 Q 10.299475869140624 0.2962499999999999 10.300975869140624 0.3982499999999999 Q 10.302475869140624 0.5002499999999999 10.302475869140624 0.5939999999999999 Q 10.302475869140624 0.6404999999999998 10.302100869140624 0.69075 Q 10.301725869140624 0.7409999999999999 10.300975869140624 0.7905 Q 10.300225869140624 0.8399999999999999 10.297975869140624 0.8849999999999999 Q 10.295725869140623 0.9299999999999999 10.293475869140623 0.966375 Q 10.291225869140623 1.00275 10.287475869140623 1.02525 M 10.773505488281248 1.0162499999999999 Q 10.727755488281248 1.017 10.677130488281248 1.014375 Q 10.626505488281248 1.01175 10.583755488281248 1.008 Q 10.541005488281249 1.0042499999999999 10.517755488281248 1.00125 Q 10.517755488281248 0.9937499999999999 10.517755488281248 0.96 Q 10.517755488281248 0.9262499999999999 10.517755488281248 0.8737499999999999 Q 10.517755488281248 0.8212499999999999 10.517755488281248 0.7571249999999999 Q 10.517755488281248 0.6929999999999998 10.518130488281248 0.6239999999999999 Q 10.518505488281248 0.5549999999999999 10.518505488281248 0.4889999999999999 Q 10.518505488281248 0.4072499999999999 10.517755488281248 0.32662499999999994 Q 10.517005488281248 0.24599999999999989 10.515505488281248 0.17662499999999992 Q 10.514005488281247 0.10724999999999996 10.511005488281247 0.06149999999999989 Q 10.526005488281248 0.06149999999999989 10.556755488281247 0.06299999999999994 Q 10.587505488281248 0.06449999999999989 10.624630488281248 0.06674999999999986 Q 10.661755488281248 0.06899999999999995 10.697005488281247 0.07237499999999986 Q 10.732255488281249 0.07574999999999987 10.757005488281248 0.0794999999999999 Q 10.805755488281248 0.1499999999999999 10.851130488281248 0.2231249999999999 Q 10.896505488281248 0.2962499999999999 10.937380488281248 0.3701249999999999 Q 10.978255488281247 0.44399999999999995 11.014630488281249 0.5174999999999998 Q 11.051005488281248 0.591 11.082505488281248 0.6622499999999999 L 11.051755488281248 0.07499999999999996 Q 11.074255488281247 0.07499999999999996 11.106880488281249 0.07724999999999993 Q 11.139505488281248 0.0794999999999999 11.174380488281248 0.0824999999999999 Q 11.209255488281247 0.08549999999999991 11.238880488281248 0.08999999999999986 Q 11.268505488281248 0.09449999999999992 11.283505488281248 0.09899999999999987 Q 11.285755488281248 0.13124999999999987 11.288380488281248 0.1728749999999999 Q 11.291005488281249 0.2144999999999999 11.292505488281249 0.26212499999999994 Q 11.294005488281249 0.30974999999999986 11.295505488281247 0.3603749999999999 Q 11.297005488281247 0.4109999999999999 11.297755488281247 0.46162499999999995 Q 11.298505488281247 0.5122499999999999 11.298505488281247 0.5587499999999999 Q 11.298505488281247 0.6344999999999998 11.296630488281249 0.708375 Q 11.294755488281247 0.7822499999999999 11.291380488281249 0.845625 Q 11.288005488281248 0.9089999999999999 11.284255488281248 0.9521249999999999 Q 11.280505488281248 0.99525 11.276005488281248 1.0094999999999998 Q 11.255005488281247 1.0102499999999999 11.231380488281248 1.0106249999999999 Q 11.207755488281247 1.011 11.183755488281248 1.011 Q 11.148505488281248 1.011 11.115130488281247 1.0094999999999998 Q 11.081755488281248 1.008 11.059255488281249 1.0042499999999999 Q 11.051755488281248 0.9907499999999999 11.034130488281248 0.9581249999999999 Q 11.016505488281247 0.9254999999999999 10.991005488281248 0.878625 Q 10.965505488281249 0.83175 10.935505488281247 0.7762499999999999 Q 10.905505488281248 0.72075 10.874005488281249 0.6626249999999999 Q 10.842505488281247 0.6044999999999999 10.811755488281248 0.5489999999999999 Q 10.781005488281247 0.49349999999999994 10.755505488281248 0.44699999999999995 Q 10.757755488281248 0.46799999999999986 10.760005488281248 0.5107499999999999 Q 10.762255488281248 0.5534999999999999 10.764130488281248 0.6097499999999999 Q 10.766005488281248 0.6659999999999999 10.767505488281248 0.726375 Q 10.769005488281248 0.78675 10.770505488281248 0.8441249999999999 Q 10.772005488281248 0.9015 10.772755488281248 0.9468749999999999 Q 10.773505488281248 0.99225 10.773505488281248 1.0162499999999999 M 11.840787304687497 1.02375 Q 11.784537304687497 1.02375 11.726412304687496 1.0102499999999999 Q 11.668287304687498 0.9967499999999999 11.613912304687497 0.9704999999999999 Q 11.559537304687497 0.9442499999999999 11.514537304687497 0.9056249999999999 Q 11.469537304687497 0.867 11.438787304687498 0.8167499999999999 Q 11.443287304687498 0.8092499999999999 11.462787304687497 0.7908749999999999 Q 11.482287304687498 0.7725 11.507787304687497 0.7503749999999999 Q 11.533287304687498 0.7282499999999998 11.558412304687497 0.7094999999999999 Q 11.583537304687498 0.69075 11.600037304687497 0.6824999999999999 Q 11.624037304687498 0.7102499999999999 11.651412304687497 0.738 Q 11.678787304687496 0.7657499999999999 11.709912304687498 0.7878749999999999 Q 11.741037304687497 0.8099999999999999 11.777037304687497 0.8234999999999999 Q 11.813037304687498 0.837 11.853537304687498 0.837 Q 11.900037304687498 0.837 11.927412304687497 0.81975 Q 11.954787304687498 0.8025 11.966787304687497 0.7758749999999999 Q 11.978787304687497 0.74925 11.978787304687497 0.7214999999999999 Q 11.978787304687497 0.6989999999999998 11.967537304687497 0.67875 Q 11.956287304687498 0.6584999999999999 11.933787304687497 0.6401249999999999 Q 11.911287304687498 0.6217499999999999 11.877912304687497 0.6041249999999999 Q 11.844537304687497 0.5864999999999999 11.799537304687497 0.5707499999999999 Q 11.709537304687498 0.5362499999999999 11.636787304687497 0.4976249999999999 Q 11.564037304687497 0.45899999999999996 11.520912304687497 0.4042499999999999 Q 11.477787304687498 0.3494999999999999 11.477787304687498 0.2669999999999999 Q 11.477787304687498 0.1792499999999999 11.526537304687498 0.11999999999999988 Q 11.575287304687498 0.06074999999999986 11.655537304687497 0.03037499999999993 Q 11.735787304687497 0 11.828037304687497 0 Q 11.897787304687498 0 11.963412304687497 0.015374999999999917 Q 12.029037304687497 0.030749999999999944 12.086037304687498 0.06149999999999989 Q 12.143037304687498 0.09224999999999994 12.184287304687498 0.13874999999999993 Q 12.173037304687497 0.1552499999999999 12.149037304687496 0.18299999999999994 Q 12.125037304687497 0.21074999999999988 12.098037304687498 0.23849999999999993 Q 12.071037304687497 0.2662499999999999 12.052287304687498 0.28274999999999995 Q 12.022287304687497 0.25349999999999995 11.985537304687497 0.22987499999999994 Q 11.948787304687498 0.20624999999999993 11.908287304687498 0.19237499999999996 Q 11.867787304687496 0.17849999999999988 11.826537304687497 0.17849999999999988 Q 11.778537304687497 0.17849999999999988 11.745537304687497 0.19912499999999989 Q 11.712537304687498 0.2197499999999999 11.712537304687498 0.2609999999999999 Q 11.712537304687498 0.27974999999999994 11.721162304687498 0.29474999999999996 Q 11.729787304687497 0.30974999999999986 11.745537304687497 0.32174999999999987 Q 11.761287304687498 0.3337499999999999 11.783037304687497 0.34387499999999993 Q 11.804787304687498 0.35399999999999987 11.831787304687497 0.3629999999999999 Q 11.908287304687498 0.38849999999999996 11.977662304687497 0.4162499999999999 Q 12.047037304687498 0.44399999999999995 12.100662304687496 0.4803749999999999 Q 12.154287304687497 0.5167499999999999 12.185037304687498 0.5692499999999999 Q 12.215787304687497 0.6217499999999999 12.215787304687497 0.6974999999999999 Q 12.215787304687497 0.7687499999999999 12.188037304687498 0.8283749999999999 Q 12.160287304687497 0.8879999999999999 12.110412304687497 0.9318749999999999 Q 12.060537304687497 0.9757499999999999 11.991912304687498 0.9997499999999999 Q 11.923287304687497 1.02375 11.840787304687497 1.02375" fill="#004a80" fill-rule="nonzero"></path></g><g><path d=" M 4.485122343749997 1.3816125000000001 L 4.554872343749997 1.3816125000000001 L 4.633622343749996 1.7371125 Q 4.6381223437499965 1.7558625 4.642997343749997 1.7873625000000002 Q 4.647872343749997 1.8188625 4.649372343749997 1.8286125000000002 L 4.652372343749997 1.8286125000000002 Q 4.653122343749997 1.8203625 4.656497343749996 1.7952375 Q 4.6598723437499965 1.7701125000000002 4.665122343749997 1.7371125 L 4.724372343749996 1.3816125000000001 L 4.815872343749997 1.3816125000000001 L 4.879622343749997 1.7371125 Q 4.884122343749997 1.7603625 4.888247343749997 1.7899875 Q 4.892372343749996 1.8196125 4.893122343749996 1.8286125000000002 L 4.8961223437499966 1.8286125000000002 Q 4.897622343749997 1.8188625 4.902497343749997 1.7884875 Q 4.907372343749997 1.7581125000000002 4.911872343749996 1.7371125 L 4.990622343749997 1.3816125000000001 L 5.050622343749997 1.3816125000000001 L 4.931372343749997 1.8961125 L 4.845872343749996 1.8961125 L 4.782872343749997 1.5473625000000002 Q 4.779122343749997 1.5256125 4.774622343749996 1.4903625 Q 4.770122343749996 1.4551125 4.768622343749997 1.4438625 L 4.765622343749997 1.4438625 Q 4.764122343749997 1.4551125 4.759622343749997 1.4903625 Q 4.7551223437499965 1.5256125 4.751372343749996 1.5473625000000002 L 4.689872343749997 1.8961125 L 4.604372343749997 1.8961125 L 4.485122343749997 1.3816125000000001 M 5.151922456054685 1.3816125000000001 L 5.469172456054684 1.3816125000000001 L 5.469172456054684 1.4416125000000002 L 5.217922456054684 1.4416125000000002 L 5.217922456054684 1.6028625 L 5.436172456054685 1.6028625 L 5.436172456054685 1.6628625000000001 L 5.217922456054684 1.6628625000000001 L 5.217922456054684 1.8361125 L 5.473672456054684 1.8361125 L 5.473672456054684 1.8961125 L 5.151922456054685 1.8961125 L 5.151922456054685 1.3816125000000001 M 5.9920607666015595 1.6283625000000002 L 6.19306076660156 1.6283625000000002 L 6.19306076660156 1.8961125 L 6.14956076660156 1.8961125 L 6.13531076660156 1.8391125000000001 Q 6.09031076660156 1.9051125 6.00256076660156 1.9051125 Q 5.90431076660156 1.9051125 5.8521857666015595 1.8383625000000001 Q 5.800060766601559 1.7716125 5.800060766601559 1.6388625 Q 5.800060766601559 1.5076125 5.85406076660156 1.4401125000000001 Q 5.90806076660156 1.3726125000000002 6.00631076660156 1.3726125000000002 Q 6.09031076660156 1.3726125000000002 6.14168576660156 1.4198625 Q 6.19306076660156 1.4671125 6.19306076660156 1.5571125000000001 L 6.12556076660156 1.5571125000000001 Q 6.12556076660156 1.4948625 6.09368576660156 1.4641125000000001 Q 6.0618107666015595 1.4333625 6.00631076660156 1.4333625 Q 5.941060766601559 1.4333625 5.90506076660156 1.4806125 Q 5.869060766601559 1.5278625000000001 5.869060766601559 1.6201125 L 5.869060766601559 1.6576125000000002 Q 5.869060766601559 1.7506125000000001 5.90318576660156 1.7974875000000001 Q 5.93731076660156 1.8443625000000001 6.00256076660156 1.8443625000000001 Q 6.06631076660156 1.8443625000000001 6.09593576660156 1.8083625 Q 6.12556076660156 1.7723625 6.12556076660156 1.6981125000000001 L 6.12556076660156 1.6861125000000001 L 5.9920607666015595 1.6861125000000001 L 5.9920607666015595 1.6283625000000002 M 6.3802461328124975 1.8597375 Q 6.335621132812498 1.8143625 6.335621132812498 1.7288625 L 6.335621132812498 1.3816125000000001 L 6.4016211328124975 1.3816125000000001 L 6.4016211328124975 1.7326125 Q 6.4016211328124975 1.7866125000000002 6.428996132812498 1.8154875000000001 Q 6.456371132812498 1.8443625000000001 6.505121132812498 1.8443625000000001 Q 6.553871132812497 1.8443625000000001 6.581246132812497 1.8154875000000001 Q 6.608621132812497 1.7866125000000002 6.608621132812497 1.7326125 L 6.608621132812497 1.3816125000000001 L 6.674621132812497 1.3816125000000001 L 6.674621132812497 1.7288625 Q 6.674621132812497 1.8143625 6.629996132812497 1.8597375 Q 6.585371132812497 1.9051125 6.505121132812498 1.9051125 Q 6.424871132812497 1.9051125 6.3802461328124975 1.8597375 M 6.82091611816406 1.3816125000000001 L 6.88691611816406 1.3816125000000001 L 6.88691611816406 1.8961125 L 6.82091611816406 1.8961125 L 6.82091611816406 1.3816125000000001 M 7.0332466259765605 1.3816125000000001 L 7.19299662597656 1.3816125000000001 Q 7.28524662597656 1.3816125000000001 7.33662162597656 1.4453625 Q 7.387996625976561 1.5091125 7.387996625976561 1.6313625 Q 7.387996625976561 1.7618625 7.33699662597656 1.8289875 Q 7.28599662597656 1.8961125 7.19299662597656 1.8961125 L 7.0332466259765605 1.8961125 L 7.0332466259765605 1.3816125000000001 M 7.18699662597656 1.8361125 Q 7.249246625976561 1.8361125 7.28412162597656 1.7892375 Q 7.318996625976561 1.7423625 7.318996625976561 1.6501125 L 7.318996625976561 1.6126125 Q 7.318996625976561 1.5286125000000002 7.28412162597656 1.4851125 Q 7.249246625976561 1.4416125000000002 7.18699662597656 1.4416125000000002 L 7.09924662597656 1.4416125000000002 L 7.09924662597656 1.8361125 L 7.18699662597656 1.8361125 M 7.518541611328123 1.3816125000000001 L 7.835791611328123 1.3816125000000001 L 7.835791611328123 1.4416125000000002 L 7.584541611328123 1.4416125000000002 L 7.584541611328123 1.6028625 L 7.802791611328123 1.6028625 L 7.802791611328123 1.6628625000000001 L 7.584541611328123 1.6628625000000001 L 7.584541611328123 1.8361125 L 7.840291611328123 1.8361125 L 7.840291611328123 1.8961125 L 7.518541611328123 1.8961125 L 7.518541611328123 1.3816125000000001 M 7.965599414062498 1.8151125000000001 L 8.040599414062498 1.8151125000000001 L 8.040599414062498 1.8961125 L 7.965599414062498 1.8961125 L 7.965599414062498 1.8151125000000001 M 8.50427764160156 1.6831125 L 8.33777764160156 1.3816125000000001 L 8.41052764160156 1.3816125000000001 L 8.541027641601561 1.6201125 L 8.54402764160156 1.6201125 L 8.67227764160156 1.3816125000000001 L 8.73602764160156 1.3816125000000001 L 8.57027764160156 1.6831125 L 8.57027764160156 1.8961125 L 8.50427764160156 1.8961125 L 8.50427764160156 1.6831125 M 8.873335444335934 1.8376125 Q 8.820085444335934 1.7701125000000002 8.820085444335934 1.6388625 Q 8.820085444335934 1.5076125 8.873335444335934 1.4401125000000001 Q 8.926585444335934 1.3726125000000002 9.022585444335935 1.3726125000000002 Q 9.118585444335935 1.3726125000000002 9.171835444335935 1.4401125000000001 Q 9.225085444335935 1.5076125 9.225085444335935 1.6388625 Q 9.225085444335935 1.7701125000000002 9.171835444335935 1.8376125 Q 9.118585444335935 1.9051125 9.022585444335935 1.9051125 Q 8.926585444335934 1.9051125 8.873335444335934 1.8376125 M 9.120835444335935 1.7971125000000001 Q 9.156085444335934 1.7498625 9.156085444335934 1.6576125000000002 L 9.156085444335934 1.6201125 Q 9.156085444335934 1.5278625000000001 9.120835444335935 1.4806125 Q 9.085585444335935 1.4333625 9.022585444335935 1.4333625 Q 8.959585444335934 1.4333625 8.924335444335934 1.4806125 Q 8.889085444335935 1.5278625000000001 8.889085444335935 1.6201125 L 8.889085444335935 1.6576125000000002 Q 8.889085444335935 1.7498625 8.924335444335934 1.7971125000000001 Q 8.959585444335934 1.8443625000000001 9.022585444335935 1.8443625000000001 Q 9.085585444335935 1.8443625000000001 9.120835444335935 1.7971125000000001 M 9.400270810546871 1.8597375 Q 9.355645810546871 1.8143625 9.355645810546871 1.7288625 L 9.355645810546871 1.3816125000000001 L 9.42164581054687 1.3816125000000001 L 9.42164581054687 1.7326125 Q 9.42164581054687 1.7866125000000002 9.449020810546871 1.8154875000000001 Q 9.47639581054687 1.8443625000000001 9.52514581054687 1.8443625000000001 Q 9.57389581054687 1.8443625000000001 9.601270810546872 1.8154875000000001 Q 9.628645810546871 1.7866125000000002 9.628645810546871 1.7326125 L 9.628645810546871 1.3816125000000001 L 9.694645810546872 1.3816125000000001 L 9.694645810546872 1.7288625 Q 9.694645810546872 1.8143625 9.650020810546872 1.8597375 Q 9.605395810546872 1.9051125 9.52514581054687 1.9051125 Q 9.444895810546871 1.9051125 9.400270810546871 1.8597375 M 10.229521303710932 1.6283625000000002 L 10.430521303710933 1.6283625000000002 L 10.430521303710933 1.8961125 L 10.387021303710933 1.8961125 L 10.372771303710932 1.8391125000000001 Q 10.327771303710932 1.9051125 10.240021303710932 1.9051125 Q 10.141771303710932 1.9051125 10.089646303710932 1.8383625000000001 Q 10.037521303710932 1.7716125 10.037521303710932 1.6388625 Q 10.037521303710932 1.5076125 10.091521303710932 1.4401125000000001 Q 10.145521303710932 1.3726125000000002 10.243771303710933 1.3726125000000002 Q 10.327771303710932 1.3726125000000002 10.379146303710932 1.4198625 Q 10.430521303710933 1.4671125 10.430521303710933 1.5571125000000001 L 10.363021303710932 1.5571125000000001 Q 10.363021303710932 1.4948625 10.331146303710932 1.4641125000000001 Q 10.299271303710933 1.4333625 10.243771303710933 1.4333625 Q 10.178521303710932 1.4333625 10.142521303710932 1.4806125 Q 10.106521303710933 1.5278625000000001 10.106521303710933 1.6201125 L 10.106521303710933 1.6576125000000002 Q 10.106521303710933 1.7506125000000001 10.140646303710932 1.7974875000000001 Q 10.174771303710932 1.8443625000000001 10.240021303710932 1.8443625000000001 Q 10.303771303710933 1.8443625000000001 10.333396303710932 1.8083625 Q 10.363021303710932 1.7723625 10.363021303710932 1.6981125000000001 L 10.363021303710932 1.6861125000000001 L 10.229521303710932 1.6861125000000001 L 10.229521303710932 1.6283625000000002 M 10.57308166992187 1.3816125000000001 L 10.780081669921868 1.3816125000000001 Q 10.85433166992187 1.3816125000000001 10.894081669921869 1.4202375 Q 10.933831669921869 1.4588625 10.933831669921869 1.5241125000000002 Q 10.933831669921869 1.5721125 10.90983166992187 1.6073625 Q 10.885831669921869 1.6426125 10.842331669921869 1.6568625000000001 L 10.94583166992187 1.8961125 L 10.87233166992187 1.8961125 L 10.77708166992187 1.6688625000000001 L 10.639081669921868 1.6688625000000001 L 10.639081669921868 1.8961125 L 10.57308166992187 1.8961125 L 10.57308166992187 1.3816125000000001 M 10.77783166992187 1.6088625 Q 10.81683166992187 1.6088625 10.840831669921869 1.5856125 Q 10.86483166992187 1.5623625 10.86483166992187 1.5241125000000002 Q 10.86483166992187 1.4851125 10.842331669921869 1.4633625000000001 Q 10.81983166992187 1.4416125000000002 10.77783166992187 1.4416125000000002 L 10.639081669921868 1.4416125000000002 L 10.639081669921868 1.6088625 L 10.77783166992187 1.6088625 M 11.09587665527343 1.8376125 Q 11.04262665527343 1.7701125000000002 11.04262665527343 1.6388625 Q 11.04262665527343 1.5076125 11.09587665527343 1.4401125000000001 Q 11.149126655273431 1.3726125000000002 11.245126655273431 1.3726125000000002 Q 11.341126655273431 1.3726125000000002 11.394376655273431 1.4401125000000001 Q 11.447626655273432 1.5076125 11.447626655273432 1.6388625 Q 11.447626655273432 1.7701125000000002 11.394376655273431 1.8376125 Q 11.341126655273431 1.9051125 11.245126655273431 1.9051125 Q 11.149126655273431 1.9051125 11.09587665527343 1.8376125 M 11.343376655273431 1.7971125000000001 Q 11.37862665527343 1.7498625 11.37862665527343 1.6576125000000002 L 11.37862665527343 1.6201125 Q 11.37862665527343 1.5278625000000001 11.343376655273431 1.4806125 Q 11.308126655273432 1.4333625 11.245126655273431 1.4333625 Q 11.18212665527343 1.4333625 11.14687665527343 1.4806125 Q 11.111626655273431 1.5278625000000001 11.111626655273431 1.6201125 L 11.111626655273431 1.6576125000000002 Q 11.111626655273431 1.7498625 11.14687665527343 1.7971125000000001 Q 11.18212665527343 1.8443625000000001 11.245126655273431 1.8443625000000001 Q 11.308126655273432 1.8443625000000001 11.343376655273431 1.7971125000000001 M 11.533187021484368 1.3816125000000001 L 11.602937021484367 1.3816125000000001 L 11.681687021484368 1.7371125 Q 11.686187021484368 1.7558625 11.691062021484367 1.7873625000000002 Q 11.695937021484367 1.8188625 11.697437021484367 1.8286125000000002 L 11.700437021484367 1.8286125000000002 Q 11.701187021484367 1.8203625 11.704562021484367 1.7952375 Q 11.707937021484367 1.7701125000000002 11.713187021484368 1.7371125 L 11.772437021484368 1.3816125000000001 L 11.863937021484368 1.3816125000000001 L 11.927687021484367 1.7371125 Q 11.932187021484367 1.7603625 11.936312021484367 1.7899875 Q 11.940437021484367 1.8196125 11.941187021484367 1.8286125000000002 L 11.944187021484368 1.8286125000000002 Q 11.945687021484368 1.8188625 11.950562021484368 1.7884875 Q 11.955437021484368 1.7581125000000002 11.959937021484368 1.7371125 L 12.038687021484368 1.3816125000000001 L 12.098687021484368 1.3816125000000001 L 11.979437021484367 1.8961125 L 11.893937021484367 1.8961125 L 11.830937021484367 1.5473625000000002 Q 11.827187021484368 1.5256125 11.822687021484368 1.4903625 Q 11.818187021484368 1.4551125 11.816687021484368 1.4438625 L 11.813687021484368 1.4438625 Q 11.812187021484368 1.4551125 11.807687021484368 1.4903625 Q 11.803187021484367 1.5256125 11.799437021484367 1.5473625000000002 L 11.737937021484367 1.8961125 L 11.652437021484367 1.8961125 L 11.533187021484368 1.3816125000000001 M 12.161749951171867 1.8151125000000001 L 12.236749951171866 1.8151125000000001 L 12.236749951171866 1.8961125 L 12.161749951171867 1.8961125 L 12.161749951171867 1.8151125000000001" fill="#800000" fill-rule="nonzero"></path></g></g><defs><clipPath id="SvgjsClipPath50508"><path d=" M 12.684770458984373 -0.301796907454563 h 2.0937601248573396 v 2.499706314909126 h -2.0937601248573396 Z"></path></clipPath><clipPath id="SvgjsClipPath505066de13031-1f20-4a5b-96e4-665a933118e8"><path d=" M 12.684770458984373 -0.301796907454563 L 14.778530583841713 -0.301796907454563 L 14.778530583841713 2.197909407454563 L 12.684770458984373 2.197909407454563 Z"></path></clipPath></defs></svg>