<svg width="200" height="65" viewBox="0 0 200 65" fill="none" xmlns="http://www.w3.org/2000/svg">
  <!-- This is a white version of the logo for transparent navbar -->
  <g fill="white">
    <!-- Simplified logo shape - replace with actual logo paths -->
    <path d="M20 10 H40 V20 H30 V30 H40 V40 H20 V10 Z" />
    <path d="M50 10 H90 V15 H70 V25 H85 V30 H70 V40 H90 V45 H50 V10 Z" />
    <path d="M100 10 H140 V15 H120 V25 H135 V30 H120 V40 H140 V45 H100 V10 Z" />
    <path d="M150 10 H170 Q180 10 180 20 V30 Q180 40 170 40 H150 V10 Z M160 15 V35 H165 Q170 35 170 30 V20 Q170 15 165 15 Z" />
  </g>
  <text x="20" y="55" font-family="Arial" font-size="12" fill="white">BRILLIANT BRAINS</text>
</svg>